{
.appVersion = "3134";
.formatVersion = 3;
DisplayStrings = (
"/petapp.wpda"
);
axes = (
{
name = Weight;
tag = wght;
}
);
customParameters = (
{
name = fsType;
value = (
);
},
{
name = "Use Typo Metrics";
value = 1;
}
);
date = "2023-03-07 19:41:45 +0000";
familyName = "Pitagon Sans";
featurePrefixes = (
{
automatic = 1;
code = "languagesystem DFLT dflt;
languagesystem latn dflt;
languagesystem latn ROM;
languagesystem latn CRT;
languagesystem latn MOL;
languagesystem latn TAT;
languagesystem latn KAZ;
languagesystem latn CAT;
languagesystem latn AZE;
languagesystem latn TRK;
";
name = Languagesystems;
}
);
features = (
{
automatic = 1;
code = "feature ccmp;
feature locl;
feature numr;
feature dnom;
feature frac;
feature ordn;
feature case;
feature zero;
";
tag = aalt;
},
{
automatic = 1;
code = "lookup ccmp_latn_1 {
	script latn;
	lookupflag 0;
	sub brevecomb acutecomb by brevecomb_acutecomb;
	sub brevecomb gravecomb by brevecomb_gravecomb;
	sub brevecomb tildecomb by brevecomb_tildecomb;
	sub circumflexcomb acutecomb by circumflexcomb_acutecomb;
	sub circumflexcomb gravecomb by circumflexcomb_gravecomb;
	sub circumflexcomb tildecomb by circumflexcomb_tildecomb;
} ccmp_latn_1;
";
tag = ccmp;
},
{
automatic = 1;
code = "script latn;
language ROM;
sub Scedilla by Scommaaccent;
sub scedilla by scommaaccent;
language CRT;
sub i by idotaccent;
language MOL;
sub Scedilla by Scommaaccent;
sub scedilla by scommaaccent;
language TAT;
sub i by idotaccent;
language KAZ;
sub i by idotaccent;
language CAT;
sub l periodcentered' l by periodcentered.loclCAT;
sub L periodcentered' L by periodcentered.loclCAT.case;
language AZE;
sub i by idotaccent;
language TRK;
sub i by idotaccent;
";
tag = locl;
},
{
automatic = 1;
code = "sub zero by zero.numr;
sub one by one.numr;
sub two by two.numr;
sub three by three.numr;
sub four by four.numr;
sub five by five.numr;
sub six by six.numr;
sub seven by seven.numr;
sub eight by eight.numr;
sub nine by nine.numr;
";
tag = numr;
},
{

glyphs = (
{
glyphname = A;
kernLeft = A;
kernRight = A;
lastChange = "2023-08-02 17:52:58 +0000";
layers = (
{
anchors = (
{
name = bottom;
pos = (323,0);
},
{
name = ogonek;
pos = (643,10);
},
{
name = top;
pos = (323,667);
}
);
layerId = UUID0;
shapes = (
{
closed = 1;
nodes = (
(84,0,ls),
(93,0,o),
(100,5,o),
(103,13,cs),
(330,602,l),
(315,600,l),
(541,13,ls),
(544,5,o),
(551,0,o),
(560,0,cs),
(603,0,ls),
(615,0,o),
(620,8,o),
(616,19,cs),
(363,654,ls),
(360,663,o),
(354,667,o),
(345,667,cs),
(299,667,ls),
(290,667,o),
(284,664,o),
(281,655,cs),
(27,19,ls),
(23,8,o),
(28,0,o),
(40,0,cs)
);
},
{
closed = 1;
nodes = (
(500,208,l),
(495,277,l),
(168,277,l),
(137,208,l)
);
}
);
width = 643;
},
{
anchors = (
{
name = bottom;
pos = (356,0);
},
{
name = ogonek;
pos = (716,10);
},
{
name = top;
pos = (356,667);
}
);
layerId = "ECACF70C-BE42-4FA5-B3A0-AFDA71FB1D31";
shapes = (
{
closed = 1;
nodes = (
(167,0,ls),
(185,0,o),
(198,9,o),
(203,27,cs),
(398,651,l),
(292,642,l),
(489,26,ls),
(495,8,o),
(507,0,o),
(525,0,cs),
(664,0,ls),
(687,0,o),
(697,14,o),
(690,36,cs),
(487,641,ls),
(481,658,o),
(468,667,o),
(450,667,cs),
(283,667,ls),
(265,667,o),
(253,658,o),
(247,641,cs),
(24,37,ls),
(16,14,o),
(26,0,o),
(49,0,cs)
);
},
{
closed = 1;
nodes = (
(509,117,l),
(490,257,l),
(197,257,l),
(163,117,l)
);
}
);
width = 712;
}
);
unicode = 65;
},
{
glyphname = AE;
lastChange = "2023-08-02 18:07:01 +0000";
layers = (
{
anchors = (
{
name = bottom;
pos = (479,0);
},
{
name = top;
pos = (676,667);
}
);
layerId = UUID0;
shapes = (
{
closed = 1;
nodes = (
(473,16,ls),
(473,6,o),
(479,0,o),
(489,0,cs),
(866,0,ls),
(876,0,o),
(882,6,o),
(882,16,cs),
(882,53,ls),
(882,63,o),
(876,69,o),
(866,69,cs),
(561,69,ls),
(551,69,o),
(545,75,o),
(545,85,cs),
(545,298,l),
(825,298,ls),
(835,298,o),
(841,304,o),
(841,314,cs),
(841,352,ls),
(841,362,o),
(835,368,o),
(825,368,cs),
(545,368,l),
(545,582,ls),
(545,592,o),
(551,598,o),
(561,598,cs),
(866,598,ls),
(876,598,o),
(882,604,o),
(882,614,cs),
(882,651,ls),
(882,661,o),
(876,667,o),
(866,667,cs),
(488,667,ls),
(480,667,o),
(474,664,o),
(469,657,cs),
(33,19,ls),
(26,8,o),
(31,0,o),
(44,0,cs),
(91,0,ls),
(99,0,o),
(105,3,o),
(110,10,cs),
(544,651,l),
(473,651,l)
);
},
{
closed = 1;
nodes = (
(497,281,l),
(229,281,l),
(171,209,l),
(493,209,l)
);
}
);
width = 957;
},
{
anchors = (
{
name = bottom;
pos = (527,0);
},
{
name = top;
pos = (743,667);
}
);
background = {
shapes = (
{
closed = 1;
nodes = (
(1007,0,l),
(1007,150,l),
(734,150,l),
(734,259,l),
(968,259,l),
(968,409,l),
(735,409,l),
(735,517,l),
(1007,517,l),
(1007,667,l),
(534,667,l),
(534,0,l)
);
}
);
};
layerId = "ECACF70C-BE42-4FA5-B3A0-AFDA71FB1D31";
shapes = (
{
closed = 1;
nodes = (
(534,32,ls),
(534,12,o),
(546,0,o),
(566,0,cs),
(967,0,ls),
(987,0,o),
(999,12,o),
(999,32,cs),
(999,119,ls),
(999,139,o),
(987,151,o),
(967,151,cs),
(766,151,ls),
(746,151,o),
(734,163,o),
(734,183,cs),
(734,263,l),
(928,263,ls),
(948,263,o),
(960,275,o),
(960,295,cs),
(960,382,ls),
(960,402,o),
(948,414,o),
(928,414,cs),
(734,414,l),
(734,485,ls),
(734,505,o),
(746,517,o),
(766,517,cs),
(967,517,ls),
(987,517,o),
(999,529,o),
(999,549,cs),
(999,635,ls),
(999,655,o),
(987,667,o),
(967,667,cs),
(504,667,ls),
(487,667,o),
(475,661,o),
(465,647,cs),
(37,39,ls),
(22,18,o),
(32,0,o),
(58,0,cs),
(208,0,ls),
(225,0,o),
(237,6,o),
(246,21,cs),
(608,592,l),
(534,608,l)
);
},
{
closed = 1;
nodes = (
(631,256,l),
(254,256,l),
(205,120,l),
(616,120,l)
);
}
);
width = 1059;
}
);
metricLeft = A;
metricRight = E;
unicode = 198;
},
{
glyphname = B;
kernLeft = B;
lastChange = "2023-08-02 18:07:55 +0000";
layers = (
{
background = {
shapes = (
{
closed = 1;
nodes = (
(326,0,ls),
(476,0,o),
(568,56,o),
(568,189,cs),
(568,322,o),
(457,355,o),
(457,355,cs),
(457,355,o),
(528,391,o),
(528,488,cs),
(528,585,o),
(479,667,o),
(306,667,cs),
(85,667,l),
(85,0,l)
);
},
{
closed = 1;
nodes = (
(157,310,l),
(329,310,ls),
(407,310,o),
(496,300,o),
(496,193,cs),
(496,86,o),
(418,67,o),
(332,67,cs),
(157,67,l)
);
},
{
closed = 1;
nodes = (
(157,598,l),
(313,598,ls),
(402,598,o),
(456,574,o),
(456,483,cs),
(456,389,o),
(387,378,o),
(322,378,cs),
(157,378,l)
);
}
);
};
layerId = UUID0;
shapes = (
{
closed = 1;
nodes = (
(326,0,ls),
(476,0,o),
(568,56,o),
(568,189,cs),
(568,296,o),
(492,344,o),
(440,363,c),
(448,350,l),
(481,382,o),
(528,402,o),
(528,488,cs),
(528,585,o),
(479,667,o),
(306,667,cs),
(101,667,ls),
(91,667,o),
(85,661,o),
(85,651,cs),
(85,16,ls),
(85,6,o),
(91,0,o),
(101,0,cs)
);
},
{
closed = 1;
nodes = (
(157,310,l),
(329,310,ls),
(407,310,o),
(496,300,o),
(496,193,cs),
(496,86,o),
(418,67,o),
(332,67,cs),
(173,67,ls),
(163,67,o),
(157,73,o),
(157,83,cs)
);
},
{
closed = 1;
nodes = (
(157,582,ls),
(157,592,o),
(163,598,o),
(173,598,cs),
(313,598,ls),
(402,598,o),
(456,574,o),
(456,483,cs),
(456,389,o),
(387,378,o),
(322,378,cs),
(157,378,l)
);
}
);
width = 628;
},
{
background = {
shapes = (
{
closed = 1;
nodes = (
(351,0,ls),
(461,0,o),
(628,21,o),
(628,184,cs),
(628,271,o),
(586,321,o),
(505,348,cs),
(502,349,o),
(498,350,o),
(494,351,c),
(526,362,o),
(595,388,o),
(595,480,cs),
(595,648,o),
(434,667,o),
(331,667,cs),
(65,667,l),
(65,0,l)
);
},
{
closed = 1;
nodes = (
(277,285,l),
(372,285,ls),
(407,285,o),
(461,269,o),
(461,214,cs),
(461,161,o),
(418,140,o),
(375,141,cs),
(277,141,l)
);
},
{
closed = 1;
nodes = (
(277,527,l),
(355,527,ls),
(386,527,o),
(428,512,o),
(428,462,cs),
(428,425,o),
(393,406,o),
(365,406,cs),
(277,406,l)
);
}
);
};
layerId = "ECACF70C-BE42-4FA5-B3A0-AFDA71FB1D31";
shapes = (
{
closed = 1;
nodes = (
(404,0,ls),
(534,0,o),
(654,64,o),
(654,207,cs),
(654,307,o),
(577,372,o),
(444,372,c),
(467,327,l),
(529,342,o),
(622,388,o),
(622,480,cs),
(622,628,o),
(507,667,o),
(374,667,cs),
(97,667,ls),
(77,667,o),
(65,655,o),
(65,635,cs),
(65,32,ls),
(65,12,o),
(77,0,o),
(97,0,cs)
);
},
{
closed = 1;
nodes = (
(266,276,l),
(382,276,ls),
(419,276,o),
(447,256,o),
(447,214,cs),
(447,171,o),
(418,149,o),
(385,150,cs),
(298,150,ls),
(278,150,o),
(266,162,o),
(266,182,cs)
);
},
{
closed = 1;
nodes = (
(265,485,ls),
(265,505,o),
(277,517,o),
(297,517,cs),
(370,517,ls),
(393,517,o),
(418,502,o),
(418,463,cs),
(418,437,o),
(399,416,o),
(380,416,cs),
(265,416,l)
);
}
);
width = 689;
}
);
metricLeft = H;
metricRight = O;
unicode = 66;
},
{
glyphname = C;
kernLeft = C;
kernRight = C;
lastChange = "2023-08-02 18:08:21 +0000";
layers = (
{
anchors = (
{
name = bottom;
pos = (314,0);
},
{
name = top;
pos = (346,667);
}
);
layerId = UUID0;
shapes = (
{
closed = 1;
nodes = (
(430,-8,o),
(494,8,o),
(555,34,cs),
(563,38,o),
(567,44,o),
(567,53,cs),
(567,88,ls),
(567,100,o),
(559,105,o),
(548,99,cs),
(492,72,o),
(433,60,o),
(372,60,cs),
(203,60,o),
(130,144,o),
(130,334,cs),
(130,523,o),
(203,608,o),
(372,608,cs),
(433,608,o),
(492,594,o),
(548,568,cs),
(559,562,o),
(567,567,o),
(567,579,cs),
(567,614,ls),
(567,623,o),
(563,629,o),
(555,633,cs),
(495,660,o),
(431,676,o),
(364,676,cs),
(159,676,o),
(55,561,o),
(55,334,cs),
(55,107,o),
(159,-8,o),
(364,-8,cs)
);
}
);
width = 622;
},
{
anchors = (
{
name = bottom;
pos = (317,0);
},
{
name = top;
pos = (355,697);
}
);
layerId = "ECACF70C-BE42-4FA5-B3A0-AFDA71FB1D31";
shapes = (
{
closed = 1;
nodes = (
(430,-15,o),
(509,0,o),
(563,22,cs),
(577,28,o),
(583,40,o),
(583,58,cs),
(583,158,ls),
(583,183,o),
(567,192,o),
(544,179,cs),
(487,148,o),
(439,135,o),
(405,135,cs),
(299,135,o),
(237,178,o),
(237,332,cs),
(237,489,o),
(299,534,o),
(395,534,cs),
(437,534,o),
(487,521,o),
(544,489,cs),
(567,475,o),
(583,484,o),
(583,509,cs),
(583,608,ls),
(583,626,o),
(575,638,o),
(558,645,cs),
(495,669,o),
(430,684,o),
(367,684,cs),
(137,684,o),
(30,564,o),
(30,333,cs),
(30,92,o),
(149,-15,o),
(367,-15,cs)
);
}
);
width = 633;
}
);
metricLeft = o;
unicode = 67;
},
{
glyphname = D;
kernLeft = B;
kernRight = D;
lastChange = "2023-08-05 16:21:38 +0000";
layers = (
{
anchors = (
{
name = bottom;
pos = (333,0);
},
{
name = center;
pos = (129,334);
},
{
name = top;
pos = (273,667);
}
);
layerId = UUID0;
shapes = (
{
closed = 1;
nodes = (
(294,0,ls),
(502,0,o),
(607,112,o),
(607,334,cs),
(607,555,o),
(502,667,o),
(294,667,cs),
(101,667,ls),
(91,667,o),
(85,661,o),
(85,651,cs),
(85,16,ls),
(85,6,o),
(91,0,o),
(101,0,cs)
);
},
{
closed = 1;
nodes = (
(157,584,ls),
(157,594,o),
(163,600,o),
(173,600,cs),
(289,600,ls),
(459,600,o),
(533,518,o),
(533,334,cs),
(533,150,o),
(459,68,o),
(289,68,cs),
(173,68,ls),
(163,68,o),
(157,74,o),
(157,84,cs)
);
}
);
width = 667;
},
{
anchors = (
{
name = bottom;
pos = (370,0);
},
{
name = center;
pos = (167,334);
},
{
name = top;
pos = (330,667);
}
);
layerId = "ECACF70C-BE42-4FA5-B3A0-AFDA71FB1D31";
shapes = (
{
closed = 1;
nodes = (
(358,0,ls),
(593,0,o),
(695,116,o),
(695,333,cs),
(695,552,o),
(593,667,o),
(358,667,cs),
(97,667,ls),
(77,667,o),
(65,655,o),
(65,635,cs),
(65,32,ls),
(65,12,o),
(77,0,o),
(97,0,cs)
);
},
{
closed = 1;
nodes = (
(265,485,ls),
(265,505,o),
(277,517,o),
(297,517,cs),
(333,517,ls),
(431,517,o),
(490,462,o),
(490,333,cs),
(490,205,o),
(431,150,o),
(333,150,cs),
(297,150,ls),
(277,150,o),
(265,162,o),
(265,182,cs)
);
}
);
width = 730;
}
);
metricLeft = H;
metricRight = O;
unicode = 68;
},
{
glyphname = E;
kernLeft = B;
kernRight = E;
lastChange = "2023-08-05 16:24:29 +0000";
layers = (
{
anchors = (
{
name = bottom;
pos = (281,0);
},
{
name = ogonek;
pos = (527,10);
},
{
name = top;
pos = (307,667);
},
{
name = topleft;
pos = (18,667);
}
);
layerId = UUID0;
shapes = (
{
closed = 1;
nodes = (
(490,0,ls),
(500,0,o),
(506,6,o),
(506,16,cs),
(506,52,ls),
(506,62,o),
(500,68,o),
(490,68,cs),
(173,68,ls),
(163,68,o),
(157,74,o),
(157,84,cs),
(157,299,l),
(448,299,ls),
(458,299,o),
(464,305,o),
(464,315,cs),
(464,353,ls),
(464,363,o),
(458,369,o),
(448,369,cs),
(157,369,l),
(157,583,ls),
(157,593,o),
(163,599,o),
(173,599,cs),
(490,599,ls),
(500,599,o),
(506,605,o),
(506,615,cs),
(506,651,ls),
(506,661,o),
(500,667,o),
(490,667,cs),
(101,667,ls),
(91,667,o),
(85,661,o),
(85,651,cs),
(85,16,ls),
(85,6,o),
(91,0,o),
(101,0,cs)
);
}
);
width = 581;
},
{
anchors = (
{
name = bottom;
pos = (302,0);
},
{
name = ogonek;
pos = (539,10);
},
{
name = top;
pos = (302,667);
},
{
name = topleft;
pos = (25,667);
}
);
layerId = "ECACF70C-BE42-4FA5-B3A0-AFDA71FB1D31";
shapes = (
{
closed = 1;
nodes = (
(506,0,ls),
(526,0,o),
(538,12,o),
(538,32,cs),
(538,118,ls),
(538,138,o),
(526,150,o),
(506,150,cs),
(297,150,ls),
(277,150,o),
(265,162,o),
(265,182,cs),
(265,259,l),
(467,259,ls),
(487,259,o),
(499,271,o),
(499,291,cs),
(499,377,ls),
(499,397,o),
(487,409,o),
(467,409,cs),
(266,409,l),
(266,485,ls),
(266,505,o),
(278,517,o),
(298,517,cs),
(506,517,ls),
(526,517,o),
(538,529,o),
(538,549,cs),
(538,635,ls),
(538,655,o),
(526,667,o),
(506,667,cs),
(97,667,ls),
(77,667,o),
(65,655,o),
(65,635,cs),
(65,32,ls),
(65,12,o),
(77,0,o),
(97,0,cs)
);
}
);
width = 598;
}
);
metricLeft = H;
unicode = 69;
},
{
glyphname = Schwa;
lastChange = "2023-08-05 16:29:39 +0000";
layers = (
{
layerId = UUID0;
shapes = (
{
closed = 1;
nodes = (
(249,672,o),
(163,647,o),
(99,614,cs),
(94,611,o),
(91,606,o),
(91,597,cs),
(91,558,ls),
(91,546,o),
(99,541,o),
(110,547,cs),
(163,577,o),
(249,606,o),
(342,606,cs),
(493,606,o),
(584,517,o),
(584,340,cs),
(584,116,o),
(513,55,o),
(358,55,cs),
(208,55,o),
(139,128,o),
(135,284,c),
(107,274,l),
(616,274,l),
(621,340,l),
(76,340,ls),
(66,340,o),
(60,334,o),
(60,324,cs),
(63,131,o),
(148,-11,o),
(358,-11,cs),
(542,-11,o),
(657,99,o),
(657,327,cs),
(657,559,o),
(537,672,o),
(346,672,cs)
);
}
);
width = 717;
},
{
layerId = "ECACF70C-BE42-4FA5-B3A0-AFDA71FB1D31";
shapes = (
{
closed = 1;
nodes = (
(248,685,o),
(172,672,o),
(105,649,cs),
(93,644,o),
(87,633,o),
(87,615,cs),
(87,520,ls),
(87,497,o),
(101,487,o),
(123,494,cs),
(173,510,o),
(242,526,o),
(305,526,cs),
(443,526,o),
(507,458,o),
(507,291,cs),
(507,161,o),
(424,119,o),
(365,119,cs),
(271,119,o),
(228,156,o),
(226,311,c),
(191,249,l),
(608,249,l),
(584,366,l),
(67,366,ls),
(47,366,o),
(35,354,o),
(35,333,cs),
(43,100,o),
(141,-25,o),
(356,-25,cs),
(583,-25,o),
(713,106,o),
(713,316,cs),
(713,543,o),
(567,685,o),
(354,685,cs)
);
}
);
width = 748;
}
);
metricLeft = O;
metricRight = O;
unicode = 399;
},
{
glyphname = F;
kernLeft = B;
lastChange = "2023-08-05 16:30:06 +0000";
layers = (
{
anchors = (
{
name = center;
pos = (124,138);
}
);
layerId = UUID0;
shapes = (
{
closed = 1;
nodes = (
(141,0,ls),
(151,0,o),
(157,6,o),
(157,16,cs),
(157,299,l),
(437,299,ls),
(447,299,o),
(453,305,o),
(453,315,cs),
(453,353,ls),
(453,363,o),
(447,369,o),
(437,369,cs),
(157,369,l),
(157,583,ls),
(157,593,o),
(163,599,o),
(173,599,cs),
(478,599,ls),
(488,599,o),
(494,605,o),
(494,615,cs),
(494,651,ls),
(494,661,o),
(488,667,o),
(478,667,cs),
(101,667,ls),
(91,667,o),
(85,661,o),
(85,651,cs),
(85,16,ls),
(85,6,o),
(91,0,o),
(101,0,cs)
);
}
);
width = 539;
},
{
anchors = (
{
name = center;
pos = (167,131);
}
);
layerId = "ECACF70C-BE42-4FA5-B3A0-AFDA71FB1D31";
shapes = (
{
closed = 1;
nodes = (
(233,0,ls),
(253,0,o),
(265,12,o),
(265,32,cs),
(265,238,l),
(467,238,ls),
(487,238,o),
(499,250,o),
(499,270,cs),
(499,357,ls),
(499,377,o),
(487,389,o),
(467,389,cs),
(265,389,l),
(265,485,ls),
(265,505,o),
(277,517,o),
(297,517,cs),
(506,517,ls),
(526,517,o),
(538,529,o),
(538,549,cs),
(538,635,ls),
(538,655,o),
(526,667,o),
(506,667,cs),
(97,667,ls),
(77,667,o),
(65,655,o),
(65,635,cs),
(65,32,ls),
(65,12,o),
(77,0,o),
(97,0,cs)
);
}
);
width = 583;
}
);
metricLeft = H;
unicode = 70;
},
{
glyphname = G;
kernLeft = C;
kernRight = G;
lastChange = "2023-08-05 16:30:42 +0000";
layers = (
{
anchors = (
{
name = bottom;
pos = (331,0);
},
{
name = top;
pos = (364,667);
}
);
layerId = UUID0;
shapes = (
{
closed = 1;
nodes = (
(447,-10,o),
(521,5,o),
(590,37,cs),
(598,40,o),
(602,46,o),
(602,55,cs),
(602,327,ls),
(602,337,o),
(596,343,o),
(586,343,cs),
(385,343,ls),
(375,343,o),
(369,337,o),
(369,327,cs),
(369,289,ls),
(369,279,o),
(375,273,o),
(385,273,cs),
(514,273,ls),
(524,273,o),
(530,267,o),
(530,257,cs),
(530,97,ls),
(530,88,o),
(526,82,o),
(517,79,cs),
(472,66,o),
(425,59,o),
(377,59,cs),
(208,59,o),
(132,145,o),
(132,334,cs),
(132,522,o),
(208,608,o),
(377,608,cs),
(441,608,o),
(503,588,o),
(560,564,cs),
(572,559,o),
(579,564,o),
(579,576,cs),
(579,618,ls),
(579,627,o),
(575,633,o),
(567,636,cs),
(504,664,o),
(438,676,o),
(369,676,cs),
(164,676,o),
(60,561,o),
(60,334,cs),
(60,107,o),
(164,-10,o),
(369,-10,cs)
);
}
);
width = 687;
},
{
anchors = (
{
name = bottom;
pos = (322,0);
},
{
name = top;
pos = (374,687);
}
);
layerId = "ECACF70C-BE42-4FA5-B3A0-AFDA71FB1D31";
shapes = (
{
closed = 1;
nodes = (
(457,-15,o),
(545,9,o),
(626,52,cs),
(642,61,o),
(649,73,o),
(649,90,cs),
(649,352,ls),
(649,372,o),
(637,384,o),
(617,384,cs),
(392,384,ls),
(372,384,o),
(360,372,o),
(360,352,cs),
(360,266,ls),
(360,246,o),
(372,234,o),
(392,234,cs),
(417,234,ls),
(437,234,o),
(449,222,o),
(449,202,cs),
(449,173,ls),
(449,155,o),
(442,141,o),
(425,138,cs),
(412,135,o),
(398,134,o),
(382,134,cs),
(307,134,o),
(240,178,o),
(240,334,cs),
(240,493,o),
(301,533,o),
(393,533,cs),
(456,533,o),
(511,512,o),
(579,477,cs),
(602,465,o),
(618,474,o),
(618,499,cs),
(618,607,ls),
(618,625,o),
(610,637,o),
(593,644,cs),
(522,669,o),
(446,684,o),
(367,684,cs),
(174,684,o),
(35,583,o),
(35,333,cs),
(35,76,o),
(174,-15,o),
(368,-15,cs)
);
}
);
width = 714;
}
);
metricLeft = O;
metricRight = H;
unicode = 71;
},
{
glyphname = H;
kernLeft = B;
kernRight = H;
lastChange = "2023-08-05 16:31:53 +0000";
layers = (
{
anchors = (
{
name = bottom;
pos = (335,0);
},
{
name = center;
pos = (335,525);
},
{
name = top;
pos = (335,667);
},
{
name = topleft;
pos = (18,667);
}
);
layerId = UUID0;
shapes = (
{
closed = 1;
nodes = (
(141,0,ls),
(151,0,o),
(157,6,o),
(157,16,cs),
(157,299,l),
(512,299,l),
(512,16,ls),
(512,6,o),
(518,0,o),
(528,0,cs),
(568,0,ls),
(578,0,o),
(584,6,o),
(584,16,cs),
(584,651,ls),
(584,661,o),
(578,667,o),
(568,667,cs),
(528,667,ls),
(518,667,o),
(512,661,o),
(512,651,cs),
(512,367,l),
(157,367,l),
(157,651,ls),
(157,661,o),
(151,667,o),
(141,667,cs),
(101,667,ls),
(91,667,o),
(85,661,o),
(85,651,cs),
(85,16,ls),
(85,6,o),
(91,0,o),
(101,0,cs)
);
}
);
width = 669;
},
{
anchors = (
{
name = bottom;
pos = (364,0);
},
{
name = center;
pos = (364,535);
},
{
name = top;
pos = (364,667);
},
{
name = topleft;
pos = (25,667);
}
);
layerId = "ECACF70C-BE42-4FA5-B3A0-AFDA71FB1D31";
shapes = (
{
closed = 1;
nodes = (
(233,0,ls),
(253,0,o),
(265,12,o),
(265,32,cs),
(265,250,l),
(463,250,l),
(463,32,ls),
(463,12,o),
(475,0,o),
(495,0,cs),
(631,0,ls),
(651,0,o),
(663,12,o),
(663,32,cs),
(663,635,ls),
(663,655,o),
(651,667,o),
(631,667,cs),
(495,667,ls),
(475,667,o),
(463,655,o),
(463,635,cs),
(463,410,l),
(265,410,l),
(265,635,ls),
(265,655,o),
(253,667,o),
(233,667,cs),
(97,667,ls),
(77,667,o),
(65,655,o),
(65,635,cs),
(65,32,ls),
(65,12,o),
(77,0,o),
(97,0,cs)
);
}
);
width = 728;
}
);
unicode = 72;
},
{
glyphname = Hbar;
lastChange = "2023-08-05 16:32:09 +0000";
layers = (
{
anchors = (
{
name = _center;
pos = (335,505);
}
);
layerId = UUID0;
shapes = (
{
closed = 1;
nodes = (
(618,478,ls),
(628,478,o),
(634,484,o),
(634,494,cs),
(634,515,ls),
(634,525,o),
(628,531,o),
(618,531,cs),
(51,531,ls),
(41,531,o),
(35,525,o),
(35,515,cs),
(35,494,ls),
(35,484,o),
(41,478,o),
(51,478,cs)
);
},
{
ref = H;
}
);
width = 669;
},
{
anchors = (
{
name = _center;
pos = (364,535);
}
);
layerId = "ECACF70C-BE42-4FA5-B3A0-AFDA71FB1D31";
shapes = (
{
closed = 1;
nodes = (
(671,491,ls),
(691,491,o),
(703,503,o),
(703,523,cs),
(703,547,ls),
(703,567,o),
(691,579,o),
(671,579,cs),
(57,579,ls),
(37,579,o),
(25,567,o),
(25,547,cs),
(25,523,ls),
(25,503,o),
(37,491,o),
(57,491,cs)
);
},
{
ref = H;
}
);
width = 728;
}
);
unicode = 294;
},
{
glyphname = I;
kernLeft = B;
kernRight = H;
lastChange = "2023-08-05 16:32:32 +0000";
layers = (
{
anchors = (
{
name = bottom;
pos = (121,0);
},
{
name = ogonek;
pos = (179,10);
},
{
name = top;
pos = (121,667);
},
{
name = topleft;
pos = (18,667);
}
);
layerId = UUID0;
shapes = (
{
closed = 1;
nodes = (
(141,0,ls),
(151,0,o),
(157,6,o),
(157,16,cs),
(157,651,ls),
(157,661,o),
(151,667,o),
(141,667,cs),
(101,667,ls),
(91,667,o),
(85,661,o),
(85,651,cs),
(85,16,ls),
(85,6,o),
(91,0,o),
(101,0,cs)
);
}
);
width = 242;
},
{
anchors = (
{
name = bottom;
pos = (156,0);
},
{
name = ogonek;
pos = (277,10);
},
{
name = top;
pos = (173,667);
},
{
name = topleft;
pos = (25,667);
}
);
layerId = "ECACF70C-BE42-4FA5-B3A0-AFDA71FB1D31";
shapes = (
{
closed = 1;
nodes = (
(234,0,ls),
(254,0,o),
(266,12,o),
(266,32,cs),
(266,635,ls),
(266,655,o),
(254,667,o),
(234,667,cs),
(97,667,ls),
(77,667,o),
(65,655,o),
(65,635,cs),
(65,32,ls),
(65,12,o),
(77,0,o),
(97,0,cs)
);
}
);
width = 331;
}
);
metricLeft = H;
metricRight = H;
unicode = 73;
},
{
glyphname = Iogonek;
kernLeft = B;
kernRight = H;
lastChange = "2023-08-05 16:35:19 +0000";
layers = (
{
anchors = (
{
name = _ogonek;
pos = (179,10);
}
);
layerId = UUID0;
shapes = (
{
closed = 1;
nodes = (
(132,-159,o),
(149,-153,o),
(163,-146,cs),
(169,-143,o),
(172,-136,o),
(172,-128,cs),
(172,-102,ls),
(172,-89,o),
(165,-86,o),
(154,-93,cs),
(144,-99,o),
(131,-105,o),
(117,-105,cs),
(95,-105,o),
(83,-95,o),
(83,-71,cs),
(83,-48,o),
(109,-23,o),
(146,-1,cs),
(160,7,o),
(159,17,o),
(144,19,cs),
(119,23,ls),
(112,24,o),
(105,24,o),
(98,20,cs),
(55,-2,o),
(24,-45,o),
(24,-76,cs),
(24,-129,o),
(58,-159,o),
(112,-159,cs)
);
},
{
ref = I;
}
);
width = 242;
},
{
anchors = (
{
name = _ogonek;
pos = (277,10);
}
);
layerId = "ECACF70C-BE42-4FA5-B3A0-AFDA71FB1D31";
shapes = (
{
closed = 1;
nodes = (
(244,-172,o),
(271,-162,o),
(291,-152,cs),
(299,-148,o),
(302,-138,o),
(302,-120,cs),
(302,-96,ls),
(302,-71,o),
(289,-65,o),
(266,-78,cs),
(255,-84,o),
(244,-88,o),
(232,-88,cs),
(212,-88,o),
(197,-82,o),
(197,-52,cs),
(197,-34,o),
(216,-17,o),
(244,-1,cs),
(270,13,o),
(270,30,o),
(243,38,cs),
(213,47,ls),
(198,52,o),
(186,51,o),
(171,45,cs),
(101,15,o),
(54,-19,o),
(54,-71,cs),
(54,-139,o),
(97,-172,o),
(197,-172,cs)
);
},
{
ref = I;
}
);
width = 331;
}
);
unicode = 302;
},
{
glyphname = J;
kernLeft = J;
kernRight = J;
lastChange = "2023-08-05 16:32:54 +0000";
layers = (
{
anchors = (
{
name = bottom;
pos = (227,0);
},
{
name = top;
pos = (337,667);
}
);
layerId = UUID0;
shapes = (
{
closed = 1;
nodes = (
(264,-8,o),
(368,28,o),
(368,199,cs),
(368,651,ls),
(368,661,o),
(362,667,o),
(352,667,cs),
(312,667,ls),
(302,667,o),
(296,661,o),
(296,651,cs),
(296,205,ls),
(296,103,o),
(259,62,o),
(168,62,cs),
(127,62,o),
(93,73,o),
(64,90,cs),
(53,96,o),
(45,91,o),
(45,79,cs),
(45,40,ls),
(45,32,o),
(48,25,o),
(56,21,cs),
(90,3,o),
(130,-8,o),
(177,-8,cs)
);
}
);
width = 453;
},
{
anchors = (
{
name = bottom;
pos = (245,0);
},
{
name = top;
pos = (325,667);
}
);
layerId = "ECACF70C-BE42-4FA5-B3A0-AFDA71FB1D31";
shapes = (
{
closed = 1;
nodes = (
(310,-15,o),
(424,39,o),
(424,204,cs),
(424,635,ls),
(424,655,o),
(412,667,o),
(392,667,cs),
(255,667,ls),
(235,667,o),
(223,655,o),
(223,635,cs),
(223,212,ls),
(223,161,o),
(189,140,o),
(146,140,cs),
(123,140,o),
(99,154,o),
(69,174,cs),
(47,189,o),
(30,180,o),
(30,154,cs),
(30,50,ls),
(30,32,o),
(38,20,o),
(55,13,cs),
(98,-3,o),
(146,-15,o),
(198,-15,cs)
);
}
);
width = 489;
}
);
metricRight = H;
unicode = 74;
},
{
glyphname = K;
kernLeft = B;
kernRight = K;
lastChange = "2023-08-05 16:35:57 +0000";
layers = (
{
anchors = (
{
name = bottom;
pos = (317,0);
},
{
name = top;
pos = (317,667);
}
);
layerId = UUID0;
shapes = (
{
closed = 1;
nodes = (
(547,647,ls),
(556,657,o),
(552,667,o),
(538,667,cs),
(485,667,ls),
(477,667,o),
(470,664,o),
(465,658,cs),
(149,307,l),
(149,213,l)
);
},
{
closed = 1;
nodes = (
(141,0,ls),
(151,0,o),
(157,6,o),
(157,16,cs),
(157,651,ls),
(157,661,o),
(151,667,o),
(141,667,cs),
(101,667,ls),
(91,667,o),
(85,661,o),
(85,651,cs),
(85,16,ls),
(85,6,o),
(91,0,o),
(101,0,cs)
);
},
{
closed = 1;
nodes = (
(207,327,l),
(480,9,ls),
(485,3,o),
(492,0,o),
(500,0,cs),
(562,0,ls),
(576,0,o),
(580,9,o),
(571,20,cs),
(261,376,l)
);
}
);
width = 613;
},
{
anchors = (
{
name = bottom;
pos = (344,0);
},
{
name = top;
pos = (364,667);
}
);
layerId = "ECACF70C-BE42-4FA5-B3A0-AFDA71FB1D31";
shapes = (
{
closed = 1;
nodes = (
(639,628,ls),
(657,649,o),
(649,667,o),
(622,667,cs),
(447,667,ls),
(430,667,o),
(417,660,o),
(408,646,cs),
(181,302,l),
(259,195,l)
);
},
{
closed = 1;
nodes = (
(234,0,ls),
(254,0,o),
(266,12,o),
(266,32,cs),
(266,635,ls),
(266,655,o),
(254,667,o),
(234,667,cs),
(97,667,ls),
(77,667,o),
(65,655,o),
(65,635,cs),
(65,32,ls),
(65,12,o),
(77,0,o),
(97,0,cs)
);
},
{
closed = 1;
nodes = (
(262,302,l),
(433,22,ls),
(442,7,o),
(454,0,o),
(471,0,cs),
(647,0,ls),
(673,0,o),
(682,17,o),
(668,39,cs),
(418,429,l)
);
}
);
width = 708;
}
);
metricLeft = H;
unicode = 75;
},
{
glyphname = L;
kernLeft = B;
kernRight = L;
lastChange = "2023-08-05 16:36:24 +0000";
layers = (
{
anchors = (
{
name = bottom;
pos = (269,0);
},
{
name = center;
pos = (321,334);
},
{
name = top;
pos = (125,667);
},
{
name = topright;
pos = (518,667);
}
);
layerId = UUID0;
shapes = (
{
closed = 1;
nodes = (
(482,0,ls),
(492,0,o),
(498,6,o),
(498,16,cs),
(498,54,ls),
(498,64,o),
(492,70,o),
(482,70,cs),
(173,70,ls),
(163,70,o),
(157,76,o),
(157,86,cs),
(157,651,ls),
(157,661,o),
(151,667,o),
(141,667,cs),
(101,667,ls),
(91,667,o),
(85,661,o),
(85,651,cs),
(85,16,ls),
(85,6,o),
(91,0,o),
(101,0,cs)
);
}
);
width = 523;
},
{
anchors = (
{
name = bottom;
pos = (284,0);
},
{
name = center;
pos = (444,334);
},
{
name = top;
pos = (174,667);
},
{
name = topright;
pos = (548,667);
}
);
background = {
shapes = (
{
closed = 1;
nodes = (
(266,0,l),
(266,667,l),
(65,667,l),
(65,0,l)
);
}
);
};
layerId = "ECACF70C-BE42-4FA5-B3A0-AFDA71FB1D31";
shapes = (
{
closed = 1;
nodes = (
(501,0,ls),
(521,0,o),
(533,12,o),
(533,32,cs),
(533,119,ls),
(533,139,o),
(521,151,o),
(501,151,cs),
(298,151,ls),
(278,151,o),
(266,163,o),
(266,183,cs),
(266,635,ls),
(266,655,o),
(254,667,o),
(234,667,cs),
(97,667,ls),
(77,667,o),
(65,655,o),
(65,635,cs),
(65,32,ls),
(65,12,o),
(77,0,o),
(97,0,cs)
);
}
);
width = 568;
}
);
metricLeft = H;
unicode = 76;
},
{
glyphname = Lslash;
lastChange = "2023-08-05 16:37:43 +0000";
layers = (
{
layerId = UUID0;
shapes = (
{
closed = 1;
nodes = (
(283,433,ls),
(290,438,o),
(293,444,o),
(293,452,cs),
(293,481,ls),
(293,494,o),
(285,499,o),
(274,491,cs),
(23,322,ls),
(16,317,o),
(13,311,o),
(13,303,cs),
(13,274,ls),
(13,261,o),
(21,256,o),
(32,264,cs)
);
},
{
ref = L;
}
);
width = 521;
},
{
layerId = "ECACF70C-BE42-4FA5-B3A0-AFDA71FB1D31";
shapes = (
{
closed = 1;
nodes = (
(26,296,ls),
(11,288,o),
(4,275,o),
(4,258,cs),
(4,206,ls),
(4,181,o),
(20,171,o),
(42,183,cs),
(383,370,ls),
(398,378,o),
(405,391,o),
(405,408,cs),
(405,460,ls),
(405,485,o),
(389,495,o),
(367,483,cs)
);
},
{
ref = L;
}
);
width = 576;
}
);
unicode = 321;
},
{
glyphname = M;
lastChange = "2023-08-05 16:38:18 +0000";
layers = (
{
anchors = (
{
name = bottom;
pos = (393,0);
},
{
name = top;
pos = (393,667);
}
);
layerId = UUID0;
shapes = (
{
closed = 1;
nodes = (
(141,0,ls),
(151,0,o),
(157,6,o),
(157,16,cs),
(157,624,l),
(131,587,l),
(374,225,ls),
(380,215,o),
(389,216,o),
(396,225,cs),
(660,595,l),
(628,595,l),
(628,16,ls),
(628,6,o),
(634,0,o),
(644,0,cs),
(684,0,ls),
(694,0,o),
(700,6,o),
(700,16,cs),
(700,651,ls),
(700,661,o),
(694,667,o),
(684,667,cs),
(634,667,ls),
(626,667,o),
(620,665,o),
(615,657,cs),
(361,277,l),
(410,288,l),
(170,657,ls),
(165,665,o),
(159,667,o),
(151,667,cs),
(101,667,ls),
(91,667,o),
(85,661,o),
(85,651,cs),
(85,16,ls),
(85,6,o),
(91,0,o),
(101,0,cs)
);
}
);
width = 785;
},
{
anchors = (
{
name = bottom;
pos = (436,0);
},
{
name = top;
pos = (436,667);
}
);
layerId = "ECACF70C-BE42-4FA5-B3A0-AFDA71FB1D31";
shapes = (
{
closed = 1;
nodes = (
(223,0,ls),
(243,0,o),
(255,12,o),
(255,32,cs),
(255,479,l),
(217,460,l),
(408,211,ls),
(422,193,o),
(440,193,o),
(454,211,cs),
(638,450,l),
(607,523,l),
(607,32,ls),
(607,12,o),
(619,0,o),
(639,0,cs),
(775,0,ls),
(795,0,o),
(807,12,o),
(807,32,cs),
(807,635,ls),
(807,655,o),
(795,667,o),
(775,667,cs),
(635,667,ls),
(618,667,o),
(606,661,o),
(596,648,cs),
(384,374,l),
(488,374,l),
(282,648,ls),
(272,662,o),
(260,667,o),
(243,667,cs),
(97,667,ls),
(77,667,o),
(65,655,o),
(65,635,cs),
(65,32,ls),
(65,12,o),
(77,0,o),
(97,0,cs)
);
}
);
width = 872;
}
);
metricLeft = H;
metricRight = H;
unicode = 77;
},
{
glyphname = N;
kernLeft = B;
kernRight = H;
lastChange = "2023-08-05 16:39:05 +0000";
layers = (
{
anchors = (
{
name = bottom;
pos = (362,0);
},
{
name = top;
pos = (362,667);
}
);
layerId = UUID0;
shapes = (
{
closed = 1;
nodes = (
(141,0,ls),
(151,0,o),
(157,6,o),
(157,16,cs),
(157,640,l),
(124,609,l),
(549,10,ls),
(554,3,o),
(560,0,o),
(568,0,cs),
(621,0,ls),
(631,0,o),
(637,6,o),
(637,16,cs),
(637,651,ls),
(637,661,o),
(631,667,o),
(621,667,cs),
(581,667,ls),
(571,667,o),
(565,661,o),
(565,651,cs),
(565,52,l),
(583,80,l),
(174,657,ls),
(169,664,o),
(163,667,o),
(155,667,cs),
(101,667,ls),
(91,667,o),
(85,661,o),
(85,651,cs),
(85,16,ls),
(85,6,o),
(91,0,o),
(101,0,cs)
);
}
);
width = 722;
},
{
anchors = (
{
name = bottom;
pos = (363,0);
},
{
name = top;
pos = (363,667);
}
);
layerId = "ECACF70C-BE42-4FA5-B3A0-AFDA71FB1D31";
shapes = (
{
closed = 1;
nodes = (
(215,0,ls),
(235,0,o),
(247,12,o),
(247,32,cs),
(247,482,l),
(207,391,l),
(505,19,ls),
(515,6,o),
(527,0,o),
(544,0,cs),
(628,0,ls),
(648,0,o),
(660,12,o),
(660,32,cs),
(660,635,ls),
(660,655,o),
(648,667,o),
(628,667,cs),
(510,667,ls),
(490,667,o),
(478,655,o),
(478,635,cs),
(478,127,l),
(539,259,l),
(242,648,ls),
(232,662,o),
(220,667,o),
(203,667,cs),
(97,667,ls),
(77,667,o),
(65,655,o),
(65,635,cs),
(65,32,ls),
(65,12,o),
(77,0,o),
(97,0,cs)
);
}
);
width = 725;
}
);
metricLeft = H;
metricRight = H;
unicode = 78;
},
{
glyphname = Nhookleft;
lastChange = "2023-08-05 16:39:44 +0000";
layers = (
{
anchors = (
{
name = bottom;
pos = (389,0);
},
{
name = top;
pos = (389,667);
}
);
layerId = UUID0;
shapes = (
{
closed = 1;
nodes = (
(184,640,l),
(151,609,l),
(576,10,ls),
(581,3,o),
(587,0,o),
(595,0,cs),
(648,0,ls),
(658,0,o),
(664,6,o),
(664,16,cs),
(664,651,ls),
(664,661,o),
(658,667,o),
(648,667,cs),
(608,667,ls),
(598,667,o),
(592,661,o),
(592,651,cs),
(592,52,l),
(610,80,l),
(201,657,ls),
(196,664,o),
(190,667,o),
(182,667,cs),
(128,667,ls),
(118,667,o),
(112,661,o),
(112,651,cs),
(112,-25,ls),
(112,-86,o),
(99,-119,o),
(26,-125,cs),
(16,-126,o),
(10,-132,o),
(10,-142,cs),
(10,-177,ls),
(10,-187,o),
(16,-193,o),
(26,-193,cs),
(132,-188,o),
(184,-134,o),
(184,-29,cs)
);
}
);
width = 749;
},
{
anchors = (
{
name = bottom;
pos = (373,0);
},
{
name = top;
pos = (373,667);
}
);
layerId = "ECACF70C-BE42-4FA5-B3A0-AFDA71FB1D31";
shapes = (
{
closed = 1;
nodes = (
(257,482,l),
(217,391,l),
(515,19,ls),
(525,6,o),
(537,0,o),
(554,0,cs),
(638,0,ls),
(658,0,o),
(670,12,o),
(670,32,cs),
(670,635,ls),
(670,655,o),
(658,667,o),
(638,667,cs),
(520,667,ls),
(500,667,o),
(488,655,o),
(488,635,cs),
(488,127,l),
(549,259,l),
(252,648,ls),
(242,662,o),
(230,667,o),
(213,667,cs),
(107,667,ls),
(87,667,o),
(75,655,o),
(75,635,cs),
(75,5,ls),
(75,-26,o),
(60,-45,o),
(36,-50,cs),
(16,-54,o),
(5,-60,o),
(5,-80,cs),
(5,-161,ls),
(5,-182,o),
(17,-193,o),
(38,-192,cs),
(161,-186,o),
(257,-140,o),
(257,7,cs)
);
}
);
width = 735;
}
);
metricLeft = j;
metricRight = N;
unicode = 413;
},
{
glyphname = Eng;
kernLeft = B;
kernRight = H;
lastChange = "2023-08-05 16:40:23 +0000";
layers = (
{
layerId = UUID0;
shapes = (
{
closed = 1;
nodes = (
(586,-167,o),
(638,-114,o),
(638,-9,cs),
(638,651,ls),
(638,661,o),
(632,667,o),
(622,667,cs),
(582,667,ls),
(572,667,o),
(566,661,o),
(566,651,cs),
(566,105,l),
(176,657,ls),
(171,664,o),
(165,667,o),
(157,667,cs),
(103,667,ls),
(93,667,o),
(87,661,o),
(87,651,cs),
(87,16,ls),
(87,6,o),
(93,0,o),
(103,0,cs),
(143,0,ls),
(153,0,o),
(159,6,o),
(159,16,cs),
(159,528,ls),
(159,543,o),
(170,547,o),
(179,535,cs),
(585,-35,l),
(566,29,l),
(566,-12,ls),
(565,-68,o),
(550,-100,o),
(480,-104,cs),
(470,-105,o),
(464,-111,o),
(464,-121,cs),
(464,-156,ls),
(464,-166,o),
(470,-172,o),
(480,-172,cs)
);
}
);
width = 728;
},
{
layerId = "ECACF70C-BE42-4FA5-B3A0-AFDA71FB1D31";
shapes = (
{
closed = 1;
nodes = (
(602,-186,o),
(698,-142,o),
(702,0,c),
(702,635,ls),
(702,655,o),
(690,667,o),
(670,667,cs),
(562,667,ls),
(542,667,o),
(530,655,o),
(530,635,cs),
(530,267,l),
(273,647,ls),
(264,661,o),
(251,667,o),
(234,667,cs),
(119,667,ls),
(99,667,o),
(87,655,o),
(87,635,cs),
(87,32,ls),
(87,12,o),
(99,0,o),
(119,0,cs),
(227,0,ls),
(247,0,o),
(259,12,o),
(259,32,cs),
(259,328,ls),
(259,359,o),
(281,365,o),
(298,340,cs),
(552,-29,l),
(530,30,l),
(530,-8,ls),
(530,-47,o),
(506,-61,o),
(479,-67,cs),
(459,-70,o),
(448,-80,o),
(448,-100,cs),
(448,-161,ls),
(448,-182,o),
(460,-193,o),
(481,-192,cs)
);
}
);
width = 791;
}
);
unicode = 330;
},
{
glyphname = O;
kernLeft = O;
kernRight = O;
lastChange = "2016-09-07 23:16:03 +0000";
layers = (
{
anchors = (
{
name = bottom;
pos = (367,0);
},
{
name = center;
pos = (367,334);
},
{
name = ogonek;
pos = (665,10);
},
{
name = top;
pos = (367,667);
},
{
name = topleft;
pos = (13,667);
},
{
name = topright;
pos = (439,667);
}
);
layerId = UUID0;
shapes = (
{
closed = 1;
nodes = (
(558,-10,o),
(659,106,o),
(659,333,c),
(659,560,o),
(558,676,o),
(359,676,c),
(161,676,o),
(60,560,o),
(60,333,c),
(60,106,o),
(161,-10,o),
(359,-10,c)
);
},
{
closed = 1;
nodes = (
(202,58,o),
(134,143,o),
(134,333,c),
(134,522,o),
(202,608,o),
(359,608,c),
(517,608,o),
(585,522,o),
(585,333,c),
(585,143,o),
(517,58,o),
(359,58,c)
);
}
);
width = 719;
},
{
anchors = (
{
name = bottom;
pos = (372,0);
},
{
name = center;
pos = (372,334);
},
{
name = ogonek;
pos = (546,10);
},
{
name = top;
pos = (372,697);
},
{
name = topleft;
pos = (20,667);
},
{
name = topright;
pos = (418,650);
}
);
layerId = "ECACF70C-BE42-4FA5-B3A0-AFDA71FB1D31";
shapes = (
{
closed = 1;
nodes = (
(582,-15,o),
(709,105,o),
(709,334,c),
(709,575,o),
(570,682,o),
(372,682,c),
(162,682,o),
(35,562,o),
(35,333,c),
(35,92,o),
(174,-15,o),
(372,-15,c)
);
},
{
closed = 1;
nodes = (
(294,145,o),
(242,188,o),
(242,332,c),
(242,477,o),
(294,522,o),
(372,522,c),
(450,522,o),
(502,479,o),
(502,335,c),
(502,190,o),
(450,145,o),
(372,145,c)
);
}
);
width = 744;
}
);
unicode = 79;
},
{
glyphname = Oslash;
kernLeft = Oslash;
lastChange = "2023-08-05 16:45:57 +0000";
layers = (
{
anchors = (
{
name = bottom;
pos = (360,0);
},
{
name = top;
pos = (360,667);
}
);
background = {
shapes = (
{
closed = 1;
nodes = (
(576,-9,o),
(680,107,o),
(680,334,cs),
(680,438,o),
(657,519,o),
(613,575,c),
(691,667,l),
(613,667,l),
(571,618,l),
(521,656,o),
(454,676,o),
(370,676,cs),
(165,676,o),
(61,560,o),
(61,334,cs),
(61,229,o),
(83,148,o),
(127,92,c),
(50,0,l),
(128,0,l),
(170,49,l),
(220,11,o),
(287,-9,o),
(370,-9,cs)
);
},
{
closed = 1;
nodes = (
(304,59,o),
(253,73,o),
(215,102,c),
(567,520,l),
(594,476,o),
(608,414,o),
(608,334,cs),
(608,144,o),
(535,59,o),
(370,59,cs)
);
},
{
closed = 1;
nodes = (
(146,191,o),
(133,253,o),
(133,334,cs),
(133,523,o),
(206,608,o),
(370,608,cs),
(437,608,o),
(488,594,o),
(526,565,c),
(174,147,l)
);
}
);
};
layerId = UUID0;
shapes = (
{
closed = 1;
nodes = (
(110,0,ls),
(118,0,o),
(125,3,o),
(130,9,cs),
(668,647,ls),
(677,657,o),
(672,667,o),
(659,667,cs),
(631,667,ls),
(623,667,o),
(616,664,o),
(611,658,cs),
(74,20,ls),
(65,10,o),
(70,0,o),
(83,0,cs)
);
},
{
ref = O;
}
);
width = 719;
},
{
anchors = (
{
name = bottom;
pos = (372,0);
},
{
name = top;
pos = (372,667);
}
);
background = {
shapes = (
{
closed = 1;
nodes = (
(517,-7,o),
(687,52,o),
(687,333,cs),
(687,427,o),
(668,496,o),
(637,547,c),
(740,667,l),
(580,667,l),
(550,632,l),
(496,663,o),
(432,673,o),
(374,673,cs),
(231,673,o),
(61,614,o),
(61,333,cs),
(61,239,o),
(80,170,o),
(110,120,c),
(7,0,l),
(167,0,l),
(197,35,l),
(251,3,o),
(315,-7,o),
(374,-7,cs)
);
},
{
closed = 1;
nodes = (
(348,140,o),
(323,144,o),
(302,156,c),
(510,399,l),
(513,380,o),
(515,358,o),
(515,333,cs),
(515,174,o),
(447,140,o),
(374,140,cs)
);
},
{
closed = 1;
nodes = (
(234,287,o),
(233,309,o),
(233,333,cs),
(233,492,o),
(301,526,o),
(374,526,cs),
(399,526,o),
(424,522,o),
(445,510,c),
(237,268,l)
);
}
);
};
layerId = "ECACF70C-BE42-4FA5-B3A0-AFDA71FB1D31";
shapes = (
{
closed = 1;
nodes = (
(110,0,ls),
(126,0,o),
(139,5,o),
(150,18,cs),
(695,627,ls),
(713,648,o),
(705,666,o),
(677,666,cs),
(629,666,ls),
(613,666,o),
(600,661,o),
(589,648,cs),
(45,39,ls),
(27,18,o),
(35,0,o),
(63,0,cs)
);
},
{
ref = O;
}
);
width = 744;
}
);
unicode = 216;
},
{
glyphname = P;
kernLeft = B;
lastChange = "2023-08-05 16:46:57 +0000";
layers = (
{
layerId = UUID0;
shapes = (
{
closed = 1;
nodes = (
(322,255,ls),
(471,255,o),
(553,328,o),
(553,461,cs),
(553,594,o),
(471,667,o),
(322,667,cs),
(101,667,ls),
(91,667,o),
(85,661,o),
(85,651,cs),
(85,16,ls),
(85,6,o),
(91,0,o),
(101,0,cs),
(141,0,ls),
(151,0,o),
(157,6,o),
(157,16,cs),
(157,255,l)
);
},
{
closed = 1;
nodes = (
(157,582,ls),
(157,592,o),
(163,598,o),
(173,598,cs),
(313,598,ls),
(462,598,o),
(481,525,o),
(481,461,cs),
(481,397,o),
(462,324,o),
(313,324,cs),
(157,324,l)
);
}
);
width = 613;
},
{
layerId = "ECACF70C-BE42-4FA5-B3A0-AFDA71FB1D31";
shapes = (
{
closed = 1;
nodes = (
(392,203,ls),
(551,203,o),
(651,290,o),
(651,445,cs),
(651,599,o),
(551,667,o),
(392,667,cs),
(97,667,ls),
(77,667,o),
(65,655,o),
(65,635,cs),
(65,32,ls),
(65,12,o),
(77,0,o),
(97,0,cs),
(233,0,ls),
(253,0,o),
(265,12,o),
(265,32,cs),
(265,203,l)
);
},
{
closed = 1;
nodes = (
(265,485,ls),
(265,505,o),
(277,517,o),
(297,517,cs),
(367,517,ls),
(402,517,o),
(433,490,o),
(433,430,cs),
(433,378,o),
(402,353,o),
(367,353,cs),
(265,353,l)
);
}
);
width = 686;
}
);
metricLeft = H;
metricRight = O;
unicode = 80;
},
{
glyphname = Thorn;
kernLeft = B;
lastChange = "2023-08-05 16:47:19 +0000";
layers = (
{
layerId = UUID0;
shapes = (
{
closed = 1;
nodes = (
(142,0,ls),
(152,0,o),
(158,6,o),
(158,16,cs),
(158,153,l),
(288,153,ls),
(436,153,o),
(518,226,o),
(518,359,cs),
(518,492,o),
(436,566,o),
(288,566,cs),
(158,566,l),
(158,651,ls),
(158,661,o),
(152,667,o),
(142,667,cs),
(102,667,ls),
(92,667,o),
(86,661,o),
(86,651,cs),
(86,16,ls),
(86,6,o),
(92,0,o),
(102,0,cs)
);
},
{
closed = 1;
nodes = (
(158,496,l),
(278,496,ls),
(427,496,o),
(446,423,o),
(446,359,cs),
(446,295,o),
(427,222,o),
(278,222,cs),
(158,222,l)
);
}
);
width = 570;
},
{
layerId = "ECACF70C-BE42-4FA5-B3A0-AFDA71FB1D31";
shapes = (
{
closed = 1;
nodes = (
(226,0,ls),
(246,0,o),
(258,12,o),
(258,32,cs),
(258,99,l),
(344,99,ls),
(506,99,o),
(599,185,o),
(599,334,cs),
(599,482,o),
(506,568,o),
(344,568,cs),
(258,568,l),
(258,635,ls),
(258,655,o),
(246,667,o),
(226,667,cs),
(118,667,ls),
(98,667,o),
(86,655,o),
(86,635,cs),
(86,32,ls),
(86,12,o),
(98,0,o),
(118,0,cs)
);
},
{
closed = 1;
nodes = (
(258,428,l),
(328,428,ls),
(404,428,o),
(428,376,o),
(428,334,cs),
(428,290,o),
(404,241,o),
(328,241,cs),
(258,241,l)
);
}
);
width = 653;
}
);
unicode = 222;
},
{
glyphname = Q;
kernLeft = C;
kernRight = O;
lastChange = "2023-08-05 16:48:18 +0000";
layers = (
{
layerId = UUID0;
shapes = (
{
closed = 1;
nodes = (
(558,-10,o),
(659,106,o),
(659,333,cs),
(659,560,o),
(558,676,o),
(359,676,cs),
(161,676,o),
(60,560,o),
(60,333,cs),
(60,106,o),
(161,-10,o),
(359,-10,cs)
);
},
{
closed = 1;
nodes = (
(202,58,o),
(134,143,o),
(134,333,cs),
(134,522,o),
(202,608,o),
(359,608,cs),
(517,608,o),
(585,522,o),
(585,333,cs),
(585,143,o),
(519,64,o),
(359,58,cs)
);
},
{
closed = 1;
nodes = (
(570,-28,o),
(545,-7,o),
(514,52,cs),
(478,121,o),
(421,199,o),
(328,199,cs),
(276,199,o),
(240,177,o),
(218,160,cs),
(211,155,o),
(208,149,o),
(208,141,cs),
(208,108,ls),
(208,94,o),
(217,91,o),
(227,100,cs),
(251,122,o),
(280,138,o),
(320,138,cs),
(393,138,o),
(421,76,o),
(451,16,cs),
(483,-47,o),
(530,-90,o),
(591,-90,cs),
(601,-90,o),
(621,-89,o),
(646,-78,cs),
(654,-74,o),
(658,-68,o),
(658,-59,cs),
(658,-29,ls),
(658,-17,o),
(650,-13,o),
(639,-19,cs),
(622,-26,o),
(612,-28,o),
(599,-28,cs)
);
}
);
width = 719;
},
{
layerId = "ECACF70C-BE42-4FA5-B3A0-AFDA71FB1D31";
shapes = (
{
closed = 1;
nodes = (
(602,-25,o),
(709,95,o),
(709,334,cs),
(709,585,o),
(590,692,o),
(372,692,cs),
(142,692,o),
(35,572,o),
(35,333,cs),
(35,82,o),
(154,-25,o),
(372,-25,cs)
);
},
{
closed = 1;
nodes = (
(294,105,o),
(242,148,o),
(242,332,cs),
(242,497,o),
(294,542,o),
(372,542,cs),
(450,542,o),
(502,499,o),
(502,335,cs),
(502,150,o),
(450,105,o),
(372,105,cs)
);
},
{
closed = 1;
nodes = (
(592,2,o),
(562,54,o),
(551,120,cs),
(522,288,o),
(441,319,o),
(369,319,cs),
(315,319,o),
(265,294,o),
(238,261,cs),
(228,249,o),
(226,238,o),
(226,223,cs),
(226,173,ls),
(226,147,o),
(237,145,o),
(258,161,cs),
(280,177,o),
(305,184,o),
(329,184,cs),
(366,184,o),
(404,136,o),
(415,50,cs),
(433,-88,o),
(526,-112,o),
(601,-112,cs),
(637,-112,o),
(663,-109,o),
(684,-103,cs),
(701,-98,o),
(708,-84,o),
(708,-66,cs),
(708,-17,ls),
(708,6,o),
(695,12,o),
(672,5,cs),
(662,3,o),
(653,2,o),
(640,2,cs)
);
}
);
width = 744;
}
);
metricLeft = O;
metricRight = O;
unicode = 81;
},
{
glyphname = R;
kernLeft = B;
kernRight = R;
lastChange = "2023-08-05 16:48:47 +0000";
layers = (
{
anchors = (
{
name = bottom;
pos = (316,0);
},
{
name = top;
pos = (296,667);
}
);
layerId = UUID0;
shapes = (
{
closed = 1;
nodes = (
(141,0,ls),
(151,0,o),
(157,6,o),
(157,16,cs),
(157,269,l),
(339,269,l),
(303,306,l),
(494,10,ls),
(499,2,o),
(505,0,o),
(513,0,cs),
(563,0,ls),
(576,0,o),
(580,8,o),
(573,19,cs),
(394,293,l),
(364,273,l),
(479,273,o),
(556,357,o),
(556,473,cs),
(556,601,o),
(489,667,o),
(359,667,cs),
(101,667,ls),
(91,667,o),
(85,661,o),
(85,651,cs),
(85,16,ls),
(85,6,o),
(91,0,o),
(101,0,cs)
);
},
{
closed = 1;
nodes = (
(157,583,ls),
(157,593,o),
(163,599,o),
(173,599,cs),
(351,599,ls),
(453,599,o),
(484,548,o),
(484,468,cs),
(484,383,o),
(437,337,o),
(326,337,cs),
(157,337,l)
);
}
);
width = 631;
},
{
anchors = (
{
name = bottom;
pos = (372,0);
},
{
name = top;
pos = (342,667);
}
);
layerId = "ECACF70C-BE42-4FA5-B3A0-AFDA71FB1D31";
shapes = (
{
closed = 1;
nodes = (
(233,0,ls),
(253,0,o),
(265,12,o),
(265,32,cs),
(265,213,l),
(383,213,l),
(296,284,l),
(438,23,ls),
(446,7,o),
(459,0,o),
(476,0,cs),
(662,0,ls),
(688,0,o),
(697,17,o),
(683,39,cs),
(499,318,l),
(527,249,l),
(627,274,o),
(671,371,o),
(671,448,cs),
(671,596,o),
(571,667,o),
(412,667,cs),
(97,667,ls),
(77,667,o),
(65,655,o),
(65,635,cs),
(65,32,ls),
(65,12,o),
(77,0,o),
(97,0,cs)
);
},
{
closed = 1;
nodes = (
(265,485,ls),
(265,505,o),
(277,517,o),
(297,517,cs),
(387,517,ls),
(422,517,o),
(453,493,o),
(453,439,cs),
(453,375,o),
(422,354,o),
(387,354,cs),
(265,354,l)
);
}
);
width = 743;
}
);
metricLeft = H;
unicode = 82;
},
{
glyphname = S;
kernLeft = S;
kernRight = S;
lastChange = "2023-08-05 16:49:16 +0000";
layers = (
{
anchors = (
{
name = bottom;
pos = (279,0);
},
{
name = top;
pos = (279,667);
}
);
layerId = UUID0;
shapes = (
{
closed = 1;
nodes = (
(443,-10,o),
(495,89,o),
(495,179,cs),
(495,306,o),
(391,344,o),
(298,376,cs),
(210,406,o),
(150,429,o),
(150,511,cs),
(150,563,o),
(187,611,o),
(285,611,cs),
(356,611,o),
(394,591,o),
(437,567,cs),
(448,560,o),
(456,566,o),
(456,578,cs),
(456,617,ls),
(456,626,o),
(452,632,o),
(444,636,cs),
(389,662,o),
(354,677,o),
(281,677,cs),
(128,677,o),
(77,579,o),
(77,506,cs),
(77,375,o),
(173,343,o),
(264,312,cs),
(344,281,o),
(422,255,o),
(422,171,cs),
(422,104,o),
(378,56,o),
(277,56,cs),
(194,56,o),
(128,81,o),
(84,111,cs),
(73,118,o),
(65,114,o),
(65,101,cs),
(65,60,ls),
(65,51,o),
(68,45,o),
(76,41,cs),
(135,9,o),
(179,-10,o),
(274,-10,cs)
);
}
);
width = 555;
},
{
anchors = (
{
name = bottom;
pos = (260,0);
},
{
name = top;
pos = (315,697);
}
);
layerId = "ECACF70C-BE42-4FA5-B3A0-AFDA71FB1D31";
shapes = (
{
closed = 1;
nodes = (
(450,-15,o),
(551,77,o),
(551,212,cs),
(551,330,o),
(478,373,o),
(364,405,cs),
(293,425,o),
(240,435,o),
(240,479,cs),
(240,526,o),
(290,538,o),
(337,534,cs),
(381,530,o),
(434,508,o),
(477,480,cs),
(499,465,o),
(515,473,o),
(515,499,cs),
(515,615,ls),
(515,633,o),
(508,645,o),
(491,652,cs),
(439,674,o),
(387,684,o),
(315,684,cs),
(127,684,o),
(35,580,o),
(35,454,cs),
(35,340,o),
(104,295,o),
(177,270,cs),
(272,238,o),
(345,227,o),
(345,187,cs),
(345,145,o),
(314,135,o),
(272,135,cs),
(223,135,o),
(156,150,o),
(94,186,cs),
(72,199,o),
(56,192,o),
(56,166,cs),
(56,52,ls),
(56,34,o),
(63,22,o),
(80,16,cs),
(141,-8,o),
(215,-15,o),
(304,-15,cs)
);
}
);
width = 586;
}
);
unicode = 83;
},
{
glyphname = Germandbls;
lastChange = "2023-08-05 16:56:58 +0000";
layers = (
{
layerId = UUID0;
shapes = (
{
closed = 1;
nodes = (
(141,0,ls),
(151,0,o),
(157,6,o),
(157,16,cs),
(157,461,ls),
(157,555,o),
(216,619,o),
(330,619,cs),
(444,619,o),
(507,565,o),
(527,511,c),
(543,538,l),
(358,450,l),
(358,396,l),
(494,369,o),
(573,317,o),
(573,201,cs),
(573,116,o),
(529,56,o),
(428,56,cs),
(367,56,o),
(319,79,o),
(285,107,cs),
(274,116,o),
(266,113,o),
(266,99,cs),
(266,59,ls),
(266,51,o),
(269,45,o),
(276,40,cs),
(323,9,o),
(375,-10,o),
(425,-10,cs),
(594,-10,o),
(646,104,o),
(646,209,cs),
(646,349,o),
(541,418,o),
(400,454,c),
(400,411,l),
(592,499,l),
(592,520,l),
(542,614,o),
(493,677,o),
(326,677,cs),
(163,677,o),
(85,577,o),
(85,454,cs),
(85,16,ls),
(85,6,o),
(91,0,o),
(101,0,cs)
);
}
);
width = 706;
},
{
layerId = "ECACF70C-BE42-4FA5-B3A0-AFDA71FB1D31";
shapes = (
{
closed = 1;
nodes = (
(231,0,ls),
(251,0,o),
(263,12,o),
(263,32,cs),
(264,409,ls),
(264,505,o),
(322,542,o),
(381,542,cs),
(460,542,o),
(502,489,o),
(542,444,c),
(505,519,l),
(342,366,l),
(342,357,l),
(400,326,o),
(485,272,o),
(485,192,cs),
(485,139,o),
(449,125,o),
(418,125,cs),
(397,125,o),
(375,134,o),
(352,151,cs),
(331,169,o),
(316,164,o),
(316,137,cs),
(316,36,ls),
(316,19,o),
(322,6,o),
(338,-1,cs),
(372,-17,o),
(418,-25,o),
(451,-25,cs),
(579,-25,o),
(691,74,o),
(691,193,cs),
(691,336,o),
(616,396,o),
(502,434,c),
(484,307,l),
(682,494,l),
(682,512,l),
(627,599,o),
(518,682,o),
(365,682,cs),
(183,682,o),
(65,603,o),
(65,434,cs),
(65,32,ls),
(65,12,o),
(77,0,o),
(97,0,cs)
);
}
);
width = 731;
}
);
metricLeft = H;
metricRight = S;
unicode = 7838;
},
{
glyphname = T;
kernLeft = T;
kernRight = T;
lastChange = "2023-08-05 16:50:54 +0000";
layers = (
{
anchors = (
{
name = bottom;
pos = (292,0);
},
{
name = center;
pos = (292,334);
},
{
name = top;
pos = (292,667);
}
);
layerId = UUID0;
shapes = (
{
closed = 1;
nodes = (
(312,0,ls),
(322,0,o),
(328,6,o),
(328,16,cs),
(328,599,l),
(547,599,ls),
(557,599,o),
(563,605,o),
(563,615,cs),
(563,651,ls),
(563,661,o),
(557,667,o),
(547,667,cs),
(36,667,ls),
(26,667,o),
(20,661,o),
(20,651,cs),
(20,615,ls),
(20,605,o),
(26,599,o),
(36,599,cs),
(256,599,l),
(256,16,ls),
(256,6,o),
(262,0,o),
(272,0,cs)
);
}
);
width = 583;
},
{
anchors = (
{
name = bottom;
pos = (294,0);
},
{
name = center;
pos = (294,334);
},
{
name = top;
pos = (294,667);
}
);
layerId = "ECACF70C-BE42-4FA5-B3A0-AFDA71FB1D31";
shapes = (
{
closed = 1;
nodes = (
(360,0,ls),
(380,0,o),
(392,12,o),
(392,32,cs),
(392,517,l),
(531,517,ls),
(551,517,o),
(563,529,o),
(563,549,cs),
(563,635,ls),
(563,655,o),
(551,667,o),
(531,667,cs),
(57,667,ls),
(37,667,o),
(25,655,o),
(25,635,cs),
(25,549,ls),
(25,529,o),
(37,517,o),
(57,517,cs),
(192,517,l),
(192,32,ls),
(192,12,o),
(204,0,o),
(224,0,cs)
);
}
);
width = 588;
}
);
unicode = 84;
},
{
glyphname = Tcaron;
kernLeft = T;
kernRight = T;
lastChange = "2023-08-05 16:53:04 +0000";
layers = (
{
layerId = UUID0;
shapes = (
{
closed = 1;
nodes = (
(304,0,ls),
(314,0,o),
(320,6,o),
(320,16,cs),
(320,597,l),
(539,597,ls),
(549,597,o),
(555,603,o),
(555,613,cs),
(555,651,ls),
(555,661,o),
(549,667,o),
(539,667,cs),
(28,667,ls),
(18,667,o),
(12,661,o),
(12,651,cs),
(12,613,ls),
(12,603,o),
(18,597,o),
(28,597,cs),
(248,597,l),
(248,16,ls),
(248,6,o),
(254,0,o),
(264,0,cs)
);
},
{
closed = 1;
nodes = (
(292,724,ls),
(300,724,o),
(306,726,o),
(311,734,cs),
(372,826,ls),
(379,837,o),
(375,845,o),
(362,845,cs),
(341,845,ls),
(333,845,o),
(326,841,o),
(322,834,cs),
(295,792,ls),
(289,782,o),
(279,781,o),
(273,791,cs),
(245,835,ls),
(240,843,o),
(234,845,o),
(226,845,cs),
(205,845,ls),
(192,845,o),
(188,837,o),
(195,826,cs),
(256,734,ls),
(261,726,o),
(267,724,o),
(275,724,cs)
);
}
);
width = 568;
},
{
layerId = "ECACF70C-BE42-4FA5-B3A0-AFDA71FB1D31";
shapes = (
{
closed = 1;
nodes = (
(344,0,ls),
(364,0,o),
(376,12,o),
(376,32,cs),
(376,511,l),
(538,511,ls),
(558,511,o),
(570,523,o),
(570,543,cs),
(570,635,ls),
(570,655,o),
(558,667,o),
(538,667,cs),
(44,667,ls),
(24,667,o),
(12,655,o),
(12,635,cs),
(12,543,ls),
(12,523,o),
(24,511,o),
(44,511,cs),
(204,511,l),
(204,32,ls),
(204,12,o),
(216,0,o),
(236,0,cs)
);
},
{
closed = 1;
nodes = (
(292,724,ls),
(308,724,o),
(320,729,o),
(331,741,cs),
(396,807,ls),
(416,828,o),
(408,846,o),
(380,846,cs),
(356,846,ls),
(340,846,o),
(328,841,o),
(317,829,cs),
(312,824,ls),
(299,810,o),
(282,811,o),
(268,826,cs),
(265,829,ls),
(254,841,o),
(242,846,o),
(226,846,cs),
(198,846,ls),
(172,846,o),
(166,828,o),
(186,807,cs),
(251,741,ls),
(262,730,o),
(274,724,o),
(290,724,cs)
);
}
);
width = 582;
}
);
unicode = 356;
},
{
glyphname = U;
kernLeft = U;
kernRight = U;
lastChange = "2023-08-05 16:56:02 +0000";
layers = (
{
anchors = (
{
name = bottom;
pos = (346,0);
},
{
name = ogonek;
pos = (453,10);
},
{
name = top;
pos = (346,667);
},
{
name = topright;
pos = (599,559);
}
);
layerId = UUID0;
shapes = (
{
closed = 1;
nodes = (
(511,-10,o),
(607,90,o),
(607,272,cs),
(607,651,ls),
(607,661,o),
(601,667,o),
(591,667,cs),
(553,667,ls),
(543,667,o),
(537,661,o),
(537,651,cs),
(537,268,ls),
(537,125,o),
(470,58,o),
(346,58,cs),
(222,58,o),
(157,125,o),
(157,268,cs),
(157,651,ls),
(157,661,o),
(151,667,o),
(141,667,cs),
(101,667,ls),
(91,667,o),
(85,661,o),
(85,651,cs),
(85,272,ls),
(85,90,o),
(181,-10,o),
(346,-10,cs)
);
}
);
width = 692;
},
{
anchors = (
{
name = bottom;
pos = (370,0);
},
{
name = ogonek;
pos = (550,10);
},
{
name = top;
pos = (370,677);
},
{
name = topright;
pos = (601,539);
}
);
layerId = "ECACF70C-BE42-4FA5-B3A0-AFDA71FB1D31";
shapes = (
{
closed = 1;
nodes = (
(554,-25,o),
(675,52,o),
(675,239,cs),
(675,635,ls),
(675,655,o),
(663,667,o),
(643,667,cs),
(517,667,ls),
(497,667,o),
(485,655,o),
(485,635,cs),
(485,251,ls),
(485,166,o),
(445,125,o),
(380,125,cs),
(304,125,o),
(275,166,o),
(275,251,cs),
(275,635,ls),
(275,655,o),
(263,667,o),
(243,667,cs),
(97,667,ls),
(77,667,o),
(65,655,o),
(65,635,cs),
(65,239,ls),
(65,52,o),
(170,-25,o),
(391,-25,cs)
);
}
);
width = 740;
}
);
metricLeft = H;
metricRight = H;
unicode = 85;
},
{
glyphname = V;
kernLeft = V;
kernRight = V;
lastChange = "2023-08-05 16:59:59 +0000";
layers = (
{
layerId = UUID0;
shapes = (
{
closed = 1;
nodes = (
(333,0,ls),
(342,0,o),
(349,5,o),
(352,13,cs),
(596,649,ls),
(600,661,o),
(595,667,o),
(583,667,cs),
(544,667,ls),
(535,667,o),
(528,662,o),
(525,654,cs),
(302,61,l),
(328,61,l),
(102,654,ls),
(99,662,o),
(92,667,o),
(83,667,cs),
(40,667,ls),
(28,667,o),
(23,661,o),
(27,649,cs),
(271,13,ls),
(274,5,o),
(281,0,o),
(290,0,cs)
);
}
);
width = 623;
},
{
layerId = "ECACF70C-BE42-4FA5-B3A0-AFDA71FB1D31";
shapes = (
{
closed = 1;
nodes = (
(445,0,ls),
(463,0,o),
(475,7,o),
(482,25,cs),
(721,630,ls),
(730,653,o),
(720,667,o),
(696,667,cs),
(550,667,ls),
(532,667,o),
(519,658,o),
(514,640,cs),
(351,116,l),
(415,116,l),
(252,640,ls),
(247,658,o),
(234,667,o),
(216,667,cs),
(49,667,ls),
(26,667,o),
(16,653,o),
(24,630,cs),
(247,26,ls),
(253,9,o),
(265,0,o),
(283,0,cs)
);
}
);
width = 746;
}
);
metricLeft = A;
metricRight = A;
unicode = 86;
},
{
glyphname = W;
kernLeft = V;
kernRight = V;
lastChange = "2023-08-05 17:06:49 +0000";
layers = (
{
anchors = (
{
name = bottom;
pos = (489,0);
},
{
name = top;
pos = (489,667);
}
);
layerId = UUID0;
shapes = (
{
closed = 1;
nodes = (
(299,0,ls),
(308,0,o),
(314,4,o),
(317,13,cs),
(500,591,l),
(476,591,l),
(659,13,ls),
(662,4,o),
(668,0,o),
(677,0,cs),
(722,0,ls),
(731,0,o),
(737,4,o),
(740,13,cs),
(945,649,ls),
(948,660,o),
(943,667,o),
(932,667,cs),
(889,667,ls),
(880,667,o),
(874,663,o),
(871,654,cs),
(684,53,l),
(712,53,l),
(528,654,ls),
(525,663,o),
(519,667,o),
(510,667,cs),
(466,667,ls),
(457,667,o),
(451,663,o),
(448,654,cs),
(270,62,l),
(292,62,l),
(105,654,ls),
(102,663,o),
(96,667,o),
(87,667,cs),
(44,667,ls),
(33,667,o),
(28,660,o),
(31,649,cs),
(235,13,ls),
(238,4,o),
(244,0,o),
(253,0,cs)
);
}
);
width = 976;
},
{
anchors = (
{
name = bottom;
pos = (512,0);
},
{
name = top;
pos = (512,667);
}
);
layerId = "ECACF70C-BE42-4FA5-B3A0-AFDA71FB1D31";
shapes = (
{
closed = 1;
nodes = (
(369,0,ls),
(387,0,o),
(400,9,o),
(405,27,cs),
(529,433,l),
(497,433,l),
(619,27,ls),
(624,9,o),
(636,0,o),
(655,0,cs),
(796,0,ls),
(815,0,o),
(826,8,o),
(831,27,cs),
(990,631,ls),
(996,653,o),
(984,667,o),
(962,667,cs),
(808,667,ls),
(789,667,o),
(777,658,o),
(774,638,cs),
(693,180,l),
(723,180,l),
(594,640,ls),
(589,659,o),
(577,667,o),
(558,667,cs),
(466,667,ls),
(447,667,o),
(435,659,o),
(430,640,cs),
(302,186,l),
(330,186,l),
(250,638,ls),
(247,658,o),
(235,667,o),
(216,667,cs),
(62,667,ls),
(40,667,o),
(28,653,o),
(34,631,cs),
(193,27,ls),
(198,8,o),
(209,0,o),
(228,0,cs)
);
}
);
width = 1024;
}
);
unicode = 87;
},
{
glyphname = X;
lastChange = "2023-08-05 17:07:18 +0000";
layers = (
{
layerId = UUID0;
shapes = (
{
closed = 1;
nodes = (
(111,657,ls),
(106,664,o),
(100,667,o),
(92,667,cs),
(42,667,ls),
(29,667,o),
(25,659,o),
(32,648,cs),
(480,10,ls),
(485,3,o),
(491,0,o),
(499,0,cs),
(549,0,ls),
(562,0,o),
(566,8,o),
(559,19,cs)
);
},
{
closed = 1;
nodes = (
(331,328,l),
(555,648,ls),
(562,659,o),
(558,667,o),
(545,667,cs),
(493,667,ls),
(485,667,o),
(479,664,o),
(474,657,cs),
(285,388,l)
);
},
{
closed = 1;
nodes = (
(255,347,l),
(26,19,ls),
(19,8,o),
(23,0,o),
(36,0,cs),
(88,0,ls),
(96,0,o),
(102,3,o),
(107,10,cs),
(314,305,l)
);
}
);
width = 589;
},
{
layerId = "ECACF70C-BE42-4FA5-B3A0-AFDA71FB1D31";
shapes = (
{
closed = 1;
nodes = (
(274,646,ls),
(265,660,o),
(252,667,o),
(235,667,cs),
(57,667,ls),
(31,667,o),
(22,649,o),
(36,628,cs),
(444,21,ls),
(453,7,o),
(466,0,o),
(483,0,cs),
(661,0,ls),
(687,0,o),
(696,18,o),
(682,39,cs)
);
},
{
closed = 1;
nodes = (
(460,288,l),
(676,628,ls),
(690,650,o),
(680,667,o),
(654,667,cs),
(509,667,ls),
(492,667,o),
(479,660,o),
(471,644,cs),
(359,434,l)
);
},
{
closed = 1;
nodes = (
(289,409,l),
(48,39,ls),
(34,17,o),
(43,0,o),
(69,0,cs),
(210,0,ls),
(227,0,o),
(240,7,o),
(248,22,cs),
(385,268,l)
);
}
);
width = 718;
}
);
unicode = 88;
},
{
glyphname = Y;
kernLeft = Y;
kernRight = Y;
lastChange = "2023-08-05 17:07:38 +0000";
layers = (
{
anchors = (
{
name = bottom;
pos = (299,0);
},
{
name = top;
pos = (305,667);
},
{
name = topleft;
pos = (20,667);
}
);
layerId = UUID0;
shapes = (
{
closed = 1;
nodes = (
(317,0,ls),
(327,0,o),
(333,6,o),
(333,16,cs),
(333,335,l),
(321,289,l),
(568,648,ls),
(575,659,o),
(570,667,o),
(557,667,cs),
(506,667,ls),
(498,667,o),
(492,664,o),
(487,657,cs),
(287,361,l),
(310,355,l),
(106,657,ls),
(101,664,o),
(95,667,o),
(87,667,cs),
(36,667,ls),
(23,667,o),
(18,659,o),
(25,648,cs),
(261,306,l),
(261,16,ls),
(261,6,o),
(267,0,o),
(277,0,cs)
);
}
);
width = 598;
},
{
anchors = (
{
name = bottom;
pos = (366,0);
},
{
name = top;
pos = (399,667);
},
{
name = topleft;
pos = (20,667);
}
);
background = {
shapes = (
{
closed = 1;
nodes = (
(481,0,l),
(481,667,l),
(280,667,l),
(280,0,l)
);
}
);
};
layerId = "ECACF70C-BE42-4FA5-B3A0-AFDA71FB1D31";
shapes = (
{
closed = 1;
nodes = (
(448,0,ls),
(468,0,o),
(480,12,o),
(480,32,cs),
(480,333,l),
(452,231,l),
(685,629,ls),
(698,651,o),
(688,667,o),
(663,667,cs),
(540,667,ls),
(522,667,o),
(511,661,o),
(503,644,cs),
(356,343,l),
(453,345,l),
(285,645,ls),
(277,660,o),
(263,667,o),
(246,667,cs),
(71,667,ls),
(45,667,o),
(37,650,o),
(51,628,cs),
(280,281,l),
(280,32,ls),
(280,12,o),
(292,0,o),
(312,0,cs)
);
}
);
width = 732;
}
);
unicode = 89;
},
{
glyphname = Z;
kernRight = Z;
lastChange = "2023-08-05 16:22:32 +0000";
layers = (
{
anchors = (
{
name = bottom;
pos = (305,0);
},
{
name = top;
pos = (305,667);
}
);
layerId = UUID0;
shapes = (
{
closed = 1;
nodes = (
(523,0,ls),
(533,0,o),
(539,6,o),
(539,16,cs),
(539,52,ls),
(539,62,o),
(533,68,o),
(523,68,cs),
(125,68,l),
(134,41,l),
(533,597,ls),
(537,603,o),
(539,610,o),
(539,617,cs),
(539,651,ls),
(539,661,o),
(533,667,o),
(523,667,cs),
(90,667,ls),
(80,667,o),
(74,661,o),
(74,651,cs),
(74,615,ls),
(74,605,o),
(80,599,o),
(90,599,cs),
(492,599,l),
(478,632,l),
(70,72,ls),
(66,66,o),
(64,60,o),
(64,52,cs),
(64,16,ls),
(64,6,o),
(70,0,o),
(80,0,cs)
);
}
);
width = 609;
},
{
anchors = (
{
name = bottom;
pos = (312,0);
},
{
name = top;
pos = (332,667);
}
);
layerId = "ECACF70C-BE42-4FA5-B3A0-AFDA71FB1D31";
shapes = (
{
closed = 1;
nodes = (
(562,0,ls),
(582,0,o),
(594,12,o),
(594,32,cs),
(594,119,ls),
(594,139,o),
(582,151,o),
(562,151,cs),
(217,151,l),
(288,133,l),
(580,510,ls),
(590,522,o),
(594,534,o),
(594,550,cs),
(594,635,ls),
(594,655,o),
(582,667,o),
(562,667,cs),
(85,667,ls),
(65,667,o),
(53,655,o),
(53,635,cs),
(53,546,ls),
(53,526,o),
(65,514,o),
(85,514,cs),
(430,514,l),
(377,546,l),
(64,159,ls),
(54,146,o),
(50,136,o),
(50,120,cs),
(50,32,ls),
(50,12,o),
(62,0,o),
(82,0,cs)
);
}
);
width = 644;
}
);
unicode = 90;
},
{
glyphname = a;
kernLeft = a;
kernRight = a;
lastChange = "2023-08-05 17:08:28 +0000";
layers = (
{
anchors = (
{
name = bottom;
pos = (271,0);
},
{
name = ogonek;
pos = (468,40);
},
{
name = top;
pos = (291,499);
}
);
layerId = UUID0;
shapes = (
{
closed = 1;
nodes = (
(368,-15,o),
(474,0,o),
(474,106,cs),
(474,348,ls),
(474,455,o),
(402,508,o),
(293,508,cs),
(232,508,o),
(163,495,o),
(120,473,cs),
(112,469,o),
(109,462,o),
(109,454,cs),
(109,418,ls),
(109,405,o),
(117,401,o),
(128,408,cs),
(169,432,o),
(224,443,o),
(270,443,cs),
(354,443,o),
(401,408,o),
(401,331,cs),
(401,102,ls),
(401,57,o),
(355,49,o),
(269,49,cs),
(203,49,o),
(132,73,o),
(132,148,cs),
(132,209,o),
(179,242,o),
(263,242,cs),
(332,242,o),
(394,222,o),
(425,200,c),
(411,266,l),
(373,290,o),
(325,307,o),
(244,307,cs),
(136,307,o),
(60,261,o),
(60,137,cs),
(60,17,o),
(165,-15,o),
(252,-15,cs)
);
}
);
width = 554;
},
{
anchors = (
{
name = bottom;
pos = (281,0);
},
{
name = ogonek;
pos = (474,26);
},
{
name = top;
pos = (281,529);
}
);
layerId = "ECACF70C-BE42-4FA5-B3A0-AFDA71FB1D31";
shapes = (
{
closed = 1;
nodes = (
(434,-15,o),
(517,26,o),
(518,105,cs),
(519,342,ls),
(520,514,o),
(349,526,o),
(285,526,cs),
(203,526,o),
(135,510,o),
(96,493,cs),
(80,486,o),
(74,472,o),
(74,455,cs),
(74,367,ls),
(74,342,o),
(88,335,o),
(111,347,cs),
(146,365,o),
(192,379,o),
(235,379,cs),
(301,379,o),
(340,357,o),
(340,302,cs),
(340,135,ls),
(340,114,o),
(325,108,o),
(265,108,cs),
(235,108,o),
(210,133,o),
(210,158,cs),
(210,191,o),
(232,204,o),
(289,204,cs),
(319,204,o),
(349,197,o),
(374,184,c),
(371,259,l),
(344,288,o),
(271,316,o),
(209,316,cs),
(80,316,o),
(30,248,o),
(30,167,cs),
(30,27,o),
(126,-15,o),
(265,-15,cs)
);
}
);
width = 579;
}
);
metricRight = n;
unicode = 97;
},
{
glyphname = abrevedotbelow;
kernLeft = a;
kernRight = a;
lastChange = "2023-08-05 17:09:14 +0000";
layers = (
{
layerId = UUID0;
shapes = (
{
closed = 1;
nodes = (
(304,-129,ls),
(314,-129,o),
(320,-123,o),
(320,-113,cs),
(320,-66,ls),
(320,-56,o),
(314,-50,o),
(304,-50,cs),
(257,-50,ls),
(247,-50,o),
(241,-56,o),
(241,-66,cs),
(241,-113,ls),
(241,-123,o),
(247,-129,o),
(257,-129,cs)
);
},
{
closed = 1;
nodes = (
(332,539,o),
(370,572,o),
(376,627,cs),
(377,637,o),
(371,643,o),
(361,643,cs),
(344,643,ls),
(334,643,o),
(329,638,o),
(328,627,cs),
(324,599,o),
(306,587,o),
(272,587,cs),
(238,587,o),
(220,599,o),
(216,627,cs),
(215,638,o),
(210,643,o),
(200,643,cs),
(183,643,ls),
(173,643,o),
(167,637,o),
(168,626,cs),
(174,571,o),
(212,539,o),
(272,539,cs)
);
},
{
ref = a;
}
);
width = 534;
},
{
layerId = "ECACF70C-BE42-4FA5-B3A0-AFDA71FB1D31";
shapes = (
{
closed = 1;
nodes = (
(309,-159,ls),
(329,-159,o),
(341,-147,o),
(341,-127,cs),
(341,-82,ls),
(341,-62,o),
(329,-50,o),
(309,-50,cs),
(253,-50,ls),
(233,-50,o),
(221,-62,o),
(221,-82,cs),
(221,-127,ls),
(221,-147,o),
(233,-159,o),
(253,-159,cs)
);
},
{
closed = 1;
nodes = (
(358,538,o),
(399,568,o),
(410,618,cs),
(413,635,o),
(399,645,o),
(378,645,cs),
(349,645,ls),
(331,645,o),
(325,635,o),
(313,620,cs),
(306,613,o),
(297,609,o),
(281,609,cs),
(265,609,o),
(256,613,o),
(249,620,cs),
(237,635,o),
(231,645,o),
(213,645,cs),
(184,645,ls),
(163,645,o),
(149,632,o),
(154,611,cs),
(167,565,o),
(208,538,o),
(281,538,cs)
);
},
{
ref = a;
}
);
width = 551;
}
);
unicode = 7863;
},
{
glyphname = adotbelow;
kernLeft = a;
kernRight = a;
lastChange = "2023-08-05 17:09:43 +0000";
layers = (
{
layerId = UUID0;
shapes = (
{
closed = 1;
nodes = (
(304,-129,ls),
(314,-129,o),
(320,-123,o),
(320,-113,cs),
(320,-66,ls),
(320,-56,o),
(314,-50,o),
(304,-50,cs),
(257,-50,ls),
(247,-50,o),
(241,-56,o),
(241,-66,cs),
(241,-113,ls),
(241,-123,o),
(247,-129,o),
(257,-129,cs)
);
},
{
ref = a;
}
);
width = 534;
},
{
layerId = "ECACF70C-BE42-4FA5-B3A0-AFDA71FB1D31";
shapes = (
{
closed = 1;
nodes = (
(311,-159,ls),
(331,-159,o),
(343,-147,o),
(343,-127,cs),
(343,-82,ls),
(343,-62,o),
(331,-50,o),
(311,-50,cs),
(255,-50,ls),
(235,-50,o),
(223,-62,o),
(223,-82,cs),
(223,-127,ls),
(223,-147,o),
(235,-159,o),
(255,-159,cs)
);
},
{
ref = a;
}
);
width = 551;
}
);
unicode = 7841;
},
{
glyphname = ae;
kernLeft = a;
kernRight = e;
lastChange = "2023-08-05 17:11:21 +0000";
layers = (
{
anchors = (
{
name = bottom;
pos = (489,-15);
},
{
name = top;
pos = (455,499);
}
);
layerId = UUID0;
shapes = (
{
closed = 1;
nodes = (
(432,110,l),
(399,71,o),
(332,49,o),
(269,49,cs),
(201,49,o),
(132,73,o),
(132,143,cs),
(132,209,o),
(174,242,o),
(263,242,cs),
(332,242,o),
(394,222,o),
(425,200,c),
(411,272,l),
(373,296,o),
(325,307,o),
(271,307,cs),
(156,307,o),
(60,267,o),
(60,137,cs),
(60,29,o),
(145,-15,o),
(269,-15,cs),
(364,-15,o),
(425,27,o),
(465,62,c)
);
},
{
closed = 1;
nodes = (
(401,67,o),
(489,-15,o),
(632,-15,cs),
(695,-15,o),
(749,-5,o),
(795,15,cs),
(803,18,o),
(807,24,o),
(807,33,cs),
(807,72,ls),
(807,84,o),
(799,89,o),
(788,84,cs),
(749,64,o),
(698,51,o),
(636,51,cs),
(533,51,o),
(474,116,o),
(474,237,cs),
(474,348,ls),
(474,455,o),
(402,508,o),
(293,508,cs),
(232,508,o),
(163,495,o),
(120,473,cs),
(112,469,o),
(109,462,o),
(109,454,cs),
(109,418,ls),
(109,405,o),
(117,401,o),
(128,408,cs),
(169,432,o),
(224,443,o),
(270,443,cs),
(354,443,o),
(401,408,o),
(401,331,cs),
(401,243,ls)
);
},
{
closed = 1;
nodes = (
(474,237,l),
(474,397,o),
(521,442,o),
(620,442,cs),
(714,442,o),
(759,393,o),
(763,293,c),
(791,303,l),
(442,303,l),
(437,237,l),
(822,237,ls),
(832,237,o),
(838,243,o),
(838,253,cs),
(836,398,o),
(774,508,o),
(620,508,cs),
(484,508,o),
(401,422,o),
(401,250,c)
);
}
);
width = 893;
},
{
anchors = (
{
name = bottom;
pos = (439,0);
},
{
name = top;
pos = (439,519);
}
);
background = {
shapes = (
{
closed = 1;
nodes = (
(364,-9,o),
(409,26,o),
(433,68,c),
(452,31,o),
(507,-9,o),
(573,-9,cs),
(650,-9,o),
(710,9,o),
(763,43,c),
(763,164,l),
(728,143,o),
(678,125,o),
(606,125,cs),
(554,125,o),
(499,160,o),
(499,208,c),
(783,208,l),
(785,224,o),
(786,242,o),
(786,262,cs),
(786,387,o),
(717,505,o),
(559,505,cs),
(494,505,o),
(441,467,o),
(421,438,c),
(400,463,o),
(342,504,o),
(275,504,cs),
(219,504,o),
(163,490,o),
(111,469,c),
(111,339,l),
(163,360,o),
(213,370,o),
(263,370,cs),
(293,370,o),
(330,355,o),
(330,294,c),
(302,296,o),
(309,295,o),
(285,295,cs),
(81,295,o),
(62,184,o),
(62,145,cs),
(62,42,o),
(130,-9,o),
(276,-9,cs)
);
},
{
closed = 1;
nodes = (
(246,122,o),
(234,144,o),
(234,175,cs),
(234,202,o),
(251,225,o),
(300,225,cs),
(311,225,o),
(321,224,o),
(333,223,c),
(333,181,ls),
(333,159,o),
(319,122,o),
(283,122,cs)
);
},
{
closed = 1;
nodes = (
(505,352,o),
(525,396,o),
(559,396,cs),
(594,396,o),
(613,343,o),
(615,311,c),
(503,311,l)
);
}
);
};
layerId = "ECACF70C-BE42-4FA5-B3A0-AFDA71FB1D31";
shapes = (
{
closed = 1;
nodes = (
(379,124,l),
(359,102,o),
(306,99,o),
(273,99,cs),
(232,99,o),
(210,124,o),
(210,149,cs),
(210,182,o),
(232,204,o),
(289,204,cs),
(319,204,o),
(349,197,o),
(374,184,c),
(371,259,l),
(344,288,o),
(271,316,o),
(209,316,cs),
(80,316,o),
(30,239,o),
(30,158,cs),
(30,18,o),
(126,-24,o),
(235,-24,cs),
(317,-24,o),
(384,9,o),
(431,40,c)
);
},
{
closed = 1;
nodes = (
(340,77,o),
(447,-25,o),
(606,-25,cs),
(676,-25,o),
(728,-14,o),
(771,6,cs),
(787,14,o),
(793,27,o),
(793,44,cs),
(793,127,ls),
(793,151,o),
(778,160,o),
(756,149,cs),
(726,136,o),
(688,124,o),
(655,124,cs),
(555,124,o),
(518,150,o),
(518,207,cs),
(519,342,ls),
(520,514,o),
(349,526,o),
(285,526,cs),
(203,526,o),
(135,510,o),
(96,493,cs),
(80,486,o),
(74,472,o),
(74,455,cs),
(74,364,ls),
(74,339,o),
(88,332,o),
(111,344,cs),
(146,362,o),
(192,376,o),
(235,376,cs),
(301,376,o),
(340,354,o),
(340,299,cs),
(340,182,ls)
);
},
{
closed = 1;
nodes = (
(519,269,l),
(519,357,o),
(559,391,o),
(598,391,cs),
(652,391,o),
(671,356,o),
(673,249,c),
(692,311,l),
(445,311,l),
(469,204,l),
(816,204,ls),
(837,204,o),
(848,216,o),
(848,237,cs),
(841,427,o),
(767,525,o),
(607,525,cs),
(434,525,o),
(340,418,o),
(340,244,c)
);
}
);
width = 878;
}
);
metricLeft = a;
metricRight = e;
unicode = 230;
},
{
glyphname = b;
kernLeft = b;
kernRight = b;
lastChange = "2023-08-05 17:11:38 +0000";
layers = (
{
layerId = UUID0;
shapes = (
{
closed = 1;
nodes = (
(377,-16,o),
(513,27,o),
(514,256,cs),
(514,410,o),
(440,507,o),
(286,507,cs),
(242,507,o),
(166,487,o),
(127,467,c),
(152,442,l),
(152,694,ls),
(152,704,o),
(146,710,o),
(136,710,cs),
(96,710,ls),
(86,710,o),
(80,704,o),
(80,694,cs),
(80,85,ls),
(80,6,o),
(173,-15,o),
(277,-15,cs)
);
},
{
closed = 1;
nodes = (
(222,51,o),
(152,58,o),
(152,102,cs),
(152,406,l),
(193,430,o),
(244,441,o),
(286,441,cs),
(395,441,o),
(438,365,o),
(438,256,cs),
(438,148,o),
(411,51,o),
(270,51,cs)
);
}
);
width = 569;
},
{
layerId = "ECACF70C-BE42-4FA5-B3A0-AFDA71FB1D31";
shapes = (
{
closed = 1;
nodes = (
(483,-15,o),
(585,63,o),
(585,255,cs),
(585,436,o),
(502,526,o),
(356,526,cs),
(319,526,o),
(242,514,o),
(208,463,c),
(238,407,l),
(238,654,ls),
(238,674,o),
(226,686,o),
(206,686,cs),
(92,686,ls),
(72,686,o),
(60,674,o),
(60,654,cs),
(60,131,ls),
(60,9,o),
(189,-15,o),
(307,-15,cs)
);
},
{
closed = 1;
nodes = (
(261,134,o),
(238,146,o),
(238,179,cs),
(238,369,l),
(256,379,o),
(284,384,o),
(304,384,cs),
(356,384,o),
(405,358,o),
(405,242,cs),
(405,172,o),
(371,134,o),
(307,134,cs)
);
}
);
width = 615;
}
);
metricLeft = n;
metricRight = o;
unicode = 98;
},
{
glyphname = c;
kernLeft = c;
kernRight = c;
lastChange = "2023-08-05 17:11:57 +0000";
layers = (
{
anchors = (
{
name = bottom;
pos = (246,0);
},
{
name = top;
pos = (266,499);
}
);
layerId = UUID0;
shapes = (
{
closed = 1;
nodes = (
(335,-8,o),
(381,-1,o),
(424,14,cs),
(433,17,o),
(437,24,o),
(437,33,cs),
(437,69,ls),
(437,81,o),
(430,86,o),
(419,82,cs),
(380,68,o),
(339,61,o),
(297,61,cs),
(178,61,o),
(127,117,o),
(127,250,cs),
(127,382,o),
(178,439,o),
(297,439,cs),
(339,439,o),
(380,432,o),
(419,418,cs),
(430,414,o),
(437,419,o),
(437,431,cs),
(437,466,ls),
(437,475,o),
(433,482,o),
(424,485,cs),
(381,500,o),
(335,508,o),
(289,508,cs),
(182,508,o),
(55,463,o),
(55,250,cs),
(55,36,o),
(182,-8,o),
(289,-8,cs)
);
}
);
width = 492;
},
{
anchors = (
{
name = bottom;
pos = (258,0);
},
{
name = top;
pos = (298,519);
}
);
layerId = "ECACF70C-BE42-4FA5-B3A0-AFDA71FB1D31";
shapes = (
{
closed = 1;
nodes = (
(373,-15,o),
(417,-3,o),
(459,18,cs),
(471,25,o),
(476,37,o),
(476,54,cs),
(476,136,ls),
(476,161,o),
(461,169,o),
(439,158,cs),
(412,145,o),
(380,134,o),
(348,134,cs),
(248,134,o),
(211,182,o),
(211,269,cs),
(211,347,o),
(269,379,o),
(338,379,cs),
(372,379,o),
(403,369,o),
(436,355,cs),
(459,345,o),
(474,355,o),
(474,379,cs),
(474,464,ls),
(474,482,o),
(467,495,o),
(450,501,cs),
(408,516,o),
(354,525,o),
(307,525,cs),
(134,525,o),
(30,418,o),
(30,244,cs),
(30,87,o),
(150,-15,o),
(309,-15,cs)
);
}
);
width = 506;
}
);
metricLeft = o;
metricRight = o;
unicode = 99;
},
{
glyphname = d;
kernLeft = c;
kernRight = d;
lastChange = "2023-08-05 17:13:43 +0000";
layers = (
{
anchors = (
{
name = bottom;
pos = (296,0);
},
{
name = center;
pos = (432,604);
},
{
name = top;
pos = (296,499);
},
{
name = topright;
pos = (557,499);
}
);
layerId = UUID0;
shapes = (
{
closed = 1;
nodes = (
(369,-14,o),
(489,11,o),
(489,86,cs),
(489,694,ls),
(489,704,o),
(483,710,o),
(473,710,cs),
(433,710,ls),
(423,710,o),
(417,704,o),
(417,694,cs),
(417,442,l),
(442,467,l),
(403,487,o),
(327,507,o),
(283,507,cs),
(129,507,o),
(55,410,o),
(55,256,cs),
(56,27,o),
(192,-16,o),
(287,-15,cs)
);
},
{
closed = 1;
nodes = (
(158,51,o),
(131,148,o),
(131,256,cs),
(131,365,o),
(174,441,o),
(283,441,cs),
(325,441,o),
(376,430,o),
(417,406,c),
(417,93,ls),
(417,69,o),
(357,51,o),
(288,51,cs)
);
}
);
width = 569;
},
{
anchors = (
{
name = bottom;
pos = (324,0);
},
{
name = center;
pos = (460,599);
},
{
name = top;
pos = (324,529);
},
{
name = topright;
pos = (602,499);
}
);
layerId = "ECACF70C-BE42-4FA5-B3A0-AFDA71FB1D31";
shapes = (
{
closed = 1;
nodes = (
(451,-15,o),
(566,44,o),
(566,151,cs),
(566,684,ls),
(566,704,o),
(554,716,o),
(534,716,cs),
(418,716,ls),
(398,716,o),
(386,704,o),
(386,684,cs),
(386,420,l),
(418,476,l),
(372,533,o),
(303,529,o),
(278,529,cs),
(113,529,o),
(30,426,o),
(30,258,cs),
(30,53,o),
(132,-15,o),
(317,-15,cs)
);
},
{
closed = 1;
nodes = (
(246,135,o),
(212,171,o),
(212,251,cs),
(212,363,o),
(256,385,o),
(331,385,cs),
(349,385,o),
(368,379,o),
(386,370,c),
(386,171,ls),
(386,146,o),
(364,135,o),
(325,135,cs)
);
}
);
width = 626;
}
);
metricLeft = o;
metricRight = n;
unicode = 100;
},
{
glyphname = eth;
lastChange = "2023-08-05 17:14:10 +0000";
layers = (
{
layerId = UUID0;
shapes = (
{
closed = 1;
nodes = (
(436,-15,o),
(512,97,o),
(512,271,cs),
(512,473,o),
(367,613,o),
(296,681,cs),
(290,687,o),
(284,689,o),
(276,689,cs),
(174,689,l),
(174,686,l),
(304,590,o),
(440,446,o),
(440,271,cs),
(438,86,o),
(370,51,o),
(284,51,cs),
(168,51,o),
(127,130,o),
(127,248,cs),
(127,357,o),
(164,442,o),
(284,442,cs),
(353,442,o),
(415,412,o),
(446,370,c),
(432,436,l),
(394,480,o),
(349,508,o),
(283,508,cs),
(137,508,o),
(55,421,o),
(55,248,cs),
(55,82,o),
(129,-15,o),
(285,-15,cs)
);
},
{
closed = 1;
nodes = (
(438,592,ls),
(448,594,o),
(453,601,o),
(452,611,cs),
(448,636,ls),
(447,646,o),
(440,651,o),
(430,649,cs),
(180,609,ls),
(170,607,o),
(165,600,o),
(166,590,cs),
(170,565,ls),
(172,554,o),
(179,550,o),
(189,552,cs)
);
}
);
width = 567;
},
{
layerId = "ECACF70C-BE42-4FA5-B3A0-AFDA71FB1D31";
shapes = (
{
closed = 1;
nodes = (
(469,-25,o),
(550,77,o),
(550,309,cs),
(550,470,o),
(502,609,o),
(393,688,cs),
(380,697,o),
(368,700,o),
(353,700,cs),
(168,700,l),
(168,693,l),
(270,633,o),
(379,558,o),
(379,331,cs),
(379,177,o),
(362,117,o),
(298,117,cs),
(241,117,o),
(210,147,o),
(210,252,cs),
(210,357,o),
(241,411,o),
(298,411,cs),
(328,411,o),
(358,394,o),
(383,361,c),
(380,446,l),
(353,495,o),
(310,525,o),
(227,525,cs),
(106,525,o),
(30,428,o),
(30,252,cs),
(30,59,o),
(121,-25,o),
(298,-25,cs)
);
},
{
closed = 1;
nodes = (
(525,605,ls),
(546,609,o),
(555,624,o),
(548,644,cs),
(539,671,ls),
(533,690,o),
(519,697,o),
(500,694,cs),
(211,643,ls),
(190,639,o),
(181,625,o),
(186,605,cs),
(195,571,ls),
(200,552,o),
(213,543,o),
(233,547,cs)
);
}
);
width = 589;
}
);
metricLeft = o;
metricRight = o;
unicode = 240;
},
{
glyphname = e;
kernLeft = c;
kernRight = e;
lastChange = "2023-08-05 17:14:54 +0000";
layers = (
{
anchors = (
{
name = bottom;
pos = (283,0);
},
{
name = ogonek;
pos = (481,32);
},
{
name = top;
pos = (283,499);
}
);
layerId = UUID0;
shapes = (
{
closed = 1;
nodes = (
(351,-15,o),
(405,-5,o),
(452,16,cs),
(458,19,o),
(461,24,o),
(461,33,cs),
(461,72,ls),
(461,84,o),
(453,89,o),
(442,84,cs),
(403,64,o),
(352,51,o),
(290,51,cs),
(187,51,o),
(128,116,o),
(128,237,cs),
(128,397,o),
(175,442,o),
(274,442,cs),
(368,442,o),
(413,393,o),
(417,293,c),
(445,303,l),
(96,303,l),
(91,237,l),
(476,237,ls),
(486,237,o),
(492,243,o),
(492,253,cs),
(490,398,o),
(428,508,o),
(274,508,cs),
(138,508,o),
(55,422,o),
(55,250,cs),
(55,74,o),
(143,-15,o),
(286,-15,cs)
);
}
);
width = 547;
},
{
anchors = (
{
name = bottom;
pos = (301,0);
},
{
name = ogonek;
pos = (481,18);
},
{
name = top;
pos = (291,519);
}
);
layerId = "ECACF70C-BE42-4FA5-B3A0-AFDA71FB1D31";
shapes = (
{
closed = 1;
nodes = (
(372,-15,o),
(425,-3,o),
(469,12,cs),
(481,16,o),
(486,27,o),
(486,45,cs),
(486,130,ls),
(486,153,o),
(472,164,o),
(450,157,cs),
(419,146,o),
(381,134,o),
(348,134,cs),
(248,134,o),
(211,182,o),
(211,269,cs),
(211,361,o),
(249,395,o),
(288,395,cs),
(342,395,o),
(361,360,o),
(363,249,c),
(382,311,l),
(135,311,l),
(159,204,l),
(506,204,ls),
(526,204,o),
(538,216,o),
(538,237,cs),
(531,431,o),
(457,529,o),
(297,529,cs),
(124,529,o),
(30,422,o),
(30,244,cs),
(30,87,o),
(140,-15,o),
(299,-15,cs)
);
}
);
width = 568;
}
);
metricLeft = o;
metricRight = o;
unicode = 101;
},
{
glyphname = f;
kernLeft = f;
kernRight = f;
lastChange = "2023-08-05 17:16:52 +0000";
layers = (
{
layerId = UUID0;
shapes = (
{
closed = 1;
nodes = (
(182,0,ls),
(192,0,o),
(198,6,o),
(198,16,cs),
(198,433,l),
(319,433,ls),
(329,433,o),
(335,439,o),
(335,449,cs),
(335,483,ls),
(335,493,o),
(329,499,o),
(319,499,cs),
(198,499,l),
(198,527,ls),
(198,643,o),
(253,643,o),
(299,643,cs),
(306,643,o),
(312,643,o),
(318,642,cs),
(329,641,o),
(335,645,o),
(335,656,cs),
(335,689,ls),
(335,698,o),
(331,704,o),
(321,706,cs),
(311,708,o),
(299,709,o),
(287,709,cs),
(247,709,o),
(126,709,o),
(126,526,cs),
(126,499,l),
(56,499,ls),
(46,499,o),
(40,493,o),
(40,483,cs),
(40,449,ls),
(40,439,o),
(46,433,o),
(56,433,cs),
(126,433,l),
(126,16,ls),
(126,6,o),
(132,0,o),
(142,0,cs)
);
}
);
width = 375;
},
{
layerId = "ECACF70C-BE42-4FA5-B3A0-AFDA71FB1D31";
shapes = (
{
closed = 1;
nodes = (
(244,0,ls),
(264,0,o),
(276,12,o),
(276,32,cs),
(276,374,l),
(345,374,ls),
(365,374,o),
(377,386,o),
(377,406,cs),
(377,477,ls),
(377,497,o),
(365,509,o),
(345,509,cs),
(278,509,l),
(278,540,ls),
(278,565,o),
(291,585,o),
(320,585,cs),
(334,585,o),
(344,582,o),
(353,577,cs),
(370,567,o),
(377,572,o),
(377,597,cs),
(377,686,ls),
(377,705,o),
(368,718,o),
(349,721,cs),
(334,724,o),
(316,726,o),
(303,726,cs),
(170,726,o),
(97,672,o),
(96,514,cs),
(96,509,l),
(57,509,ls),
(37,509,o),
(25,497,o),
(25,477,cs),
(25,406,ls),
(25,386,o),
(37,374,o),
(57,374,cs),
(94,374,l),
(94,32,ls),
(94,12,o),
(106,0,o),
(126,0,cs)
);
}
);
width = 402;
}
);
unicode = 102;
},
{
glyphname = g;
kernLeft = g;
kernRight = g;
lastChange = "2023-08-05 17:17:05 +0000";
layers = (
{
anchors = (
{
name = bottom;
pos = (290,0);
},
{
name = top;
pos = (311,499);
}
);
layerId = UUID0;
shapes = (
{
closed = 1;
nodes = (
(327,-15,o),
(403,5,o),
(442,25,c),
(417,50,l),
(417,-23,ls),
(417,-73,o),
(399,-130,o),
(264,-130,cs),
(218,-130,o),
(178,-120,o),
(148,-112,cs),
(137,-109,o),
(130,-115,o),
(130,-126,cs),
(130,-161,ls),
(130,-170,o),
(134,-176,o),
(144,-178,cs),
(178,-187,o),
(221,-198,o),
(272,-198,cs),
(451,-198,o),
(489,-100,o),
(489,-21,cs),
(489,383,ls),
(489,472,o),
(395,507,o),
(302,507,cs),
(192,508,o),
(56,465,o),
(55,236,cs),
(55,82,o),
(129,-15,o),
(283,-15,cs)
);
},
{
closed = 1;
nodes = (
(174,51,o),
(131,127,o),
(131,236,cs),
(131,344,o),
(158,441,o),
(304,441,cs),
(364,441,o),
(417,429,o),
(417,373,cs),
(417,86,l),
(376,62,o),
(325,51,o),
(283,51,cs)
);
}
);
width = 569;
},
{
anchors = (
{
name = bottom;
pos = (303,0);
},
{
name = top;
pos = (333,529);
}
);
layerId = "ECACF70C-BE42-4FA5-B3A0-AFDA71FB1D31";
shapes = (
{
closed = 1;
nodes = (
(339,-15,o),
(376,20,o),
(407,76,c),
(375,95,l),
(375,10,ls),
(375,-50,o),
(347,-85,o),
(272,-85,cs),
(214,-85,o),
(150,-69,o),
(108,-54,cs),
(85,-46,o),
(71,-54,o),
(71,-78,cs),
(71,-171,ls),
(71,-188,o),
(77,-202,o),
(93,-208,cs),
(132,-224,o),
(194,-233,o),
(277,-233,cs),
(436,-233,o),
(553,-167,o),
(553,0,cs),
(553,384,ls),
(553,471,o),
(475,526,o),
(335,526,cs),
(136,526,o),
(30,460,o),
(30,238,cs),
(30,65,o),
(120,-5,o),
(250,-15,c)
);
},
{
closed = 1;
nodes = (
(255,116,o),
(210,166,o),
(210,250,cs),
(210,334,o),
(241,385,o),
(309,385,cs),
(341,385,o),
(375,378,o),
(375,341,cs),
(375,133,l),
(356,122,o),
(336,116,o),
(305,116,cs)
);
}
);
width = 603;
}
);
metricLeft = o;
unicode = 103;
},
{
glyphname = h;
kernLeft = h;
kernRight = h;
lastChange = "2023-08-05 17:17:32 +0000";
layers = (
{
anchors = (
{
name = bottom;
pos = (284,0);
},
{
name = center;
pos = (112,604);
},
{
name = top;
pos = (113,720);
}
);
layerId = UUID0;
shapes = (
{
closed = 1;
nodes = (
(136,0,ls),
(146,0,o),
(152,6,o),
(152,16,cs),
(152,402,l),
(201,429,o),
(248,442,o),
(295,442,cs),
(380,442,o),
(423,389,o),
(423,296,cs),
(423,16,ls),
(423,6,o),
(429,0,o),
(439,0,cs),
(479,0,ls),
(489,0,o),
(495,6,o),
(495,16,cs),
(495,296,ls),
(495,441,o),
(426,508,o),
(303,508,cs),
(253,508,o),
(195,490,o),
(144,462,c),
(152,443,l),
(152,704,ls),
(152,714,o),
(146,720,o),
(136,720,cs),
(96,720,ls),
(86,720,o),
(80,714,o),
(80,704,cs),
(80,16,ls),
(80,6,o),
(86,0,o),
(96,0,cs)
);
}
);
width = 575;
},
{
anchors = (
{
name = bottom;
pos = (307,-30);
},
{
name = center;
pos = (162,591);
},
{
name = top;
pos = (147,696);
}
);
layerId = "ECACF70C-BE42-4FA5-B3A0-AFDA71FB1D31";
shapes = (
{
closed = 1;
nodes = (
(208,0,ls),
(228,0,o),
(240,12,o),
(240,32,cs),
(243,361,l),
(247,368,o),
(276,377,o),
(302,377,cs),
(355,377,o),
(385,357,o),
(385,303,cs),
(385,32,ls),
(385,12,o),
(397,0,o),
(417,0,cs),
(535,0,ls),
(555,0,o),
(567,12,o),
(567,32,cs),
(567,347,ls),
(567,487,o),
(487,525,o),
(383,525,cs),
(296,525,o),
(211,486,o),
(157,431,c),
(243,390,l),
(243,668,ls),
(243,688,o),
(231,700,o),
(211,700,cs),
(92,700,ls),
(72,700,o),
(60,688,o),
(60,668,cs),
(60,32,ls),
(60,12,o),
(72,0,o),
(92,0,cs)
);
}
);
width = 627;
}
);
metricLeft = n;
metricRight = n;
unicode = 104;
},
{
glyphname = i;
kernLeft = h;
kernRight = i;
lastChange = "2023-08-05 17:17:57 +0000";
layers = (
{
anchors = (
{
name = bottom;
pos = (118,0);
},
{
name = ogonek;
pos = (178,10);
}
);
layerId = UUID0;
shapes = (
{
closed = 1;
nodes = (
(140,0,ls),
(150,0,o),
(156,6,o),
(156,16,cs),
(156,483,ls),
(156,493,o),
(150,499,o),
(140,499,cs),
(100,499,ls),
(90,499,o),
(84,493,o),
(84,483,cs),
(84,16,ls),
(84,6,o),
(90,0,o),
(100,0,cs)
);
},
{
closed = 1;
nodes = (
(144,588,ls),
(154,588,o),
(160,594,o),
(160,604,cs),
(160,651,ls),
(160,661,o),
(154,667,o),
(144,667,cs),
(96,667,ls),
(86,667,o),
(80,661,o),
(80,651,cs),
(80,604,ls),
(80,594,o),
(86,588,o),
(96,588,cs)
);
}
);
width = 240;
},
{
anchors = (
{
name = bottom;
pos = (150,0);
},
{
name = ogonek;
pos = (263,11);
}
);
layerId = "ECACF70C-BE42-4FA5-B3A0-AFDA71FB1D31";
shapes = (
{
closed = 1;
nodes = (
(214,0,ls),
(234,0,o),
(246,12,o),
(246,32,cs),
(244,467,ls),
(244,487,o),
(232,499,o),
(212,499,cs),
(94,499,ls),
(74,499,o),
(62,487,o),
(62,467,cs),
(62,32,ls),
(62,12,o),
(74,0,o),
(94,0,cs)
);
},
{
closed = 1;
nodes = (
(214,569,ls),
(234,569,o),
(246,581,o),
(246,601,cs),
(246,668,ls),
(246,688,o),
(234,700,o),
(214,700,cs),
(92,700,ls),
(72,700,o),
(60,688,o),
(60,668,cs),
(60,601,ls),
(60,581,o),
(72,569,o),
(92,569,cs)
);
}
);
width = 306;
}
);
metricLeft = n;
metricRight = n;
unicode = 105;
},
{
glyphname = dotlessi;
kernLeft = h;
kernRight = i;
lastChange = "2023-08-05 17:18:11 +0000";
layers = (
{
anchors = (
{
name = bottom;
pos = (116,0);
},
{
name = ogonek;
pos = (209,10);
},
{
name = top;
pos = (116,499);
}
);
layerId = UUID0;
shapes = (
{
closed = 1;
nodes = (
(136,0,ls),
(146,0,o),
(152,6,o),
(152,16,cs),
(152,483,ls),
(152,493,o),
(146,499,o),
(136,499,cs),
(96,499,ls),
(86,499,o),
(80,493,o),
(80,483,cs),
(80,16,ls),
(80,6,o),
(86,0,o),
(96,0,cs)
);
}
);
width = 232;
},
{
anchors = (
{
name = bottom;
pos = (152,0);
},
{
name = ogonek;
pos = (274,10);
},
{
name = top;
pos = (152,499);
}
);
layerId = "ECACF70C-BE42-4FA5-B3A0-AFDA71FB1D31";
shapes = (
{
closed = 1;
nodes = (
(212,0,ls),
(232,0,o),
(244,12,o),
(244,32,cs),
(242,467,ls),
(242,487,o),
(230,499,o),
(210,499,cs),
(92,499,ls),
(72,499,o),
(60,487,o),
(60,467,cs),
(60,32,ls),
(60,12,o),
(72,0,o),
(92,0,cs)
);
}
);
width = 304;
}
);
metricLeft = n;
metricRight = n;
unicode = 305;
},
{
glyphname = iacute;
kernLeft = h;
kernRight = i;
lastChange = "2023-08-05 17:18:31 +0000";
layers = (
{
layerId = UUID0;
shapes = (
{
closed = 1;
nodes = (
(155,0,ls),
(165,0,o),
(171,6,o),
(171,16,cs),
(171,483,ls),
(171,493,o),
(165,499,o),
(155,499,cs),
(115,499,ls),
(105,499,o),
(99,493,o),
(99,483,cs),
(99,16,ls),
(99,6,o),
(105,0,o),
(115,0,cs)
);
},
{
closed = 1;
nodes = (
(146,564,ls),
(154,564,o),
(160,567,o),
(165,574,cs),
(227,660,ls),
(235,670,o),
(230,679,o),
(217,679,cs),
(180,679,ls),
(171,679,o),
(165,675,o),
(161,667,cs),
(120,583,ls),
(115,572,o),
(120,564,o),
(132,564,cs)
);
}
);
width = 270;
},
{
layerId = "ECACF70C-BE42-4FA5-B3A0-AFDA71FB1D31";
shapes = (
{
closed = 1;
nodes = (
(236,0,ls),
(256,0,o),
(268,12,o),
(268,32,cs),
(268,467,ls),
(268,487,o),
(256,499,o),
(236,499,cs),
(128,499,ls),
(108,499,o),
(96,487,o),
(96,467,cs),
(96,32,ls),
(96,12,o),
(108,0,o),
(128,0,cs)
);
},
{
closed = 1;
nodes = (
(202,556,ls),
(219,556,o),
(231,562,o),
(241,575,cs),
(288,634,ls),
(305,656,o),
(296,673,o),
(269,673,cs),
(228,673,ls),
(211,673,o),
(198,666,o),
(190,650,cs),
(160,594,ls),
(148,571,o),
(158,556,o),
(183,556,cs)
);
}
);
width = 359;
}
);
unicode = 237;
},
{
glyphname = icircumflex;
kernLeft = h;
kernRight = i;
lastChange = "2023-08-05 17:18:48 +0000";
layers = (
{
layerId = UUID0;
shapes = (
{
closed = 1;
nodes = (
(155,0,ls),
(165,0,o),
(171,6,o),
(171,16,cs),
(171,483,ls),
(171,493,o),
(165,499,o),
(155,499,cs),
(115,499,ls),
(105,499,o),
(99,493,o),
(99,483,cs),
(99,16,ls),
(99,6,o),
(105,0,o),
(115,0,cs)
);
},
{
closed = 1;
nodes = (
(77,564,ls),
(85,564,o),
(91,566,o),
(96,574,cs),
(124,617,ls),
(130,627,o),
(140,627,o),
(146,617,cs),
(173,575,ls),
(177,568,o),
(184,564,o),
(192,564,cs),
(213,564,ls),
(226,564,o),
(230,572,o),
(223,583,cs),
(162,674,ls),
(157,682,o),
(151,684,o),
(143,684,cs),
(126,684,ls),
(118,684,o),
(112,682,o),
(107,674,cs),
(46,583,ls),
(39,572,o),
(43,564,o),
(56,564,cs)
);
}
);
width = 270;
},
{
layerId = "ECACF70C-BE42-4FA5-B3A0-AFDA71FB1D31";
shapes = (
{
closed = 1;
nodes = (
(236,0,ls),
(256,0,o),
(268,12,o),
(268,32,cs),
(268,467,ls),
(268,487,o),
(256,499,o),
(236,499,cs),
(128,499,ls),
(108,499,o),
(96,487,o),
(96,467,cs),
(96,32,ls),
(96,12,o),
(108,0,o),
(128,0,cs)
);
},
{
closed = 1;
nodes = (
(117,556,ls),
(133,556,o),
(145,561,o),
(156,573,cs),
(161,578,ls),
(174,592,o),
(191,591,o),
(205,576,cs),
(208,573,ls),
(219,561,o),
(231,556,o),
(247,556,cs),
(275,556,ls),
(301,556,o),
(307,574,o),
(287,595,cs),
(222,661,ls),
(211,672,o),
(199,678,o),
(183,678,cs),
(181,678,ls),
(165,678,o),
(153,673,o),
(142,661,cs),
(77,595,ls),
(57,574,o),
(63,556,o),
(89,556,cs)
);
}
);
width = 359;
}
);
unicode = 238;
},
{
glyphname = idieresis;
kernLeft = h;
kernRight = i;
lastChange = "2023-08-05 17:19:02 +0000";
layers = (
{
layerId = UUID0;
shapes = (
{
closed = 1;
nodes = (
(155,0,ls),
(165,0,o),
(171,6,o),
(171,16,cs),
(171,483,ls),
(171,493,o),
(165,499,o),
(155,499,cs),
(115,499,ls),
(105,499,o),
(99,493,o),
(99,483,cs),
(99,16,ls),
(99,6,o),
(105,0,o),
(115,0,cs)
);
},
{
closed = 1;
nodes = (
(84,564,ls),
(94,564,o),
(100,570,o),
(100,580,cs),
(100,627,ls),
(100,637,o),
(94,643,o),
(84,643,cs),
(37,643,ls),
(27,643,o),
(21,637,o),
(21,627,cs),
(21,580,ls),
(21,570,o),
(27,564,o),
(37,564,cs)
);
},
{
closed = 1;
nodes = (
(232,564,ls),
(242,564,o),
(248,570,o),
(248,580,cs),
(248,627,ls),
(248,637,o),
(242,643,o),
(232,643,cs),
(185,643,ls),
(175,643,o),
(169,637,o),
(169,627,cs),
(169,580,ls),
(169,570,o),
(175,564,o),
(185,564,cs)
);
}
);
width = 270;
},
{
layerId = "ECACF70C-BE42-4FA5-B3A0-AFDA71FB1D31";
shapes = (
{
closed = 1;
nodes = (
(236,0,ls),
(256,0,o),
(268,12,o),
(268,32,cs),
(268,467,ls),
(268,487,o),
(256,499,o),
(236,499,cs),
(128,499,ls),
(108,499,o),
(96,487,o),
(96,467,cs),
(96,32,ls),
(96,12,o),
(108,0,o),
(128,0,cs)
);
},
{
closed = 1;
nodes = (
(125,556,ls),
(145,556,o),
(157,568,o),
(157,588,cs),
(157,633,ls),
(157,653,o),
(145,665,o),
(125,665,cs),
(69,665,ls),
(49,665,o),
(37,653,o),
(37,633,cs),
(37,588,ls),
(37,568,o),
(49,556,o),
(69,556,cs)
);
},
{
closed = 1;
nodes = (
(295,556,ls),
(315,556,o),
(327,568,o),
(327,588,cs),
(327,633,ls),
(327,653,o),
(315,665,o),
(295,665,cs),
(239,665,ls),
(219,665,o),
(207,653,o),
(207,633,cs),
(207,588,ls),
(207,568,o),
(219,556,o),
(239,556,cs)
);
}
);
width = 359;
}
);
unicode = 239;
},
{
glyphname = idotbelow;
kernRight = i;
lastChange = "2023-08-05 17:19:16 +0000";
layers = (
{
layerId = UUID0;
shapes = (
{
closed = 1;
nodes = (
(155,0,ls),
(165,0,o),
(171,6,o),
(171,16,cs),
(171,483,ls),
(171,493,o),
(165,499,o),
(155,499,cs),
(115,499,ls),
(105,499,o),
(99,493,o),
(99,483,cs),
(99,16,ls),
(99,6,o),
(105,0,o),
(115,0,cs)
);
},
{
closed = 1;
nodes = (
(158,-129,ls),
(168,-129,o),
(174,-123,o),
(174,-113,cs),
(174,-66,ls),
(174,-56,o),
(168,-50,o),
(158,-50,cs),
(111,-50,ls),
(101,-50,o),
(95,-56,o),
(95,-66,cs),
(95,-113,ls),
(95,-123,o),
(101,-129,o),
(111,-129,cs)
);
},
{
closed = 1;
nodes = (
(159,588,ls),
(169,588,o),
(175,594,o),
(175,604,cs),
(175,651,ls),
(175,661,o),
(169,667,o),
(159,667,cs),
(111,667,ls),
(101,667,o),
(95,661,o),
(95,651,cs),
(95,604,ls),
(95,594,o),
(101,588,o),
(111,588,cs)
);
}
);
width = 270;
},
{
layerId = "ECACF70C-BE42-4FA5-B3A0-AFDA71FB1D31";
shapes = (
{
closed = 1;
nodes = (
(236,0,ls),
(256,0,o),
(268,12,o),
(268,32,cs),
(268,467,ls),
(268,487,o),
(256,499,o),
(236,499,cs),
(128,499,ls),
(108,499,o),
(96,487,o),
(96,467,cs),
(96,32,ls),
(96,12,o),
(108,0,o),
(128,0,cs)
);
},
{
closed = 1;
nodes = (
(210,-159,ls),
(230,-159,o),
(242,-147,o),
(242,-127,cs),
(242,-82,ls),
(242,-62,o),
(230,-50,o),
(210,-50,cs),
(154,-50,ls),
(134,-50,o),
(122,-62,o),
(122,-82,cs),
(122,-127,ls),
(122,-147,o),
(134,-159,o),
(154,-159,cs)
);
},
{
closed = 1;
nodes = (
(238,556,ls),
(258,556,o),
(270,568,o),
(270,588,cs),
(270,655,ls),
(270,675,o),
(258,687,o),
(238,687,cs),
(126,687,ls),
(106,687,o),
(94,675,o),
(94,655,cs),
(94,588,ls),
(94,568,o),
(106,556,o),
(126,556,cs)
);
}
);
width = 359;
}
);
unicode = 7883;
},
{
glyphname = igrave;
kernLeft = h;
kernRight = i;
lastChange = "2023-08-05 17:19:26 +0000";
layers = (
{
layerId = UUID0;
shapes = (
{
closed = 1;
nodes = (
(155,0,ls),
(165,0,o),
(171,6,o),
(171,16,cs),
(171,483,ls),
(171,493,o),
(165,499,o),
(155,499,cs),
(115,499,ls),
(105,499,o),
(99,493,o),
(99,483,cs),
(99,16,ls),
(99,6,o),
(105,0,o),
(115,0,cs)
);
},
{
closed = 1;
nodes = (
(138,564,ls),
(150,564,o),
(155,572,o),
(150,583,cs),
(108,667,ls),
(104,675,o),
(98,679,o),
(89,679,cs),
(52,679,ls),
(39,679,o),
(34,670,o),
(42,660,cs),
(104,574,ls),
(109,567,o),
(115,564,o),
(123,564,cs)
);
}
);
width = 270;
},
{
layerId = "ECACF70C-BE42-4FA5-B3A0-AFDA71FB1D31";
shapes = (
{
closed = 1;
nodes = (
(236,0,ls),
(256,0,o),
(268,12,o),
(268,32,cs),
(268,467,ls),
(268,487,o),
(256,499,o),
(236,499,cs),
(128,499,ls),
(108,499,o),
(96,487,o),
(96,467,cs),
(96,32,ls),
(96,12,o),
(108,0,o),
(128,0,cs)
);
},
{
closed = 1;
nodes = (
(181,563,ls),
(206,563,o),
(216,578,o),
(204,601,cs),
(174,657,ls),
(166,673,o),
(153,680,o),
(136,680,cs),
(95,680,ls),
(68,680,o),
(59,663,o),
(76,641,cs),
(123,582,ls),
(133,569,o),
(145,563,o),
(162,563,cs)
);
}
);
width = 359;
}
);
unicode = 236;
},
{
glyphname = ihookabove;
kernRight = i;
lastChange = "2023-08-05 17:27:12 +0000";
layers = (
{
layerId = UUID0;
shapes = (
{
closed = 1;
nodes = (
(155,0,ls),
(165,0,o),
(171,6,o),
(171,16,cs),
(171,483,ls),
(171,493,o),
(165,499,o),
(155,499,cs),
(115,499,ls),
(105,499,o),
(99,493,o),
(99,483,cs),
(99,16,ls),
(99,6,o),
(105,0,o),
(115,0,cs)
);
},
{
closed = 1;
nodes = (
(150,564,l),
(150,588,l),
(187,594,o),
(203,615,o),
(203,641,cs),
(203,695,o),
(153,709,o),
(111,709,cs),
(106,709,o),
(100,709,o),
(95,708,cs),
(85,708,o),
(80,702,o),
(80,692,cs),
(80,680,ls),
(80,669,o),
(86,665,o),
(97,666,cs),
(100,666,o),
(104,666,o),
(107,666,cs),
(137,666,o),
(155,656,o),
(155,639,cs),
(155,630,o),
(145,617,o),
(117,616,c),
(117,564,l)
);
}
);
width = 270;
},
{
layerId = "ECACF70C-BE42-4FA5-B3A0-AFDA71FB1D31";
shapes = (
{
closed = 1;
nodes = (
(236,0,ls),
(256,0,o),
(268,12,o),
(268,32,cs),
(268,467,ls),
(268,487,o),
(256,499,o),
(236,499,cs),
(128,499,ls),
(108,499,o),
(96,487,o),
(96,467,cs),
(96,32,ls),
(96,12,o),
(108,0,o),
(128,0,cs)
);
},
{
closed = 1;
nodes = (
(211,556,l),
(211,579,l),
(211,579,o),
(260,586,o),
(260,634,cs),
(260,682,o),
(218,706,o),
(168,706,cs),
(158,706,o),
(144,705,o),
(133,703,cs),
(123,702,o),
(118,695,o),
(118,686,cs),
(118,666,ls),
(118,655,o),
(124,650,o),
(135,651,cs),
(141,652,o),
(145,652,o),
(149,652,cs),
(163,652,o),
(179,648,o),
(179,631,cs),
(179,618,o),
(164,615,o),
(153,615,c),
(153,556,l)
);
}
);
width = 359;
}
);
unicode = 7881;
},
{
glyphname = imacron;
kernLeft = h;
kernRight = i;
lastChange = "2023-08-05 17:28:00 +0000";
layers = (
{
layerId = UUID0;
shapes = (
{
closed = 1;
nodes = (
(155,0,ls),
(165,0,o),
(171,6,o),
(171,16,cs),
(171,483,ls),
(171,493,o),
(165,499,o),
(155,499,cs),
(115,499,ls),
(105,499,o),
(99,493,o),
(99,483,cs),
(99,16,ls),
(99,6,o),
(105,0,o),
(115,0,cs)
);
},
{
closed = 1;
nodes = (
(235,576,ls),
(245,576,o),
(251,582,o),
(251,592,cs),
(251,613,ls),
(251,623,o),
(245,629,o),
(235,629,cs),
(34,629,ls),
(24,629,o),
(18,623,o),
(18,613,cs),
(18,592,ls),
(18,582,o),
(24,576,o),
(34,576,cs)
);
}
);
width = 270;
},
{
layerId = "ECACF70C-BE42-4FA5-B3A0-AFDA71FB1D31";
shapes = (
{
closed = 1;
nodes = (
(236,0,ls),
(256,0,o),
(268,12,o),
(268,32,cs),
(268,467,ls),
(268,487,o),
(256,499,o),
(236,499,cs),
(128,499,ls),
(108,499,o),
(96,487,o),
(96,467,cs),
(96,32,ls),
(96,12,o),
(108,0,o),
(128,0,cs)
);
},
{
closed = 1;
nodes = (
(267,556,ls),
(287,556,o),
(299,568,o),
(299,588,cs),
(299,612,ls),
(299,632,o),
(287,644,o),
(267,644,cs),
(97,644,ls),
(77,644,o),
(65,632,o),
(65,612,cs),
(65,588,ls),
(65,568,o),
(77,556,o),
(97,556,cs)
);
}
);
width = 359;
}
);
unicode = 299;
},
{
glyphname = iogonek;
kernLeft = h;
kernRight = i;
lastChange = "2023-08-05 17:28:46 +0000";
layers = (
{
anchors = (
{
name = _ogonek;
pos = (178,10);
}
);
layerId = UUID0;
shapes = (
{
closed = 1;
nodes = (
(132,-158,o),
(149,-152,o),
(163,-145,cs),
(169,-142,o),
(172,-135,o),
(172,-127,cs),
(172,-101,ls),
(172,-88,o),
(165,-85,o),
(154,-92,cs),
(144,-98,o),
(131,-104,o),
(117,-104,cs),
(95,-104,o),
(83,-94,o),
(83,-70,cs),
(83,-47,o),
(108,-22,o),
(146,0,cs),
(159,8,o),
(158,17,o),
(143,19,cs),
(117,23,ls),
(110,24,o),
(103,24,o),
(96,20,cs),
(53,-1,o),
(24,-44,o),
(24,-75,cs),
(24,-128,o),
(58,-158,o),
(112,-158,cs)
);
},
{
ref = i;
}
);
width = 240;
},
{
anchors = (
{
name = _ogonek;
pos = (263,11);
}
);
layerId = "ECACF70C-BE42-4FA5-B3A0-AFDA71FB1D31";
shapes = (
{
closed = 1;
nodes = (
(224,-172,o),
(251,-162,o),
(271,-152,cs),
(279,-148,o),
(282,-138,o),
(282,-120,cs),
(282,-96,ls),
(282,-71,o),
(269,-65,o),
(246,-78,cs),
(235,-84,o),
(224,-88,o),
(212,-88,cs),
(192,-88,o),
(177,-82,o),
(177,-52,cs),
(177,-34,o),
(196,-17,o),
(224,-1,cs),
(250,13,o),
(250,30,o),
(223,38,cs),
(193,47,ls),
(178,52,o),
(166,51,o),
(151,45,cs),
(81,15,o),
(34,-19,o),
(34,-71,cs),
(34,-139,o),
(77,-172,o),
(177,-172,cs)
);
},
{
ref = i;
}
);
width = 306;
}
);
unicode = 303;
},
{
glyphname = j;
kernLeft = h;
kernRight = i;
lastChange = "2023-08-05 16:37:23 +0000";
layers = (
{
layerId = UUID0;
shapes = (
{
closed = 1;
nodes = (
(132,-188,o),
(184,-134,o),
(184,-29,cs),
(184,483,ls),
(184,493,o),
(178,499,o),
(168,499,cs),
(128,499,ls),
(118,499,o),
(112,493,o),
(112,483,cs),
(112,-25,ls),
(112,-86,o),
(99,-119,o),
(26,-125,cs),
(16,-126,o),
(10,-132,o),
(10,-142,cs),
(10,-177,ls),
(10,-187,o),
(16,-193,o),
(26,-193,cs)
);
},
{
closed = 1;
nodes = (
(172,588,ls),
(182,588,o),
(188,594,o),
(188,604,cs),
(188,651,ls),
(188,661,o),
(182,667,o),
(172,667,cs),
(124,667,ls),
(114,667,o),
(108,661,o),
(108,651,cs),
(108,604,ls),
(108,594,o),
(114,588,o),
(124,588,cs)
);
}
);
width = 268;
},
{
layerId = "ECACF70C-BE42-4FA5-B3A0-AFDA71FB1D31";
shapes = (
{
closed = 1;
nodes = (
(161,-186,o),
(259,-140,o),
(259,7,cs),
(257,477,ls),
(257,497,o),
(245,509,o),
(225,509,cs),
(107,509,ls),
(87,509,o),
(75,497,o),
(75,477,cs),
(75,5,ls),
(75,-26,o),
(60,-45,o),
(36,-50,cs),
(16,-54,o),
(5,-60,o),
(5,-80,cs),
(5,-161,ls),
(5,-182,o),
(17,-193,o),
(38,-192,cs)
);
},
{
closed = 1;
nodes = (
(227,579,ls),
(247,579,o),
(259,591,o),
(259,611,cs),
(259,678,ls),
(259,698,o),
(247,710,o),
(227,710,cs),
(105,710,ls),
(85,710,o),
(73,698,o),
(73,678,cs),
(73,611,ls),
(73,591,o),
(85,579,o),
(105,579,cs)
);
}
);
width = 319;
}
);
metricRight = n;
unicode = 106;
},
{
glyphname = dotlessj;
kernLeft = h;
kernRight = i;
lastChange = "2023-08-05 17:29:09 +0000";
layers = (
{
layerId = UUID0;
shapes = (
{
closed = 1;
nodes = (
(125,-188,o),
(177,-134,o),
(177,-29,cs),
(177,483,ls),
(177,493,o),
(171,499,o),
(161,499,cs),
(121,499,ls),
(111,499,o),
(105,493,o),
(105,483,cs),
(105,-25,ls),
(105,-86,o),
(92,-119,o),
(19,-125,cs),
(9,-126,o),
(3,-132,o),
(3,-142,cs),
(3,-177,ls),
(3,-187,o),
(9,-193,o),
(19,-193,cs)
);
}
);
width = 251;
},
{
layerId = "ECACF70C-BE42-4FA5-B3A0-AFDA71FB1D31";
shapes = (
{
closed = 1;
nodes = (
(159,-186,o),
(257,-140,o),
(257,7,cs),
(257,467,ls),
(257,487,o),
(245,499,o),
(225,499,cs),
(117,499,ls),
(97,499,o),
(85,487,o),
(85,467,cs),
(85,-8,ls),
(85,-47,o),
(61,-61,o),
(34,-67,cs),
(14,-70,o),
(3,-80,o),
(3,-100,cs),
(3,-161,ls),
(3,-182,o),
(15,-193,o),
(36,-192,cs)
);
}
);
width = 330;
}
);
unicode = 567;
},
{
glyphname = jcircumflex;
kernLeft = h;
kernRight = i;
lastChange = "2023-08-05 17:29:32 +0000";
layers = (
{
layerId = UUID0;
shapes = (
{
closed = 1;
nodes = (
(125,-188,o),
(177,-134,o),
(177,-29,cs),
(177,483,ls),
(177,493,o),
(171,499,o),
(161,499,cs),
(121,499,ls),
(111,499,o),
(105,493,o),
(105,483,cs),
(105,-25,ls),
(105,-86,o),
(92,-119,o),
(19,-125,cs),
(9,-126,o),
(3,-132,o),
(3,-142,cs),
(3,-177,ls),
(3,-187,o),
(9,-193,o),
(19,-193,cs)
);
},
{
closed = 1;
nodes = (
(84,564,ls),
(92,564,o),
(99,568,o),
(103,575,cs),
(130,617,ls),
(136,627,o),
(146,627,o),
(152,617,cs),
(179,575,ls),
(183,568,o),
(190,564,o),
(198,564,cs),
(219,564,ls),
(232,564,o),
(236,572,o),
(229,583,cs),
(169,674,ls),
(164,682,o),
(158,684,o),
(150,684,cs),
(132,684,ls),
(124,684,o),
(118,682,o),
(113,674,cs),
(53,583,ls),
(46,572,o),
(50,564,o),
(63,564,cs)
);
}
);
width = 251;
},
{
layerId = "ECACF70C-BE42-4FA5-B3A0-AFDA71FB1D31";
shapes = (
{
closed = 1;
nodes = (
(159,-186,o),
(257,-140,o),
(257,7,cs),
(257,467,ls),
(257,487,o),
(245,499,o),
(225,499,cs),
(117,499,ls),
(97,499,o),
(85,487,o),
(85,467,cs),
(85,-8,ls),
(85,-47,o),
(61,-61,o),
(34,-67,cs),
(14,-70,o),
(3,-80,o),
(3,-100,cs),
(3,-161,ls),
(3,-182,o),
(15,-193,o),
(36,-192,cs)
);
},
{
closed = 1;
nodes = (
(106,556,ls),
(122,556,o),
(134,561,o),
(145,573,cs),
(150,578,ls),
(163,592,o),
(180,591,o),
(194,576,cs),
(197,573,ls),
(208,561,o),
(220,556,o),
(236,556,cs),
(264,556,ls),
(290,556,o),
(296,574,o),
(276,595,cs),
(211,661,ls),
(200,672,o),
(188,678,o),
(172,678,cs),
(170,678,ls),
(154,678,o),
(142,673,o),
(131,661,cs),
(66,595,ls),
(46,574,o),
(52,556,o),
(78,556,cs)
);
}
);
width = 324;
}
);
unicode = 309;
},
{
glyphname = k;
kernLeft = h;
kernRight = k;
lastChange = "2023-08-05 17:29:49 +0000";
layers = (
{
layerId = UUID0;
shapes = (
{
closed = 1;
nodes = (
(152,240,l),
(423,479,ls),
(434,489,o),
(429,499,o),
(415,499,cs),
(366,499,ls),
(358,499,o),
(353,497,o),
(347,491,cs),
(136,299,l)
);
},
{
closed = 1;
nodes = (
(152,673,ls),
(152,683,o),
(146,689,o),
(136,689,cs),
(96,689,ls),
(86,689,o),
(80,683,o),
(80,673,cs),
(80,16,ls),
(80,6,o),
(86,0,o),
(96,0,cs),
(136,0,ls),
(146,0,o),
(152,6,o),
(152,16,cs)
);
},
{
closed = 1;
nodes = (
(123,265,l),
(377,8,ls),
(383,2,o),
(389,0,o),
(397,0,cs),
(453,0,ls),
(467,0,o),
(471,10,o),
(461,20,cs),
(172,311,l)
);
}
);
width = 511;
},
{
layerId = "ECACF70C-BE42-4FA5-B3A0-AFDA71FB1D31";
shapes = (
{
closed = 1;
nodes = (
(317,196,l),
(559,470,ls),
(577,491,o),
(570,509,o),
(542,509,cs),
(398,509,ls),
(381,509,o),
(370,503,o),
(360,489,cs),
(202,271,l)
);
},
{
closed = 1;
nodes = (
(243,668,ls),
(243,688,o),
(231,700,o),
(211,700,cs),
(92,700,ls),
(72,700,o),
(60,688,o),
(60,668,cs),
(60,32,ls),
(60,12,o),
(72,0,o),
(92,0,cs),
(208,0,ls),
(228,0,o),
(240,12,o),
(240,32,cs)
);
},
{
closed = 1;
nodes = (
(217,233,l),
(354,21,ls),
(363,6,o),
(376,0,o),
(393,0,cs),
(549,0,ls),
(575,0,o),
(584,18,o),
(569,39,cs),
(348,358,l)
);
}
);
width = 621;
}
);
metricLeft = n;
unicode = 107;
},
{
glyphname = kcommaaccent;
kernLeft = h;
kernRight = k;
lastChange = "2023-08-05 17:30:17 +0000";
layers = (
{
layerId = UUID0;
shapes = (
{
closed = 1;
nodes = (
(148,0,ls),
(158,0,o),
(164,6,o),
(164,16,cs),
(164,152,l),
(226,219,l),
(410,9,ls),
(415,3,o),
(422,0,o),
(430,0,cs),
(487,0,ls),
(501,0,o),
(505,10,o),
(496,20,cs),
(273,270,l),
(468,479,ls),
(477,489,o),
(473,499,o),
(459,499,cs),
(401,499,ls),
(393,499,o),
(386,496,o),
(381,490,cs),
(164,254,l),
(164,673,ls),
(164,683,o),
(158,689,o),
(148,689,cs),
(108,689,ls),
(98,689,o),
(92,683,o),
(92,673,cs),
(92,16,ls),
(92,6,o),
(98,0,o),
(108,0,cs)
);
},
{
closed = 1;
nodes = (
(266,-174,o),
(303,-142,o),
(311,-77,cs),
(314,-59,o),
(307,-49,o),
(297,-49,cs),
(269,-49,ls),
(259,-49,o),
(253,-54,o),
(253,-65,cs),
(251,-89,o),
(246,-118,o),
(223,-133,cs),
(216,-138,o),
(212,-143,o),
(212,-152,cs),
(212,-174,ls),
(212,-185,o),
(219,-192,o),
(230,-188,cs)
);
}
);
width = 549;
},
{
layerId = "ECACF70C-BE42-4FA5-B3A0-AFDA71FB1D31";
shapes = (
{
closed = 1;
nodes = (
(227,0,ls),
(247,0,o),
(259,12,o),
(259,32,cs),
(259,143,l),
(276,161,l),
(383,19,ls),
(393,5,o),
(405,0,o),
(422,0,cs),
(556,0,ls),
(583,0,o),
(591,17,o),
(574,39,cs),
(381,279,l),
(548,460,ls),
(567,480,o),
(558,499,o),
(530,499,cs),
(388,499,ls),
(372,499,o),
(359,493,o),
(348,481,cs),
(259,378,l),
(259,654,ls),
(259,674,o),
(247,686,o),
(227,686,cs),
(119,686,ls),
(99,686,o),
(87,674,o),
(87,654,cs),
(87,32,ls),
(87,12,o),
(99,0,o),
(119,0,cs)
);
},
{
closed = 1;
nodes = (
(328,-177,o),
(365,-137,o),
(376,-86,cs),
(381,-63,o),
(367,-50,o),
(346,-50,cs),
(315,-50,ls),
(295,-50,o),
(286,-61,o),
(283,-82,cs),
(281,-98,o),
(276,-110,o),
(268,-118,cs),
(256,-130,o),
(246,-138,o),
(246,-155,cs),
(246,-162,ls),
(246,-182,o),
(259,-195,o),
(280,-190,cs)
);
}
);
width = 644;
}
);
unicode = 311;
},
{
glyphname = kgreenlandic;
kernLeft = h;
lastChange = "2023-08-05 17:30:32 +0000";
layers = (
{
layerId = UUID0;
shapes = (
{
closed = 1;
nodes = (
(148,0,ls),
(158,0,o),
(164,6,o),
(164,16,cs),
(164,152,l),
(226,219,l),
(410,9,ls),
(415,3,o),
(422,0,o),
(430,0,cs),
(487,0,ls),
(501,0,o),
(505,10,o),
(496,20,cs),
(273,270,l),
(468,479,ls),
(477,489,o),
(473,499,o),
(459,499,cs),
(401,499,ls),
(393,499,o),
(386,496,o),
(381,490,cs),
(164,254,l),
(164,483,ls),
(164,493,o),
(158,499,o),
(148,499,cs),
(108,499,ls),
(98,499,o),
(92,493,o),
(92,483,cs),
(92,16,ls),
(92,6,o),
(98,0,o),
(108,0,cs)
);
}
);
width = 549;
},
{
layerId = "ECACF70C-BE42-4FA5-B3A0-AFDA71FB1D31";
shapes = (
{
closed = 1;
nodes = (
(227,0,ls),
(247,0,o),
(259,12,o),
(259,32,cs),
(259,143,l),
(276,161,l),
(383,19,ls),
(393,5,o),
(405,0,o),
(422,0,cs),
(556,0,ls),
(583,0,o),
(591,17,o),
(574,39,cs),
(381,279,l),
(548,460,ls),
(567,480,o),
(558,499,o),
(530,499,cs),
(388,499,ls),
(372,499,o),
(359,493,o),
(348,481,cs),
(259,378,l),
(259,467,ls),
(259,487,o),
(247,499,o),
(227,499,cs),
(119,499,ls),
(99,499,o),
(87,487,o),
(87,467,cs),
(87,32,ls),
(87,12,o),
(99,0,o),
(119,0,cs)
);
}
);
width = 644;
}
);
unicode = 312;
},
{
glyphname = l;
kernLeft = h;
kernRight = i;
lastChange = "2023-08-05 17:30:45 +0000";
layers = (
{
anchors = (
{
name = bottom;
pos = (116,0);
},
{
name = center;
pos = (256,320);
},
{
name = top;
pos = (116,689);
},
{
name = topright;
pos = (207,499);
}
);
layerId = UUID0;
shapes = (
{
closed = 1;
nodes = (
(152,673,ls),
(152,683,o),
(146,689,o),
(136,689,cs),
(96,689,ls),
(86,689,o),
(80,683,o),
(80,673,cs),
(80,16,ls),
(80,6,o),
(86,0,o),
(96,0,cs),
(136,0,ls),
(146,0,o),
(152,6,o),
(152,16,cs)
);
}
);
width = 232;
},
{
anchors = (
{
name = bottom;
pos = (150,0);
},
{
name = center;
pos = (340,389);
},
{
name = top;
pos = (150,667);
},
{
name = topright;
pos = (270,499);
}
);
layerId = "ECACF70C-BE42-4FA5-B3A0-AFDA71FB1D31";
shapes = (
{
closed = 1;
nodes = (
(240,668,ls),
(240,688,o),
(228,700,o),
(208,700,cs),
(92,700,ls),
(72,700,o),
(60,688,o),
(60,668,cs),
(60,32,ls),
(60,12,o),
(72,0,o),
(92,0,cs),
(208,0,ls),
(228,0,o),
(240,12,o),
(240,32,cs)
);
}
);
width = 300;
}
);
metricLeft = n;
metricRight = n;
unicode = 108;
},
{
glyphname = lcaron;
kernLeft = h;
kernRight = i;
lastChange = "2023-08-05 17:31:11 +0000";
layers = (
{
layerId = UUID0;
shapes = (
{
closed = 1;
nodes = (
(157,0,ls),
(167,0,o),
(173,6,o),
(173,16,cs),
(173,673,ls),
(173,683,o),
(167,689,o),
(157,689,cs),
(117,689,ls),
(107,689,o),
(101,683,o),
(101,673,cs),
(101,16,ls),
(101,6,o),
(107,0,o),
(117,0,cs)
);
},
{
closed = 1;
nodes = (
(260,565,o),
(297,598,o),
(305,661,cs),
(308,679,o),
(301,689,o),
(291,689,cs),
(263,689,ls),
(253,689,o),
(247,684,o),
(247,673,cs),
(245,650,o),
(240,621,o),
(219,606,cs),
(211,601,o),
(207,596,o),
(207,587,cs),
(207,565,ls),
(207,554,o),
(214,547,o),
(225,551,cs)
);
}
);
width = 270;
},
{
layerId = "ECACF70C-BE42-4FA5-B3A0-AFDA71FB1D31";
shapes = (
{
closed = 1;
nodes = (
(241,0,ls),
(261,0,o),
(273,12,o),
(273,32,cs),
(273,657,ls),
(273,677,o),
(261,689,o),
(241,689,cs),
(133,689,ls),
(113,689,o),
(101,677,o),
(101,657,cs),
(101,32,ls),
(101,12,o),
(113,0,o),
(133,0,cs)
);
},
{
closed = 1;
nodes = (
(408,562,o),
(445,602,o),
(456,653,cs),
(461,676,o),
(447,689,o),
(426,689,cs),
(395,689,ls),
(375,689,o),
(366,678,o),
(363,657,cs),
(361,641,o),
(356,629,o),
(348,621,cs),
(336,609,o),
(326,601,o),
(326,584,cs),
(326,578,ls),
(326,558,o),
(339,544,o),
(360,549,cs)
);
}
);
width = 417;
}
);
unicode = 318;
},
{
glyphname = ldot;
kernLeft = h;
lastChange = "2023-08-05 17:31:27 +0000";
layers = (
{
anchors = (
{
name = bottom;
pos = (116,0);
},
{
name = center;
pos = (274,329);
},
{
name = top;
pos = (116,689);
},
{
name = topright;
pos = (207,499);
}
);
layerId = UUID0;
shapes = (
{
closed = 1;
nodes = (
(152,673,ls),
(152,683,o),
(146,689,o),
(136,689,cs),
(96,689,ls),
(86,689,o),
(80,683,o),
(80,673,cs),
(80,16,ls),
(80,6,o),
(86,0,o),
(96,0,cs),
(136,0,ls),
(146,0,o),
(152,6,o),
(152,16,cs)
);
},
{
closed = 1;
nodes = (
(299,286,ls),
(309,286,o),
(315,292,o),
(315,302,cs),
(315,350,ls),
(315,360,o),
(309,366,o),
(299,366,cs),
(252,366,ls),
(242,366,o),
(236,360,o),
(236,350,cs),
(236,302,ls),
(236,292,o),
(242,286,o),
(252,286,cs)
);
}
);
width = 325;
},
{
anchors = (
{
name = bottom;
pos = (150,0);
},
{
name = center;
pos = (379,349);
},
{
name = top;
pos = (150,667);
},
{
name = topright;
pos = (270,499);
}
);
layerId = "ECACF70C-BE42-4FA5-B3A0-AFDA71FB1D31";
shapes = (
{
closed = 1;
nodes = (
(240,668,ls),
(240,688,o),
(228,700,o),
(208,700,cs),
(92,700,ls),
(72,700,o),
(60,688,o),
(60,668,cs),
(60,32,ls),
(60,12,o),
(72,0,o),
(92,0,cs),
(208,0,ls),
(228,0,o),
(240,12,o),
(240,32,cs)
);
},
{
closed = 1;
nodes = (
(421,278,ls),
(441,278,o),
(453,290,o),
(453,310,cs),
(453,384,ls),
(453,404,o),
(441,416,o),
(421,416,cs),
(341,416,ls),
(321,416,o),
(309,404,o),
(309,384,cs),
(309,310,ls),
(309,290,o),
(321,278,o),
(341,278,cs)
);
}
);
width = 478;
}
);
unicode = 320;
},
{
glyphname = lslash;
lastChange = "2023-08-05 17:31:49 +0000";
layers = (
{
layerId = UUID0;
shapes = (
{
closed = 1;
nodes = (
(157,0,ls),
(167,0,o),
(173,6,o),
(173,16,cs),
(173,388,l),
(241,433,ls),
(248,438,o),
(251,444,o),
(251,452,cs),
(251,481,ls),
(251,494,o),
(243,499,o),
(232,491,cs),
(173,452,l),
(173,673,ls),
(173,683,o),
(167,689,o),
(157,689,cs),
(117,689,ls),
(107,689,o),
(101,683,o),
(101,673,cs),
(101,403,l),
(45,366,ls),
(38,361,o),
(35,355,o),
(35,347,cs),
(35,318,ls),
(35,305,o),
(43,300,o),
(54,308,cs),
(101,339,l),
(101,16,ls),
(101,6,o),
(107,0,o),
(117,0,cs)
);
}
);
width = 270;
},
{
layerId = "ECACF70C-BE42-4FA5-B3A0-AFDA71FB1D31";
shapes = (
{
closed = 1;
nodes = (
(256,0,ls),
(276,0,o),
(288,12,o),
(288,32,cs),
(288,310,l),
(396,370,ls),
(411,378,o),
(418,391,o),
(418,408,cs),
(418,460,ls),
(418,485,o),
(402,495,o),
(380,483,cs),
(288,432,l),
(288,657,ls),
(288,677,o),
(276,689,o),
(256,689,cs),
(148,689,ls),
(128,689,o),
(116,677,o),
(116,657,cs),
(116,338,l),
(40,296,ls),
(25,288,o),
(18,275,o),
(18,258,cs),
(18,206,ls),
(18,181,o),
(34,171,o),
(56,183,cs),
(116,216,l),
(116,32,ls),
(116,12,o),
(128,0,o),
(148,0,cs)
);
}
);
width = 431;
}
);
unicode = 322;
},
{
glyphname = m;
kernLeft = m;
kernRight = h;
lastChange = "2023-08-05 17:32:11 +0000";
layers = (
{
anchors = (
{
name = bottom;
pos = (442,0);
},
{
name = top;
pos = (442,499);
}
);
layerId = UUID0;
shapes = (
{
closed = 1;
nodes = (
(489,441,o),
(436,508,o),
(291,508,cs),
(220,508,o),
(153,494,o),
(92,465,cs),
(84,461,o),
(80,455,o),
(80,446,cs),
(80,16,ls),
(80,6,o),
(86,0,o),
(96,0,cs),
(136,0,ls),
(146,0,o),
(152,6,o),
(152,16,cs),
(152,409,ls),
(152,418,o),
(156,424,o),
(166,427,cs),
(206,437,o),
(245,443,o),
(283,443,cs),
(403,443,o),
(417,372,o),
(417,325,cs),
(417,16,ls),
(417,6,o),
(423,0,o),
(433,0,cs),
(473,0,ls),
(483,0,o),
(489,6,o),
(489,16,cs),
(489,325,ls)
);
},
{
closed = 1;
nodes = (
(466,403,l),
(511,432,o),
(555,443,o),
(597,443,cs),
(717,443,o),
(731,372,o),
(731,325,cs),
(731,16,ls),
(731,6,o),
(737,0,o),
(747,0,cs),
(787,0,ls),
(797,0,o),
(803,6,o),
(803,16,cs),
(803,325,ls),
(803,441,o),
(750,508,o),
(605,508,cs),
(530,508,o),
(459,488,o),
(394,439,c)
);
}
);
width = 883;
},
{
anchors = (
{
name = bottom;
pos = (465,0);
},
{
name = top;
pos = (465,499);
}
);
background = {
shapes = (
{
closed = 1;
nodes = (
(238,0,l),
(238,367,l),
(249,370,o),
(283,376,o),
(298,376,cs),
(354,376,o),
(363,333,o),
(363,303,cs),
(363,0,l),
(535,0,l),
(535,294,ls),
(535,318,o),
(527,353,o),
(522,368,c),
(537,373,o),
(575,378,o),
(591,378,cs),
(649,378,o),
(660,333,o),
(660,301,cs),
(660,0,l),
(832,0,l),
(832,294,ls),
(832,435,o),
(745,506,o),
(608,506,cs),
(550,506,o),
(473,490,o),
(435,477,c),
(402,496,o),
(361,506,o),
(313,506,cs),
(181,506,o),
(70,455,o),
(66,454,c),
(66,0,l)
);
}
);
};
layerId = "ECACF70C-BE42-4FA5-B3A0-AFDA71FB1D31";
shapes = (
{
closed = 1;
nodes = (
(556,487,o),
(476,525,o),
(344,525,cs),
(266,525,o),
(144,498,o),
(84,476,cs),
(67,469,o),
(60,457,o),
(60,439,cs),
(60,32,ls),
(60,12,o),
(72,0,o),
(92,0,cs),
(210,0,ls),
(230,0,o),
(242,12,o),
(242,32,cs),
(242,338,ls),
(242,354,o),
(246,368,o),
(262,373,cs),
(270,375,o),
(280,377,o),
(291,377,cs),
(344,377,o),
(374,357,o),
(374,303,cs),
(374,32,ls),
(374,12,o),
(386,0,o),
(406,0,cs),
(524,0,ls),
(544,0,o),
(556,12,o),
(556,32,cs),
(556,347,ls)
);
},
{
closed = 1;
nodes = (
(556,361,l),
(560,368,o),
(579,377,o),
(605,377,cs),
(658,377,o),
(688,357,o),
(688,303,cs),
(688,32,ls),
(688,12,o),
(700,0,o),
(720,0,cs),
(838,0,ls),
(858,0,o),
(870,12,o),
(870,32,cs),
(870,347,ls),
(870,487,o),
(790,525,o),
(658,525,cs),
(567,525,o),
(437,480,o),
(378,425,c)
);
}
);
width = 930;
}
);
metricLeft = n;
metricRight = n;
unicode = 109;
},
{
glyphname = n;
kernLeft = m;
kernRight = h;
lastChange = "2023-08-05 17:32:34 +0000";
layers = (
{
anchors = (
{
name = bottom;
pos = (286,0);
},
{
name = top;
pos = (286,499);
}
);
layerId = UUID0;
shapes = (
{
closed = 1;
nodes = (
(80,16,ls),
(80,6,o),
(86,0,o),
(96,0,cs),
(136,0,ls),
(146,0,o),
(152,6,o),
(152,16,cs),
(152,409,ls),
(152,418,o),
(156,424,o),
(166,427,cs),
(206,437,o),
(245,443,o),
(283,443,cs),
(403,443,o),
(417,372,o),
(417,325,cs),
(417,16,ls),
(417,6,o),
(423,0,o),
(433,0,cs),
(473,0,ls),
(483,0,o),
(489,6,o),
(489,16,cs),
(489,325,ls),
(489,441,o),
(436,508,o),
(291,508,cs),
(220,508,o),
(153,494,o),
(92,465,cs),
(84,461,o),
(80,455,o),
(80,446,cs)
);
}
);
width = 569;
},
{
anchors = (
{
name = bottom;
pos = (311,0);
},
{
name = top;
pos = (311,519);
}
);
layerId = "ECACF70C-BE42-4FA5-B3A0-AFDA71FB1D31";
shapes = (
{
closed = 1;
nodes = (
(60,32,ls),
(60,12,o),
(72,0,o),
(92,0,cs),
(210,0,ls),
(230,0,o),
(242,12,o),
(242,32,cs),
(242,337,ls),
(242,354,o),
(247,367,o),
(263,372,cs),
(274,375,o),
(288,377,o),
(301,377,cs),
(354,377,o),
(384,357,o),
(384,303,cs),
(384,32,ls),
(384,12,o),
(396,0,o),
(416,0,cs),
(534,0,ls),
(554,0,o),
(566,12,o),
(566,32,cs),
(566,347,ls),
(566,487,o),
(476,525,o),
(344,525,cs),
(266,525,o),
(144,498,o),
(84,476,cs),
(67,469,o),
(60,457,o),
(60,439,cs)
);
}
);
width = 626;
}
);
unicode = 110;
},
{
glyphname = napostrophe;
kernLeft = m;
kernRight = h;
lastChange = "2023-08-05 17:33:09 +0000";
layers = (
{
layerId = UUID0;
shapes = (
{
closed = 1;
nodes = (
(138,0,ls),
(148,0,o),
(154,6,o),
(154,16,cs),
(154,402,ls),
(154,411,o),
(158,417,o),
(167,420,cs),
(200,428,o),
(240,436,o),
(286,436,cs),
(406,436,o),
(419,372,o),
(419,325,cs),
(419,16,ls),
(419,6,o),
(425,0,o),
(435,0,cs),
(475,0,ls),
(485,0,o),
(491,6,o),
(491,16,cs),
(491,325,ls),
(491,441,o),
(419,508,o),
(293,508,cs),
(203,508,o),
(127,480,o),
(94,465,cs),
(86,461,o),
(82,455,o),
(82,446,cs),
(82,16,ls),
(82,6,o),
(88,0,o),
(98,0,cs)
);
},
{
closed = 1;
nodes = (
(85,539,o),
(123,572,o),
(131,636,cs),
(134,654,o),
(127,664,o),
(117,664,cs),
(89,664,ls),
(79,664,o),
(73,659,o),
(73,648,cs),
(71,624,o),
(66,595,o),
(43,580,cs),
(36,575,o),
(32,570,o),
(32,561,cs),
(32,539,ls),
(32,528,o),
(39,521,o),
(50,525,cs)
);
}
);
width = 581;
},
{
layerId = "ECACF70C-BE42-4FA5-B3A0-AFDA71FB1D31";
shapes = (
{
closed = 1;
nodes = (
(222,0,ls),
(242,0,o),
(254,12,o),
(254,32,cs),
(254,341,ls),
(254,360,o),
(263,373,o),
(283,375,cs),
(289,376,o),
(296,376,o),
(304,376,cs),
(383,376,o),
(388,344,o),
(388,321,cs),
(388,32,ls),
(388,12,o),
(400,0,o),
(420,0,cs),
(528,0,ls),
(548,0,o),
(560,12,o),
(560,32,cs),
(560,294,ls),
(560,427,o),
(471,506,o),
(330,506,cs),
(230,506,o),
(145,475,o),
(106,457,cs),
(89,450,o),
(82,438,o),
(82,420,cs),
(82,32,ls),
(82,12,o),
(94,0,o),
(114,0,cs)
);
},
{
closed = 1;
nodes = (
(117,537,o),
(154,577,o),
(165,628,cs),
(170,651,o),
(156,664,o),
(135,664,cs),
(104,664,ls),
(84,664,o),
(75,653,o),
(72,632,cs),
(70,616,o),
(65,604,o),
(57,596,cs),
(45,584,o),
(35,576,o),
(35,559,cs),
(35,553,ls),
(35,533,o),
(48,519,o),
(69,524,cs)
);
}
);
width = 647;
}
);
unicode = 329;
},
{
glyphname = nhookleft;
lastChange = "2023-08-05 17:33:39 +0000";
layers = (
{
anchors = (
{
name = bottom;
pos = (286,0);
},
{
name = top;
pos = (286,499);
}
);
layerId = UUID0;
shapes = (
{
closed = 1;
nodes = (
(80,-56,o),
(67,-89,o),
(-2,-96,cs),
(-15,-97,o),
(-22,-103,o),
(-22,-113,cs),
(-22,-148,ls),
(-22,-158,o),
(-16,-164,o),
(-6,-164,cs),
(100,-159,o),
(152,-105,o),
(152,0,cs),
(152,409,ls),
(152,418,o),
(156,424,o),
(166,427,cs),
(206,437,o),
(245,443,o),
(283,443,cs),
(403,443,o),
(417,372,o),
(417,325,cs),
(417,16,ls),
(417,6,o),
(423,0,o),
(433,0,cs),
(473,0,ls),
(483,0,o),
(489,6,o),
(489,16,cs),
(489,325,ls),
(489,441,o),
(436,508,o),
(291,508,cs),
(220,508,o),
(153,494,o),
(92,465,cs),
(84,461,o),
(80,455,o),
(80,446,cs),
(80,4,ls)
);
}
);
width = 569;
},
{
anchors = (
{
name = bottom;
pos = (311,0);
},
{
name = top;
pos = (311,499);
}
);
layerId = "ECACF70C-BE42-4FA5-B3A0-AFDA71FB1D31";
shapes = (
{
closed = 1;
nodes = (
(60,-27,o),
(44,-46,o),
(20,-50,cs),
(1,-54,o),
(-10,-60,o),
(-10,-80,cs),
(-10,-161,ls),
(-10,-182,o),
(2,-193,o),
(23,-192,cs),
(146,-186,o),
(242,-140,o),
(242,7,cs),
(242,337,ls),
(242,354,o),
(247,367,o),
(263,372,cs),
(274,375,o),
(288,377,o),
(301,377,cs),
(354,377,o),
(384,357,o),
(384,303,cs),
(384,32,ls),
(384,12,o),
(396,0,o),
(416,0,cs),
(534,0,ls),
(554,0,o),
(566,12,o),
(566,32,cs),
(566,347,ls),
(566,487,o),
(476,525,o),
(344,525,cs),
(266,525,o),
(144,498,o),
(84,476,cs),
(67,469,o),
(60,457,o),
(60,439,cs),
(60,5,ls)
);
}
);
width = 626;
}
);
unicode = 626;
},
{
glyphname = eng;
kernLeft = m;
kernRight = h;
lastChange = "2023-08-05 17:34:09 +0000";
layers = (
{
layerId = UUID0;
shapes = (
{
closed = 1;
nodes = (
(138,0,ls),
(148,0,o),
(154,6,o),
(154,16,cs),
(154,402,ls),
(154,411,o),
(158,417,o),
(167,420,cs),
(200,428,o),
(240,436,o),
(286,436,cs),
(406,436,o),
(419,372,o),
(419,325,cs),
(419,-4,ls),
(419,-65,o),
(406,-99,o),
(333,-104,cs),
(323,-105,o),
(317,-111,o),
(317,-121,cs),
(317,-156,ls),
(317,-166,o),
(323,-172,o),
(333,-172,cs),
(439,-167,o),
(491,-114,o),
(491,-9,cs),
(491,325,ls),
(491,441,o),
(419,508,o),
(293,508,cs),
(203,508,o),
(127,480,o),
(94,465,cs),
(86,461,o),
(82,455,o),
(82,446,cs),
(82,16,ls),
(82,6,o),
(88,0,o),
(98,0,cs)
);
}
);
width = 581;
},
{
layerId = "ECACF70C-BE42-4FA5-B3A0-AFDA71FB1D31";
shapes = (
{
closed = 1;
nodes = (
(202,0,ls),
(222,0,o),
(234,12,o),
(234,32,cs),
(234,308,ls),
(234,324,o),
(238,337,o),
(253,345,cs),
(262,349,o),
(274,353,o),
(286,353,cs),
(339,353,o),
(360,323,o),
(360,269,cs),
(360,2,ls),
(360,-37,o),
(336,-51,o),
(309,-57,cs),
(289,-60,o),
(278,-70,o),
(278,-90,cs),
(278,-161,ls),
(278,-182,o),
(289,-193,o),
(311,-192,cs),
(435,-187,o),
(538,-147,o),
(538,0,cs),
(538,331,ls),
(538,467,o),
(432,506,o),
(300,506,cs),
(220,506,o),
(126,463,o),
(75,427,cs),
(61,417,o),
(56,405,o),
(56,388,cs),
(56,32,ls),
(56,12,o),
(68,0,o),
(88,0,cs)
);
}
);
width = 639;
}
);
unicode = 331;
},
{
glyphname = o;
kernLeft = c;
kernRight = b;
lastChange = "2016-09-07 23:13:31 +0000";
layers = (
{
anchors = (
{
name = bottom;
pos = (287,0);
},
{
name = center;
pos = (287,250);
},
{
name = ogonek;
pos = (402,10);
},
{
name = top;
pos = (287,499);
},
{
name = topright;
pos = (415,522);
}
);
layerId = UUID0;
shapes = (
{
closed = 1;
nodes = (
(432,-15,o),
(514,84,o),
(514,248,c),
(514,403,o),
(444,508,o),
(283,508,c),
(137,508,o),
(55,421,o),
(55,248,c),
(55,82,o),
(129,-15,o),
(285,-15,c)
);
},
{
closed = 1;
nodes = (
(168,51,o),
(127,130,o),
(127,248,c),
(127,357,o),
(164,442,o),
(284,442,c),
(401,442,o),
(442,366,o),
(442,248,c),
(442,138,o),
(405,51,o),
(284,51,c)
);
}
);
width = 569;
},
{
anchors = (
{
name = bottom;
pos = (300,0);
},
{
name = center;
pos = (300,250);
},
{
name = ogonek;
pos = (447,10);
},
{
name = top;
pos = (300,529);
},
{
name = topright;
pos = (521,490);
}
);
layerId = "ECACF70C-BE42-4FA5-B3A0-AFDA71FB1D31";
shapes = (
{
closed = 1;
nodes = (
(472,-15,o),
(569,75,o),
(569,258,c),
(569,456,o),
(472,529,o),
(298,529,c),
(121,529,o),
(30,456,o),
(30,258,c),
(30,75,o),
(121,-15,o),
(298,-15,c)
);
},
{
closed = 1;
nodes = (
(241,127,o),
(210,163,o),
(210,258,c),
(210,367,o),
(241,389,o),
(298,389,c),
(351,389,o),
(389,367,o),
(389,258,c),
(389,165,o),
(351,127,o),
(298,127,c)
);
}
);
width = 599;
}
);
unicode = 111;
},
{
glyphname = oslash;
kernLeft = oslash;
kernRight = oslash;
lastChange = "2023-08-05 17:36:11 +0000";
layers = (
{
anchors = (
{
name = top;
pos = (287,499);
}
);
layerId = UUID0;
shapes = (
{
closed = 1;
nodes = (
(519,479,ls),
(528,489,o),
(523,499,o),
(510,499,cs),
(470,499,ls),
(462,499,o),
(455,496,o),
(450,490,cs),
(54,20,ls),
(45,10,o),
(50,0,o),
(63,0,cs),
(103,0,ls),
(111,0,o),
(118,3,o),
(123,9,cs)
);
},
{
ref = o;
}
);
width = 574;
},
{
anchors = (
{
name = top;
pos = (307,499);
}
);
layerId = "ECACF70C-BE42-4FA5-B3A0-AFDA71FB1D31";
shapes = (
{
closed = 1;
nodes = (
(566,460,ls),
(584,481,o),
(575,499,o),
(548,499,cs),
(463,499,ls),
(447,499,o),
(435,493,o),
(424,481,cs),
(45,39,ls),
(27,18,o),
(36,0,o),
(63,0,cs),
(147,0,ls),
(163,0,o),
(175,6,o),
(186,18,cs)
);
},
{
ref = o;
}
);
width = 613;
}
);
unicode = 248;
},
{
glyphname = p;
kernRight = b;
lastChange = "2023-08-05 17:36:31 +0000";
layers = (
{
layerId = UUID0;
shapes = (
{
closed = 1;
nodes = (
(430,-14,o),
(514,83,o),
(514,237,cs),
(514,441,o),
(401,508,o),
(282,508,cs),
(200,507,o),
(80,491,o),
(80,409,cs),
(80,-201,ls),
(80,-211,o),
(86,-217,o),
(96,-217,cs),
(136,-217,ls),
(146,-217,o),
(152,-211,o),
(152,-201,cs),
(152,51,l),
(127,26,l),
(166,6,o),
(232,-14,o),
(276,-14,cs)
);
},
{
closed = 1;
nodes = (
(234,52,o),
(193,63,o),
(152,87,c),
(152,396,ls),
(152,425,o),
(212,442,o),
(281,442,cs),
(411,442,o),
(438,345,o),
(438,237,cs),
(438,128,o),
(385,52,o),
(276,52,cs)
);
}
);
width = 569;
},
{
layerId = "ECACF70C-BE42-4FA5-B3A0-AFDA71FB1D31";
shapes = (
{
closed = 1;
nodes = (
(501,-15,o),
(584,95,o),
(584,253,cs),
(584,462,o),
(482,529,o),
(317,529,cs),
(166,529,o),
(60,482,o),
(60,395,cs),
(60,-133,ls),
(60,-153,o),
(72,-165,o),
(92,-165,cs),
(206,-165,ls),
(226,-165,o),
(238,-153,o),
(238,-133,cs),
(238,94,l),
(206,38,l),
(252,-19,o),
(341,-15,o),
(366,-15,cs)
);
},
{
closed = 1;
nodes = (
(285,127,o),
(256,132,o),
(238,142,c),
(238,350,ls),
(238,367,o),
(248,379,o),
(309,379,cs),
(378,379,o),
(404,344,o),
(404,260,cs),
(404,150,o),
(368,127,o),
(303,127,cs)
);
}
);
width = 614;
}
);
metricLeft = n;
metricRight = o;
unicode = 112;
},
{
glyphname = thorn;
kernLeft = b;
kernRight = b;
lastChange = "2023-08-05 17:36:44 +0000";
layers = (
{
layerId = UUID0;
shapes = (
{
closed = 1;
nodes = (
(152,673,ls),
(152,683,o),
(146,689,o),
(136,689,cs),
(96,689,ls),
(86,689,o),
(80,683,o),
(80,673,cs),
(80,-184,ls),
(80,-194,o),
(86,-200,o),
(96,-200,cs),
(136,-200,ls),
(146,-200,o),
(152,-194,o),
(152,-184,cs)
);
},
{
closed = 1;
nodes = (
(127,26,l),
(166,6,o),
(232,-14,o),
(276,-14,cs),
(430,-14,o),
(514,83,o),
(514,237,cs),
(514,441,o),
(401,508,o),
(282,508,cs),
(200,507,o),
(80,491,o),
(80,409,c),
(152,396,l),
(152,425,o),
(212,442,o),
(281,442,cs),
(411,442,o),
(438,345,o),
(438,237,cs),
(438,128,o),
(385,52,o),
(276,52,cs),
(234,52,o),
(193,63,o),
(152,87,c)
);
}
);
width = 569;
},
{
background = {
shapes = (
{
closed = 1;
nodes = (
(240,-183,l),
(240,2,l),
(254,0,o),
(292,-1,o),
(305,-1,cs),
(449,-1,o),
(532,88,o),
(532,251,cs),
(532,414,o),
(449,503,o),
(305,503,cs),
(292,503,o),
(254,502,o),
(240,500,c),
(240,685,l),
(69,685,l),
(69,-183,l)
);
},
{
closed = 1;
nodes = (
(255,106,o),
(252,107,o),
(240,108,c),
(240,394,l),
(252,395,o),
(255,396,o),
(273,396,c),
(349,391,o),
(360,313,o),
(360,251,cs),
(360,189,o),
(349,111,o),
(273,106,c)
);
}
);
};
layerId = "ECACF70C-BE42-4FA5-B3A0-AFDA71FB1D31";
shapes = (
{
closed = 1;
nodes = (
(240,668,ls),
(240,688,o),
(228,700,o),
(208,700,cs),
(92,700,ls),
(72,700,o),
(60,688,o),
(60,668,cs),
(60,-146,ls),
(60,-166,o),
(72,-178,o),
(92,-178,cs),
(208,-178,ls),
(228,-178,o),
(240,-166,o),
(240,-146,cs)
);
},
{
closed = 1;
nodes = (
(208,28,l),
(254,-29,o),
(333,-25,o),
(358,-25,cs),
(493,-25,o),
(576,85,o),
(576,233,cs),
(576,438,o),
(474,505,o),
(319,505,cs),
(250,505,o),
(135,485,o),
(83,470,c),
(240,341,l),
(263,351,o),
(294,355,o),
(311,355,cs),
(370,355,o),
(396,320,o),
(396,240,cs),
(396,140,o),
(360,117,o),
(305,117,cs),
(287,117,o),
(258,122,o),
(240,132,c)
);
}
);
width = 606;
}
);
metricLeft = n;
metricRight = o;
unicode = 254;
},
{
glyphname = q;
kernLeft = c;
kernRight = h;
lastChange = "2023-08-05 17:36:54 +0000";
layers = (
{
layerId = UUID0;
shapes = (
{
closed = 1;
nodes = (
(192,509,o),
(56,466,o),
(55,237,cs),
(55,83,o),
(139,-14,o),
(293,-14,cs),
(337,-14,o),
(403,6,o),
(442,26,c),
(417,51,l),
(417,-201,ls),
(417,-211,o),
(423,-217,o),
(433,-217,cs),
(473,-217,ls),
(483,-217,o),
(489,-211,o),
(489,-201,cs),
(489,389,ls),
(489,483,o),
(400,508,o),
(309,508,cs)
);
},
{
closed = 1;
nodes = (
(352,442,o),
(417,426,o),
(417,389,cs),
(417,87,l),
(376,63,o),
(335,52,o),
(293,52,cs),
(184,52,o),
(131,128,o),
(131,237,cs),
(131,345,o),
(158,442,o),
(302,442,cs)
);
}
);
width = 569;
},
{
layerId = "ECACF70C-BE42-4FA5-B3A0-AFDA71FB1D31";
shapes = (
{
closed = 1;
nodes = (
(132,525,o),
(30,447,o),
(30,246,cs),
(30,75,o),
(113,-15,o),
(259,-15,cs),
(282,-15,o),
(362,-20,o),
(407,48,c),
(377,104,l),
(377,-153,ls),
(377,-173,o),
(389,-185,o),
(409,-185,cs),
(523,-185,ls),
(543,-185,o),
(555,-173,o),
(555,-153,cs),
(555,374,ls),
(555,489,o),
(448,525,o),
(308,525,cs)
);
},
{
closed = 1;
nodes = (
(349,376,o),
(377,362,o),
(377,333,cs),
(377,142,l),
(359,132,o),
(331,127,o),
(311,127,cs),
(259,127,o),
(210,153,o),
(210,259,cs),
(210,338,o),
(244,376,o),
(308,376,cs)
);
}
);
width = 615;
}
);
metricLeft = o;
metricRight = n;
unicode = 113;
},
{
glyphname = r;
kernLeft = r;
kernRight = f;
lastChange = "2023-08-05 17:37:12 +0000";
layers = (
{
anchors = (
{
name = bottom;
pos = (98,0);
},
{
name = top;
pos = (181,499);
}
);
layerId = UUID0;
shapes = (
{
closed = 1;
nodes = (
(136,0,ls),
(146,0,o),
(152,6,o),
(152,16,cs),
(152,409,ls),
(152,418,o),
(157,425,o),
(166,427,cs),
(218,436,o),
(268,444,o),
(325,440,cs),
(336,439,o),
(342,445,o),
(342,455,cs),
(342,488,ls),
(342,497,o),
(338,503,o),
(328,506,cs),
(322,507,o),
(316,508,o),
(310,508,cs),
(218,508,o),
(129,478,o),
(92,464,cs),
(84,461,o),
(80,455,o),
(80,446,cs),
(80,16,ls),
(80,6,o),
(86,0,o),
(96,0,cs)
);
}
);
width = 377;
},
{
anchors = (
{
name = bottom;
pos = (138,0);
},
{
name = top;
pos = (208,519);
}
);
background = {
shapes = (
{
closed = 1;
nodes = (
(242,0,l),
(242,381,l),
(278,381,o),
(358,368,o),
(385,362,c),
(385,525,l),
(222,521,o),
(77,457,o),
(60,450,c),
(60,0,l)
);
}
);
};
layerId = "ECACF70C-BE42-4FA5-B3A0-AFDA71FB1D31";
shapes = (
{
closed = 1;
nodes = (
(210,0,ls),
(230,0,o),
(242,12,o),
(242,32,cs),
(242,346,ls),
(242,366,o),
(252,379,o),
(272,379,cs),
(309,380,o),
(363,376,o),
(401,372,cs),
(422,369,o),
(435,378,o),
(435,400,cs),
(435,469,ls),
(435,486,o),
(430,499,o),
(414,507,cs),
(389,519,o),
(348,526,o),
(284,526,cs),
(209,526,o),
(122,492,o),
(79,464,cs),
(65,455,o),
(60,442,o),
(60,426,cs),
(60,32,ls),
(60,12,o),
(72,0,o),
(92,0,cs)
);
}
);
width = 450;
}
);
metricLeft = n;
unicode = 114;
},
{
glyphname = s;
kernLeft = s;
kernRight = s;
lastChange = "2023-08-05 17:37:39 +0000";
layers = (
{
anchors = (
{
name = bottom;
pos = (203,0);
},
{
name = top;
pos = (233,499);
}
);
layerId = UUID0;
shapes = (
{
closed = 1;
nodes = (
(307,-15,o),
(401,32,o),
(401,139,cs),
(401,242,o),
(314,265,o),
(247,286,cs),
(185,303,o),
(129,319,o),
(129,375,cs),
(129,420,o),
(180,442,o),
(235,442,cs),
(282,442,o),
(314,428,o),
(355,407,cs),
(366,401,o),
(374,406,o),
(374,418,cs),
(374,456,ls),
(374,465,o),
(370,471,o),
(362,474,cs),
(322,492,o),
(286,508,o),
(231,508,cs),
(148,508,o),
(57,466,o),
(57,365,cs),
(57,262,o),
(146,241,o),
(224,219,c),
(275,196,o),
(329,186,o),
(329,130,cs),
(329,83,o),
(283,51,o),
(216,51,cs),
(159,51,o),
(124,64,o),
(74,92,cs),
(63,98,o),
(55,93,o),
(55,81,cs),
(55,40,ls),
(55,31,o),
(59,25,o),
(67,21,cs),
(113,-2,o),
(154,-15,o),
(221,-15,cs)
);
}
);
width = 456;
},
{
anchors = (
{
name = bottom;
pos = (231,0);
},
{
name = top;
pos = (242,519);
}
);
layerId = "ECACF70C-BE42-4FA5-B3A0-AFDA71FB1D31";
shapes = (
{
closed = 1;
nodes = (
(344,-15,o),
(454,26,o),
(458,154,cs),
(458,281,o),
(370,297,o),
(304,312,cs),
(266,322,o),
(235,329,o),
(235,359,cs),
(235,377,o),
(243,393,o),
(293,393,cs),
(335,393,o),
(370,378,o),
(402,361,cs),
(424,348,o),
(440,357,o),
(440,383,cs),
(439,449,ls),
(439,467,o),
(433,479,o),
(418,487,cs),
(384,505,o),
(342,517,o),
(265,520,cs),
(171,522,o),
(45,478,o),
(45,338,cs),
(45,238,o),
(104,192,o),
(164,182,cs),
(218,173,o),
(269,161,o),
(269,137,cs),
(269,123,o),
(264,110,o),
(225,110,cs),
(173,110,o),
(123,128,o),
(87,149,cs),
(65,161,o),
(50,154,o),
(50,129,cs),
(50,47,ls),
(50,29,o),
(58,17,o),
(75,11,cs),
(112,-2,o),
(156,-15,o),
(214,-15,cs)
);
}
);
width = 493;
}
);
unicode = 115;
},
{
glyphname = germandbls;
kernLeft = h;
lastChange = "2023-08-05 17:38:37 +0000";
layers = (
{
layerId = UUID0;
shapes = (
{
closed = 1;
nodes = (
(136,0,ls),
(146,0,o),
(152,6,o),
(152,16,cs),
(152,430,ls),
(152,542,o),
(190,612,o),
(288,612,cs),
(359,612,o),
(423,584,o),
(423,510,cs),
(423,440,o),
(386,391,o),
(295,391,c),
(295,328,l),
(371,328,o),
(456,271,o),
(456,177,cs),
(456,96,o),
(413,53,o),
(336,53,cs),
(316,53,o),
(292,57,o),
(267,65,cs),
(256,68,o),
(249,63,o),
(249,52,cs),
(249,14,ls),
(249,5,o),
(254,-1,o),
(263,-3,cs),
(288,-9,o),
(311,-13,o),
(333,-13,cs),
(467,-13,o),
(530,74,o),
(530,173,cs),
(530,284,o),
(455,354,o),
(404,370,c),
(451,386,o),
(497,437,o),
(497,519,cs),
(497,621,o),
(406,676,o),
(286,676,cs),
(137,676,o),
(80,563,o),
(80,423,cs),
(80,16,ls),
(80,6,o),
(86,0,o),
(96,0,cs)
);
}
);
width = 585;
},
{
background = {
shapes = (
{
closed = 1;
nodes = (
(242,700,l),
(62,700,l),
(62,0,l),
(242,0,l)
);
}
);
};
layerId = "ECACF70C-BE42-4FA5-B3A0-AFDA71FB1D31";
shapes = (
{
closed = 1;
nodes = (
(211,0,ls),
(231,0,o),
(243,12,o),
(243,32,cs),
(243,444,ls),
(243,519,o),
(282,557,o),
(336,557,cs),
(386,557,o),
(412,529,o),
(412,494,cs),
(412,449,o),
(381,431,o),
(334,431,c),
(334,287,l),
(390,285,o),
(443,270,o),
(443,201,cs),
(443,146,o),
(418,117,o),
(378,117,cs),
(361,117,o),
(342,120,o),
(321,128,cs),
(298,136,o),
(284,129,o),
(284,105,cs),
(284,30,ls),
(284,11,o),
(293,-2,o),
(312,-6,cs),
(349,-14,o),
(382,-17,o),
(412,-16,cs),
(554,-14,o),
(626,76,o),
(626,194,cs),
(626,327,o),
(539,371,o),
(471,391,c),
(510,403,o),
(601,447,o),
(601,542,cs),
(601,631,o),
(495,706,o),
(324,706,cs),
(156,706,o),
(60,593,o),
(60,442,cs),
(60,32,ls),
(60,12,o),
(72,0,o),
(92,0,cs)
);
}
);
width = 656;
}
);
metricLeft = n;
metricRight = o;
unicode = 223;
},
{
glyphname = t;
kernLeft = t;
kernRight = t;
lastChange = "2023-08-05 17:38:56 +0000";
layers = (
{
anchors = (
{
name = bottom;
pos = (174,0);
},
{
name = center;
pos = (154,250);
},
{
name = top;
pos = (144,639);
},
{
name = topright;
pos = (343,499);
}
);
layerId = UUID0;
shapes = (
{
closed = 1;
nodes = (
(258,-8,o),
(283,-5,o),
(302,0,cs),
(309,3,o),
(313,9,o),
(313,18,cs),
(313,53,ls),
(313,64,o),
(306,69,o),
(295,66,cs),
(282,62,o),
(266,60,o),
(250,60,cs),
(197,60,o),
(184,88,o),
(184,144,cs),
(184,433,l),
(297,433,ls),
(307,433,o),
(313,439,o),
(313,449,cs),
(313,483,ls),
(313,493,o),
(307,499,o),
(297,499,cs),
(184,499,l),
(184,624,ls),
(184,634,o),
(178,640,o),
(168,640,cs),
(128,640,ls),
(118,640,o),
(112,634,o),
(112,624,cs),
(112,499,l),
(41,499,ls),
(31,499,o),
(25,493,o),
(25,483,cs),
(25,449,ls),
(25,439,o),
(31,433,o),
(41,433,cs),
(112,433,l),
(112,121,ls),
(112,36,o),
(166,-8,o),
(237,-8,cs)
);
}
);
width = 363;
},
{
anchors = (
{
name = bottom;
pos = (217,0);
},
{
name = center;
pos = (217,250);
},
{
name = top;
pos = (180,639);
},
{
name = topright;
pos = (414,499);
}
);
layerId = "ECACF70C-BE42-4FA5-B3A0-AFDA71FB1D31";
shapes = (
{
closed = 1;
nodes = (
(312,-25,o),
(337,-22,o),
(362,-13,cs),
(381,-6,o),
(389,7,o),
(389,25,cs),
(389,112,ls),
(389,136,o),
(377,141,o),
(354,132,cs),
(344,129,o),
(334,127,o),
(326,127,cs),
(299,127,o),
(285,139,o),
(285,164,cs),
(285,374,l),
(357,374,ls),
(377,374,o),
(389,386,o),
(389,406,cs),
(389,477,ls),
(389,497,o),
(377,509,o),
(357,509,cs),
(285,509,l),
(285,615,ls),
(285,635,o),
(273,647,o),
(253,647,cs),
(125,647,ls),
(105,647,o),
(93,635,o),
(93,615,cs),
(93,509,l),
(57,509,ls),
(37,509,o),
(25,497,o),
(25,477,cs),
(25,406,ls),
(25,386,o),
(37,374,o),
(57,374,cs),
(93,374,l),
(93,147,ls),
(93,38,o),
(151,-25,o),
(289,-25,cs)
);
}
);
width = 434;
}
);
unicode = 116;
},
{
glyphname = tbar;
lastChange = "2023-08-05 17:39:17 +0000";
layers = (
{
layerId = UUID0;
shapes = (
{
closed = 1;
nodes = (
(266,-8,o),
(285,-5,o),
(301,0,cs),
(309,3,o),
(312,9,o),
(312,18,cs),
(312,53,ls),
(312,64,o),
(305,68,o),
(294,65,cs),
(283,62,o),
(270,60,o),
(255,60,cs),
(202,60,o),
(183,79,o),
(183,129,cs),
(183,244,l),
(281,244,ls),
(291,244,o),
(297,250,o),
(297,260,cs),
(297,288,ls),
(297,298,o),
(291,304,o),
(281,304,cs),
(183,304,l),
(183,433,l),
(296,433,ls),
(306,433,o),
(312,439,o),
(312,449,cs),
(312,483,ls),
(312,493,o),
(306,499,o),
(296,499,cs),
(183,499,l),
(183,624,ls),
(183,634,o),
(177,640,o),
(167,640,cs),
(127,640,ls),
(117,640,o),
(111,634,o),
(111,624,cs),
(111,499,l),
(40,499,ls),
(30,499,o),
(24,493,o),
(24,483,cs),
(24,449,ls),
(24,439,o),
(30,433,o),
(40,433,cs),
(111,433,l),
(111,304,l),
(53,304,ls),
(43,304,o),
(37,298,o),
(37,288,cs),
(37,260,ls),
(37,250,o),
(43,244,o),
(53,244,cs),
(111,244,l),
(111,133,ls),
(111,5,o),
(205,-8,o),
(246,-8,cs)
);
}
);
width = 345;
},
{
layerId = "ECACF70C-BE42-4FA5-B3A0-AFDA71FB1D31";
shapes = (
{
closed = 1;
nodes = (
(291,-7,o),
(316,-4,o),
(341,5,cs),
(360,12,o),
(368,25,o),
(368,43,cs),
(368,99,ls),
(368,123,o),
(354,130,o),
(331,122,cs),
(317,117,o),
(306,115,o),
(295,115,cs),
(278,115,o),
(264,128,o),
(264,142,cs),
(264,214,l),
(323,214,ls),
(343,214,o),
(355,226,o),
(355,246,cs),
(355,280,ls),
(355,300,o),
(343,312,o),
(323,312,cs),
(264,312,l),
(264,384,l),
(336,384,ls),
(356,384,o),
(368,396,o),
(368,416,cs),
(368,467,ls),
(368,487,o),
(356,499,o),
(336,499,cs),
(264,499,l),
(264,615,ls),
(264,635,o),
(252,647,o),
(232,647,cs),
(124,647,ls),
(104,647,o),
(92,635,o),
(92,615,cs),
(92,499,l),
(56,499,ls),
(36,499,o),
(24,487,o),
(24,467,cs),
(24,416,ls),
(24,396,o),
(36,384,o),
(56,384,cs),
(92,384,l),
(92,312,l),
(70,312,ls),
(50,312,o),
(38,300,o),
(38,280,cs),
(38,246,ls),
(38,226,o),
(50,214,o),
(70,214,cs),
(92,214,l),
(92,168,ls),
(92,59,o),
(150,-7,o),
(268,-7,cs)
);
}
);
width = 410;
}
);
unicode = 359;
},
{
glyphname = u;
kernLeft = u;
kernRight = u;
lastChange = "2023-08-05 17:39:57 +0000";
layers = (
{
anchors = (
{
name = bottom;
pos = (289,0);
},
{
name = ogonek;
pos = (410,10);
},
{
name = top;
pos = (289,499);
},
{
name = topright;
pos = (513,522);
}
);
layerId = UUID0;
shapes = (
{
closed = 1;
nodes = (
(422,-15,o),
(498,56,o),
(498,183,cs),
(498,483,ls),
(498,493,o),
(492,499,o),
(482,499,cs),
(442,499,ls),
(432,499,o),
(426,493,o),
(426,483,cs),
(426,199,ls),
(426,98,o),
(382,52,o),
(289,52,cs),
(195,52,o),
(152,98,o),
(152,199,cs),
(152,483,ls),
(152,493,o),
(146,499,o),
(136,499,cs),
(96,499,ls),
(86,499,o),
(80,493,o),
(80,483,cs),
(80,183,ls),
(80,56,o),
(156,-15,o),
(289,-15,cs)
);
}
);
width = 578;
},
{
anchors = (
{
name = bottom;
pos = (306,0);
},
{
name = ogonek;
pos = (462,10);
},
{
name = top;
pos = (316,519);
},
{
name = topright;
pos = (601,492);
}
);
layerId = "ECACF70C-BE42-4FA5-B3A0-AFDA71FB1D31";
shapes = (
{
closed = 1;
nodes = (
(457,-15,o),
(551,46,o),
(551,197,cs),
(551,477,ls),
(551,497,o),
(539,509,o),
(519,509,cs),
(414,509,ls),
(394,509,o),
(382,497,o),
(382,477,cs),
(382,208,ls),
(382,160,o),
(362,135,o),
(312,135,cs),
(262,135,o),
(242,160,o),
(242,208,cs),
(242,477,ls),
(242,497,o),
(230,509,o),
(210,509,cs),
(92,509,ls),
(72,509,o),
(60,497,o),
(60,477,cs),
(60,197,ls),
(60,46,o),
(165,-15,o),
(311,-15,cs)
);
}
);
width = 611;
}
);
metricLeft = n;
metricRight = n;
unicode = 117;
},
{
glyphname = udotbelow;
kernLeft = u;
kernRight = u;
lastChange = "2023-08-05 17:40:22 +0000";
layers = (
{
layerId = UUID0;
shapes = (
{
closed = 1;
nodes = (
(424,-9,o),
(500,71,o),
(500,209,cs),
(500,483,ls),
(500,493,o),
(494,499,o),
(484,499,cs),
(444,499,ls),
(434,499,o),
(428,493,o),
(428,483,cs),
(428,206,ls),
(428,105,o),
(385,58,o),
(291,58,cs),
(198,58,o),
(154,105,o),
(154,206,cs),
(154,483,ls),
(154,493,o),
(148,499,o),
(138,499,cs),
(98,499,ls),
(88,499,o),
(82,493,o),
(82,483,cs),
(82,209,ls),
(82,71,o),
(158,-9,o),
(291,-9,cs)
);
},
{
closed = 1;
nodes = (
(315,-128,ls),
(325,-128,o),
(331,-122,o),
(331,-112,cs),
(331,-65,ls),
(331,-55,o),
(325,-49,o),
(315,-49,cs),
(268,-49,ls),
(258,-49,o),
(252,-55,o),
(252,-65,cs),
(252,-112,ls),
(252,-122,o),
(258,-128,o),
(268,-128,cs)
);
}
);
width = 587;
},
{
layerId = "ECACF70C-BE42-4FA5-B3A0-AFDA71FB1D31";
shapes = (
{
closed = 1;
nodes = (
(459,-7,o),
(548,60,o),
(548,225,cs),
(548,467,ls),
(548,487,o),
(536,499,o),
(516,499,cs),
(408,499,ls),
(388,499,o),
(376,487,o),
(376,467,cs),
(376,195,ls),
(376,147,o),
(359,122,o),
(316,122,cs),
(273,122,o),
(256,147,o),
(256,195,cs),
(256,467,ls),
(256,487,o),
(244,499,o),
(224,499,cs),
(116,499,ls),
(96,499,o),
(84,487,o),
(84,467,cs),
(84,225,ls),
(84,60,o),
(173,-7,o),
(316,-7,cs)
);
},
{
closed = 1;
nodes = (
(344,-159,ls),
(364,-159,o),
(376,-147,o),
(376,-127,cs),
(376,-82,ls),
(376,-62,o),
(364,-50,o),
(344,-50,cs),
(288,-50,ls),
(268,-50,o),
(256,-62,o),
(256,-82,cs),
(256,-127,ls),
(256,-147,o),
(268,-159,o),
(288,-159,cs)
);
}
);
width = 620;
}
);
unicode = 7909;
},
{
glyphname = uhookabove;
kernLeft = u;
kernRight = u;
lastChange = "2023-08-05 17:40:58 +0000";
layers = (
{
layerId = UUID0;
shapes = (
{
closed = 1;
nodes = (
(424,-9,o),
(500,71,o),
(500,209,cs),
(500,483,ls),
(500,493,o),
(494,499,o),
(484,499,cs),
(444,499,ls),
(434,499,o),
(428,493,o),
(428,483,cs),
(428,206,ls),
(428,105,o),
(385,58,o),
(291,58,cs),
(198,58,o),
(154,105,o),
(154,206,cs),
(154,483,ls),
(154,493,o),
(148,499,o),
(138,499,cs),
(98,499,ls),
(88,499,o),
(82,493,o),
(82,483,cs),
(82,209,ls),
(82,71,o),
(158,-9,o),
(291,-9,cs)
);
},
{
closed = 1;
nodes = (
(310,564,l),
(310,588,l),
(346,594,o),
(362,616,o),
(362,642,cs),
(362,695,o),
(313,710,o),
(271,710,cs),
(265,710,o),
(260,710,o),
(255,709,cs),
(245,708,o),
(240,701,o),
(240,692,cs),
(240,681,ls),
(240,671,o),
(246,665,o),
(257,666,cs),
(260,666,o),
(263,666,o),
(267,666,cs),
(296,666,o),
(314,657,o),
(314,640,cs),
(314,630,o),
(305,617,o),
(277,616,c),
(277,564,l)
);
}
);
width = 587;
},
{
layerId = "ECACF70C-BE42-4FA5-B3A0-AFDA71FB1D31";
shapes = (
{
closed = 1;
nodes = (
(459,-7,o),
(548,60,o),
(548,225,cs),
(548,467,ls),
(548,487,o),
(536,499,o),
(516,499,cs),
(408,499,ls),
(388,499,o),
(376,487,o),
(376,467,cs),
(376,195,ls),
(376,147,o),
(359,122,o),
(316,122,cs),
(273,122,o),
(256,147,o),
(256,195,cs),
(256,467,ls),
(256,487,o),
(244,499,o),
(224,499,cs),
(116,499,ls),
(96,499,o),
(84,487,o),
(84,467,cs),
(84,225,ls),
(84,60,o),
(173,-7,o),
(316,-7,cs)
);
},
{
closed = 1;
nodes = (
(346,556,l),
(346,579,l),
(346,579,o),
(395,586,o),
(395,634,cs),
(395,682,o),
(353,706,o),
(303,706,cs),
(293,706,o),
(279,705,o),
(268,703,cs),
(258,702,o),
(253,695,o),
(253,686,cs),
(253,666,ls),
(253,655,o),
(259,650,o),
(270,651,cs),
(276,652,o),
(280,652,o),
(284,652,cs),
(298,652,o),
(314,648,o),
(314,631,cs),
(314,618,o),
(299,615,o),
(288,615,c),
(288,556,l)
);
}
);
width = 620;
}
);
unicode = 7911;
},
{
glyphname = uni021B;
kernLeft = t;
kernRight = t;
lastChange = "2023-08-05 17:42:15 +0000";
layers = (
{
layerId = UUID0;
shapes = (
{
closed = 1;
nodes = (
(266,-8,o),
(285,-5,o),
(301,0,cs),
(309,3,o),
(312,9,o),
(312,18,cs),
(312,53,ls),
(312,64,o),
(305,68,o),
(294,65,cs),
(283,62,o),
(270,60,o),
(255,60,cs),
(202,60,o),
(183,79,o),
(183,129,cs),
(183,433,l),
(296,433,ls),
(306,433,o),
(312,439,o),
(312,449,cs),
(312,483,ls),
(312,493,o),
(306,499,o),
(296,499,cs),
(183,499,l),
(183,624,ls),
(183,634,o),
(177,640,o),
(167,640,cs),
(127,640,ls),
(117,640,o),
(111,634,o),
(111,624,cs),
(111,499,l),
(40,499,ls),
(30,499,o),
(24,493,o),
(24,483,cs),
(24,449,ls),
(24,439,o),
(30,433,o),
(40,433,cs),
(111,433,l),
(111,133,ls),
(111,5,o),
(205,-8,o),
(246,-8,cs)
);
},
{
closed = 1;
nodes = (
(208,-174,o),
(245,-141,o),
(253,-77,cs),
(256,-59,o),
(249,-49,o),
(239,-49,cs),
(212,-49,ls),
(202,-49,o),
(196,-54,o),
(196,-65,cs),
(194,-89,o),
(188,-118,o),
(166,-133,cs),
(159,-138,o),
(155,-143,o),
(155,-152,cs),
(155,-174,ls),
(155,-185,o),
(162,-192,o),
(173,-188,cs)
);
}
);
width = 345;
},
{
layerId = "ECACF70C-BE42-4FA5-B3A0-AFDA71FB1D31";
shapes = (
{
closed = 1;
nodes = (
(291,-7,o),
(316,-4,o),
(341,5,cs),
(360,12,o),
(368,25,o),
(368,43,cs),
(368,99,ls),
(368,123,o),
(354,130,o),
(331,122,cs),
(317,117,o),
(306,115,o),
(295,115,cs),
(278,115,o),
(264,128,o),
(264,142,cs),
(264,384,l),
(336,384,ls),
(356,384,o),
(368,396,o),
(368,416,cs),
(368,467,ls),
(368,487,o),
(356,499,o),
(336,499,cs),
(264,499,l),
(264,615,ls),
(264,635,o),
(252,647,o),
(232,647,cs),
(124,647,ls),
(104,647,o),
(92,635,o),
(92,615,cs),
(92,499,l),
(56,499,ls),
(36,499,o),
(24,487,o),
(24,467,cs),
(24,416,ls),
(24,396,o),
(36,384,o),
(56,384,cs),
(92,384,l),
(92,168,ls),
(92,59,o),
(150,-7,o),
(268,-7,cs)
);
},
{
closed = 1;
nodes = (
(230,-177,o),
(267,-137,o),
(278,-86,cs),
(283,-63,o),
(269,-50,o),
(248,-50,cs),
(217,-50,ls),
(197,-50,o),
(188,-61,o),
(185,-82,cs),
(183,-98,o),
(178,-110,o),
(170,-118,cs),
(158,-130,o),
(148,-138,o),
(148,-155,cs),
(148,-162,ls),
(148,-182,o),
(161,-195,o),
(182,-190,cs)
);
}
);
width = 410;
}
);
unicode = 539;
},
{
glyphname = v;
kernLeft = v;
lastChange = "2023-08-05 17:42:58 +0000";
layers = (
{
layerId = UUID0;
shapes = (
{
closed = 1;
nodes = (
(306,0,ls),
(315,0,o),
(321,4,o),
(324,12,cs),
(523,480,ls),
(528,492,o),
(523,499,o),
(511,499,cs),
(472,499,ls),
(463,499,o),
(457,496,o),
(454,487,cs),
(280,58,l),
(296,62,l),
(117,487,ls),
(114,495,o),
(108,499,o),
(99,499,cs),
(55,499,ls),
(43,499,o),
(38,492,o),
(43,480,cs),
(241,12,ls),
(244,4,o),
(250,0,o),
(259,0,cs)
);
}
);
width = 566;
},
{
layerId = "ECACF70C-BE42-4FA5-B3A0-AFDA71FB1D31";
shapes = (
{
closed = 1;
nodes = (
(386,0,ls),
(404,0,o),
(416,8,o),
(423,25,cs),
(609,472,ls),
(618,495,o),
(608,509,o),
(584,509,cs),
(458,509,ls),
(440,509,o),
(428,501,o),
(422,483,cs),
(313,139,l),
(358,139,l),
(227,484,ls),
(221,501,o),
(208,509,o),
(190,509,cs),
(60,509,ls),
(36,509,o),
(26,495,o),
(35,472,cs),
(221,25,ls),
(228,8,o),
(240,0,o),
(258,0,cs)
);
}
);
width = 644;
}
);
unicode = 118;
},
{
glyphname = w;
lastChange = "2023-08-05 17:43:14 +0000";
layers = (
{
anchors = (
{
name = bottom;
pos = (399,0);
},
{
name = top;
pos = (399,499);
}
);
layerId = UUID0;
shapes = (
{
closed = 1;
nodes = (
(260,0,ls),
(269,0,o),
(275,4,o),
(278,13,cs),
(402,430,l),
(389,442,l),
(518,13,ls),
(521,4,o),
(527,0,o),
(536,0,cs),
(581,0,ls),
(590,0,o),
(596,4,o),
(599,13,cs),
(755,481,ls),
(759,493,o),
(753,499,o),
(742,499,cs),
(704,499,ls),
(695,499,o),
(689,495,o),
(686,486,cs),
(551,58,l),
(565,58,l),
(436,486,ls),
(433,495,o),
(427,499,o),
(418,499,cs),
(377,499,ls),
(368,499,o),
(362,495,o),
(359,486,cs),
(231,46,l),
(250,54,l),
(115,486,ls),
(112,495,o),
(106,499,o),
(97,499,cs),
(54,499,ls),
(43,499,o),
(37,493,o),
(41,481,cs),
(197,13,ls),
(200,4,o),
(206,0,o),
(215,0,cs)
);
}
);
width = 796;
},
{
anchors = (
{
name = bottom;
pos = (421,0);
},
{
name = top;
pos = (421,499);
}
);
layerId = "ECACF70C-BE42-4FA5-B3A0-AFDA71FB1D31";
shapes = (
{
closed = 1;
nodes = (
(324,0,ls),
(343,0,o),
(355,8,o),
(360,27,cs),
(434,278,l),
(403,278,l),
(481,27,ls),
(486,9,o),
(499,0,o),
(517,0,cs),
(622,0,ls),
(640,0,o),
(653,9,o),
(659,26,cs),
(808,473,ls),
(815,495,o),
(805,509,o),
(782,509,cs),
(653,509,ls),
(634,509,o),
(623,499,o),
(618,481,cs),
(529,128,l),
(577,128,l),
(491,481,ls),
(487,499,o),
(474,509,o),
(455,509,cs),
(385,509,ls),
(366,509,o),
(354,499,o),
(349,481,cs),
(259,116,l),
(318,116,l),
(224,481,ls),
(219,499,o),
(208,509,o),
(189,509,cs),
(58,509,ls),
(35,509,o),
(25,495,o),
(32,473,cs),
(182,26,ls),
(188,9,o),
(201,0,o),
(219,0,cs)
);
}
);
width = 840;
}
);
metricLeft = v;
metricRight = v;
unicode = 119;
},
{
glyphname = x;
lastChange = "2023-08-05 17:43:41 +0000";
layers = (
{
layerId = UUID0;
shapes = (
{
closed = 1;
nodes = (
(237,272,l),
(49,20,ls),
(41,10,o),
(46,0,o),
(59,0,cs),
(104,0,ls),
(112,0,o),
(118,4,o),
(123,10,cs),
(280,218,l)
);
},
{
closed = 1;
nodes = (
(138,489,ls),
(133,496,o),
(127,499,o),
(119,499,cs),
(64,499,ls),
(51,499,o),
(46,490,o),
(54,480,cs),
(398,10,ls),
(403,3,o),
(409,0,o),
(417,0,cs),
(473,0,ls),
(486,0,o),
(491,9,o),
(483,19,cs)
);
},
{
closed = 1;
nodes = (
(287,218,l),
(481,480,ls),
(489,490,o),
(484,499,o),
(471,499,cs),
(424,499,ls),
(416,499,o),
(410,496,o),
(405,489,cs),
(247,279,l)
);
}
);
width = 532;
},
{
layerId = "ECACF70C-BE42-4FA5-B3A0-AFDA71FB1D31";
shapes = (
{
closed = 1;
nodes = (
(253,307,l),
(45,39,ls),
(29,18,o),
(37,0,o),
(64,0,cs),
(180,0,ls),
(197,0,o),
(210,6,o),
(219,21,cs),
(332,195,l)
);
},
{
closed = 1;
nodes = (
(246,489,ls),
(236,503,o),
(224,509,o),
(207,509,cs),
(68,509,ls),
(42,509,o),
(33,492,o),
(48,470,cs),
(366,20,ls),
(376,6,o),
(388,0,o),
(405,0,cs),
(545,0,ls),
(571,0,o),
(580,17,o),
(565,39,cs)
);
},
{
closed = 1;
nodes = (
(362,195,l),
(575,470,ls),
(591,491,o),
(583,509,o),
(556,509,cs),
(440,509,ls),
(423,509,o),
(410,502,o),
(401,488,cs),
(283,307,l)
);
}
);
width = 620;
}
);
unicode = 120;
},
{
glyphname = y;
kernLeft = v;
lastChange = "2023-08-05 17:44:21 +0000";
layers = (
{
anchors = (
{
name = bottom;
pos = (398,0);
},
{
name = top;
pos = (275,499);
}
);
layerId = UUID0;
shapes = (
{
closed = 1;
nodes = (
(181,-193,o),
(245,-167,o),
(291,-49,cs),
(498,480,ls),
(502,492,o),
(497,499,o),
(485,499,cs),
(447,499,ls),
(438,499,o),
(431,494,o),
(428,486,cs),
(268,73,l),
(283,73,l),
(122,486,ls),
(119,494,o),
(112,499,o),
(103,499,cs),
(55,499,ls),
(43,499,o),
(39,491,o),
(43,480,cs),
(247,-15,l),
(247,14,l),
(222,-65,o),
(198,-127,o),
(130,-127,cs),
(121,-127,o),
(112,-126,o),
(105,-124,cs),
(94,-121,o),
(87,-126,o),
(87,-137,cs),
(87,-170,ls),
(87,-179,o),
(91,-186,o),
(100,-188,cs),
(109,-191,o),
(121,-193,o),
(134,-193,cs)
);
}
);
width = 540;
},
{
anchors = (
{
name = bottom;
pos = (495,0);
},
{
name = top;
pos = (308,499);
}
);
background = {
shapes = (
{
closed = 1;
nodes = (
(402,0,l),
(593,509,l),
(399,509,l),
(302,139,l),
(347,139,l),
(226,509,l),
(29,509,l),
(220,0,l)
);
}
);
};
layerId = "ECACF70C-BE42-4FA5-B3A0-AFDA71FB1D31";
shapes = (
{
closed = 1;
nodes = (
(276,-197,o),
(346,-140,o),
(404,10,cs),
(582,472,ls),
(590,494,o),
(579,509,o),
(556,509,cs),
(427,509,ls),
(408,509,o),
(396,501,o),
(391,482,cs),
(307,184,l),
(322,184,l),
(236,482,ls),
(231,501,o),
(219,509,o),
(200,509,cs),
(60,509,ls),
(36,509,o),
(26,495,o),
(35,472,cs),
(239,-33,l),
(234,75,l),
(226,-26,o),
(193,-43,o),
(151,-43,cs),
(140,-43,o),
(130,-42,o),
(118,-40,cs),
(97,-36,o),
(85,-46,o),
(85,-68,cs),
(85,-149,ls),
(85,-167,o),
(92,-180,o),
(110,-186,cs),
(135,-193,o),
(165,-197,o),
(194,-197,cs)
);
}
);
width = 616;
}
);
metricLeft = v;
metricRight = v;
unicode = 121;
},
{
glyphname = z;
kernRight = z;
lastChange = "2023-08-05 16:23:43 +0000";
layers = (
{
anchors = (
{
name = bottom;
pos = (228,0);
},
{
name = top;
pos = (228,499);
}
);
layerId = UUID0;
shapes = (
{
closed = 1;
nodes = (
(394,0,ls),
(404,0,o),
(410,6,o),
(410,16,cs),
(410,48,ls),
(410,58,o),
(404,64,o),
(394,64,cs),
(114,64,l),
(114,45,l),
(403,427,ls),
(408,434,o),
(410,439,o),
(410,447,cs),
(410,483,ls),
(410,493,o),
(404,499,o),
(394,499,cs),
(68,499,ls),
(58,499,o),
(52,493,o),
(52,483,cs),
(52,453,ls),
(52,443,o),
(58,437,o),
(68,437,cs),
(356,437,l),
(341,459,l),
(52,74,ls),
(47,67,o),
(45,62,o),
(45,54,cs),
(45,16,ls),
(45,6,o),
(51,0,o),
(61,0,cs)
);
}
);
width = 455;
},
{
anchors = (
{
name = bottom;
pos = (254,0);
},
{
name = top;
pos = (264,499);
}
);
layerId = "ECACF70C-BE42-4FA5-B3A0-AFDA71FB1D31";
shapes = (
{
closed = 1;
nodes = (
(431,0,ls),
(451,0,o),
(463,12,o),
(463,32,cs),
(463,111,ls),
(463,131,o),
(451,143,o),
(431,143,cs),
(223,143,l),
(230,96,l),
(448,353,ls),
(458,365,o),
(463,377,o),
(463,393,cs),
(463,477,ls),
(463,497,o),
(451,509,o),
(431,509,cs),
(82,509,ls),
(62,509,o),
(50,497,o),
(50,477,cs),
(50,408,ls),
(50,388,o),
(62,376,o),
(82,376,cs),
(320,376,l),
(306,411,l),
(61,158,ls),
(50,146,o),
(45,134,o),
(45,118,cs),
(45,32,ls),
(45,12,o),
(57,0,o),
(77,0,cs)
);
}
);
width = 508;
}
);
unicode = 122;
},
{
glyphname = fi;
lastChange = "2016-08-22 15:23:46 +0000";
layers = (
{
background = {
shapes = (
{
closed = 1;
nodes = (
(197,0,l),
(197,433,l),
(337,433,l),
(337,500,l),
(197,500,l),
(197,527,ls),
(197,643,o),
(255,643,o),
(301,643,cs),
(315,643,o),
(327,641,o),
(337,639,c),
(337,704,l),
(323,707,o),
(307,709,o),
(288,709,cs),
(249,709,o),
(127,709,o),
(127,526,cs),
(127,500,l),
(41,500,l),
(41,433,l),
(127,433,l),
(127,0,l)
);
},
{
closed = 1;
nodes = (
(508,0,l),
(508,499,l),
(436,499,l),
(436,0,l)
);
},
{
closed = 1;
nodes = (
(512,588,l),
(512,667,l),
(432,667,l),
(432,588,l)
);
}
);
};
layerId = UUID0;
shapes = (
{
ref = f;
},
{
alignment = -1;
pos = (354,0);
ref = i;
}
);
width = 594;
},
{
background = {
shapes = (
{
closed = 1;
nodes = (
(282,0,l),
(282,378,l),
(383,378,l),
(383,499,l),
(284,499,l),
(284,538,o),
(304,596,o),
(356,596,cs),
(364,596,o),
(369,596,o),
(383,592,c),
(383,695,l),
(365,701,o),
(331,706,o),
(309,706,cs),
(181,706,o),
(112,641,o),
(112,499,c),
(41,499,l),
(41,378,l),
(110,378,l),
(110,0,l)
);
},
{
closed = 1;
nodes = (
(653,0,l),
(653,499,l),
(481,499,l),
(481,0,l)
);
},
{
closed = 1;
nodes = (
(655,556,l),
(655,687,l),
(479,687,l),
(479,556,l)
);
}
);
};
layerId = "ECACF70C-BE42-4FA5-B3A0-AFDA71FB1D31";
shapes = (
{
ref = f;
},
{
alignment = -1;
pos = (402,0);
ref = i;
}
);
width = 708;
}
);
metricLeft = f;
metricRight = i;
unicode = 64257;
},
{
glyphname = fl;
lastChange = "2016-08-17 15:50:16 +0000";
layers = (
{
background = {
shapes = (
{
closed = 1;
nodes = (
(197,0,l),
(197,433,l),
(337,433,l),
(337,500,l),
(197,500,l),
(197,527,ls),
(197,643,o),
(255,643,o),
(301,643,cs),
(315,643,o),
(327,641,o),
(337,639,c),
(337,704,l),
(323,707,o),
(307,709,o),
(288,709,cs),
(249,709,o),
(127,709,o),
(127,526,cs),
(127,500,l),
(41,500,l),
(41,433,l),
(127,433,l),
(127,0,l)
);
},
{
closed = 1;
nodes = (
(508,0,l),
(508,689,l),
(436,689,l),
(436,0,l)
);
}
);
};
layerId = UUID0;
shapes = (
{
ref = f;
},
{
alignment = -1;
pos = (355,0);
ref = l;
}
);
width = 587;
},
{
background = {
shapes = (
{
closed = 1;
nodes = (
(281,0,l),
(281,378,l),
(382,378,l),
(382,499,l),
(283,499,l),
(283,538,o),
(303,596,o),
(355,596,cs),
(363,596,o),
(368,596,o),
(382,592,c),
(382,695,l),
(364,701,o),
(330,706,o),
(308,706,cs),
(180,706,o),
(111,641,o),
(111,499,c),
(40,499,l),
(40,378,l),
(109,378,l),
(109,0,l)
);
},
{
closed = 1;
nodes = (
(652,0,l),
(652,689,l),
(480,689,l),
(480,0,l)
);
}
);
};
layerId = "ECACF70C-BE42-4FA5-B3A0-AFDA71FB1D31";
shapes = (
{
ref = f;
},
{
pos = (402,0);
ref = l;
}
);
width = 702;
}
);
metricRight = l;
unicode = 64258;
},
{
glyphname = ordfeminine;
kernLeft = ordfeminine;
kernRight = ordfeminine;
lastChange = "2023-08-05 17:45:26 +0000";
layers = (
{
layerId = UUID0;
shapes = (
{
closed = 1;
nodes = (
(228,389,o),
(306,400,o),
(306,476,cs),
(306,560,ls),
(306,636,o),
(269,675,o),
(190,675,cs),
(161,675,o),
(133,668,o),
(113,662,cs),
(107,659,o),
(104,655,o),
(104,648,cs),
(104,634,ls),
(104,626,o),
(109,621,o),
(118,624,cs),
(134,629,o),
(159,636,o),
(188,636,cs),
(239,636,o),
(266,612,o),
(266,559,c),
(266,559,o),
(233,569,o),
(192,569,cs),
(125,569,o),
(76,549,o),
(76,478,cs),
(76,400,o),
(156,389,o),
(192,389,cs)
);
},
{
closed = 1;
nodes = (
(158,426,o),
(116,434,o),
(116,479,cs),
(116,529,o),
(166,533,o),
(200,533,cs),
(231,533,o),
(266,523,o),
(266,523,c),
(266,477,ls),
(266,434,o),
(227,426,o),
(192,426,cs)
);
}
);
width = 394;
},
{
layerId = "ECACF70C-BE42-4FA5-B3A0-AFDA71FB1D31";
shapes = (
{
closed = 1;
nodes = (
(297,378,o),
(333,398,o),
(333,473,cs),
(333,554,ls),
(333,632,o),
(285,675,o),
(194,675,cs),
(169,675,o),
(138,670,o),
(111,662,cs),
(98,658,o),
(92,649,o),
(92,635,cs),
(92,611,ls),
(92,594,o),
(102,587,o),
(119,591,cs),
(142,597,o),
(167,600,o),
(187,600,cs),
(214,600,o),
(225,579,o),
(225,545,c),
(216,552,o),
(198,558,o),
(163,558,cs),
(87,558,o),
(65,521,o),
(65,474,cs),
(65,407,o),
(113,378,o),
(195,378,cs)
);
},
{
closed = 1;
nodes = (
(178,447,o),
(171,460,o),
(171,477,cs),
(171,492,o),
(185,505,o),
(201,505,cs),
(213,505,o),
(220,502,o),
(227,499,c),
(227,468,ls),
(227,456,o),
(219,447,o),
(199,447,cs)
);
}
);
width = 407;
}
);
unicode = 170;
},
{
glyphname = ordmasculine;
kernLeft = ordfeminine;
kernRight = ordfeminine;
lastChange = "2016-08-05 09:29:49 +0000";
layers = (
{
layerId = UUID0;
shapes = (
{
closed = 1;
nodes = (
(266,389,o),
(336,414,o),
(336,532,cs),
(336,651,o),
(266,676,o),
(206,676,cs),
(147,676,o),
(76,651,o),
(76,532,cs),
(76,414,o),
(147,389,o),
(206,389,cs)
);
},
{
closed = 1;
nodes = (
(143,426,o),
(116,458,o),
(116,532,cs),
(116,607,o),
(143,639,o),
(206,639,cs),
(270,639,o),
(296,607,o),
(296,532,cs),
(296,458,o),
(270,426,o),
(206,426,cs)
);
}
);
width = 417;
},
{
layerId = "ECACF70C-BE42-4FA5-B3A0-AFDA71FB1D31";
shapes = (
{
closed = 1;
nodes = (
(294,389,o),
(343,439,o),
(343,532,cs),
(343,626,o),
(294,676,o),
(209,676,cs),
(123,676,o),
(74,626,o),
(74,532,cs),
(74,439,o),
(123,389,o),
(209,389,cs)
);
},
{
closed = 1;
nodes = (
(184,459,o),
(170,482,o),
(170,532,cs),
(170,583,o),
(184,606,o),
(209,606,cs),
(233,606,o),
(247,583,o),
(247,532,cs),
(247,482,o),
(233,459,o),
(209,459,cs)
);
}
);
width = 424;
}
);
unicode = 186;
},
{
glyphname = pi;
lastChange = "2023-08-05 17:45:50 +0000";
layers = (
{
layerId = UUID0;
shapes = (
{
closed = 1;
nodes = (
(192,0,ls),
(202,0,o),
(208,6,o),
(208,16,cs),
(208,433,l),
(414,433,l),
(414,16,ls),
(414,6,o),
(420,0,o),
(430,0,cs),
(464,0,ls),
(474,0,o),
(480,6,o),
(480,16,cs),
(480,433,l),
(573,433,ls),
(583,433,o),
(589,439,o),
(589,449,cs),
(589,483,ls),
(589,493,o),
(583,499,o),
(573,499,cs),
(49,499,ls),
(39,499,o),
(33,493,o),
(33,483,cs),
(33,449,ls),
(33,439,o),
(39,433,o),
(49,433,cs),
(142,433,l),
(142,16,ls),
(142,6,o),
(148,0,o),
(158,0,cs)
);
}
);
width = 622;
},
{
layerId = "ECACF70C-BE42-4FA5-B3A0-AFDA71FB1D31";
shapes = (
{
closed = 1;
nodes = (
(226,0,ls),
(246,0,o),
(258,12,o),
(258,32,cs),
(258,374,l),
(374,374,l),
(374,32,ls),
(374,12,o),
(386,0,o),
(406,0,cs),
(467,0,ls),
(487,0,o),
(499,12,o),
(499,32,cs),
(499,374,l),
(565,374,ls),
(585,374,o),
(597,386,o),
(597,406,cs),
(597,467,ls),
(597,487,o),
(585,499,o),
(565,499,cs),
(67,499,ls),
(47,499,o),
(35,487,o),
(35,467,cs),
(35,406,ls),
(35,386,o),
(47,374,o),
(67,374,cs),
(131,374,l),
(131,32,ls),
(131,12,o),
(143,0,o),
(163,0,cs)
);
}
);
width = 634;
}
);
unicode = 960;
},
{
glyphname = zero;
kernRight = zero;
lastChange = "2016-08-22 16:38:20 +0000";
layers = (
{
layerId = UUID0;
shapes = (
{
closed = 1;
nodes = (
(498,-11,o),
(586,104,o),
(586,331,cs),
(586,558,o),
(498,673,o),
(323,673,cs),
(149,673,o),
(60,558,o),
(60,331,cs),
(60,104,o),
(149,-11,o),
(323,-11,cs)
);
},
{
closed = 1;
nodes = (
(234,55,o),
(132,86,o),
(132,331,cs),
(132,575,o),
(234,607,o),
(323,607,cs),
(412,607,o),
(514,575,o),
(514,331,cs),
(514,86,o),
(412,55,o),
(323,55,cs)
);
}
);
width = 646;
},
{
layerId = "ECACF70C-BE42-4FA5-B3A0-AFDA71FB1D31";
shapes = (
{
closed = 1;
nodes = (
(550,-14,o),
(640,101,o),
(640,334,cs),
(640,566,o),
(550,682,o),
(337,682,cs),
(126,682,o),
(35,566,o),
(35,334,cs),
(35,101,o),
(126,-14,o),
(337,-14,cs)
);
},
{
closed = 1;
nodes = (
(288,145,o),
(240,171,o),
(240,334,cs),
(240,493,o),
(288,522,o),
(337,522,cs),
(387,522,o),
(436,493,o),
(436,334,cs),
(436,172,o),
(387,145,o),
(337,145,cs)
);
}
);
width = 675;
}
);
metricLeft = O;
metricRight = O;
unicode = 48;
},
{
glyphname = one;
kernLeft = h;
kernRight = i;
lastChange = "2023-08-05 17:46:34 +0000";
layers = (
{
layerId = UUID0;
shapes = (
{
closed = 1;
nodes = (
(292,0,ls),
(302,0,o),
(308,6,o),
(308,16,cs),
(308,651,ls),
(308,661,o),
(302,667,o),
(292,667,cs),
(237,667,ls),
(230,667,o),
(223,665,o),
(217,661,cs),
(114,596,ls),
(107,591,o),
(103,584,o),
(103,576,cs),
(103,527,ls),
(103,514,o),
(111,510,o),
(122,517,cs),
(217,579,ls),
(228,586,o),
(236,582,o),
(236,569,cs),
(236,16,ls),
(236,6,o),
(242,0,o),
(252,0,cs)
);
}
);
width = 451;
},
{
layerId = "ECACF70C-BE42-4FA5-B3A0-AFDA71FB1D31";
shapes = (
{
closed = 1;
nodes = (
(336,0,ls),
(356,0,o),
(368,12,o),
(368,32,cs),
(368,635,ls),
(368,655,o),
(356,667,o),
(336,667,cs),
(220,667,ls),
(205,667,o),
(195,665,o),
(181,657,cs),
(62,591,ls),
(47,583,o),
(40,570,o),
(40,553,cs),
(40,453,ls),
(40,428,o),
(55,417,o),
(78,429,cs),
(130,456,ls),
(153,468,o),
(168,458,o),
(168,433,cs),
(168,32,ls),
(168,12,o),
(180,0,o),
(200,0,cs)
);
}
);
width = 478;
}
);
unicode = 49;
},
{
glyphname = two;
lastChange = "2023-08-05 17:46:52 +0000";
layers = (
{
layerId = UUID0;
shapes = (
{
closed = 1;
nodes = (
(482,0,ls),
(492,0,o),
(498,6,o),
(498,16,cs),
(498,56,ls),
(498,66,o),
(492,72,o),
(482,72,cs),
(137,72,l),
(158,47,l),
(279,145,o),
(488,337,o),
(488,488,cs),
(488,579,o),
(429,676,o),
(265,676,cs),
(194,676,o),
(137,655,o),
(95,631,cs),
(87,627,o),
(84,620,o),
(84,612,cs),
(84,569,ls),
(84,556,o),
(92,552,o),
(103,558,cs),
(139,580,o),
(192,604,o),
(259,604,cs),
(389,604,o),
(416,541,o),
(416,488,cs),
(416,346,o),
(203,158,o),
(87,70,cs),
(80,65,o),
(77,59,o),
(77,51,cs),
(77,16,ls),
(77,6,o),
(83,0,o),
(93,0,cs)
);
}
);
width = 581;
},
{
layerId = "ECACF70C-BE42-4FA5-B3A0-AFDA71FB1D31";
shapes = (
{
closed = 1;
nodes = (
(522,0,ls),
(542,0,o),
(554,12,o),
(554,32,cs),
(554,148,ls),
(554,168,o),
(542,180,o),
(522,180,cs),
(238,180,l),
(274,155,l),
(380,227,o),
(540,308,o),
(540,469,cs),
(540,615,o),
(451,682,o),
(309,682,cs),
(215,682,o),
(147,657,o),
(94,628,cs),
(78,619,o),
(72,607,o),
(72,590,cs),
(72,500,ls),
(72,474,o),
(89,465,o),
(111,481,cs),
(157,514,o),
(196,533,o),
(242,533,cs),
(282,533,o),
(339,515,o),
(339,437,cs),
(339,345,o),
(201,214,o),
(89,148,cs),
(74,139,o),
(67,127,o),
(67,110,cs),
(67,32,ls),
(67,12,o),
(79,0,o),
(99,0,cs)
);
}
);
width = 620;
}
);
unicode = 50;
},
{
glyphname = three;
lastChange = "2023-08-05 17:47:14 +0000";
layers = (
{
layerId = UUID0;
shapes = (
{
closed = 1;
nodes = (
(440,-8,o),
(505,94,o),
(505,190,cs),
(505,313,o),
(385,361,o),
(385,361,c),
(385,361,o),
(471,396,o),
(471,496,cs),
(471,583,o),
(413,676,o),
(249,676,cs),
(194,676,o),
(147,664,o),
(109,647,cs),
(101,644,o),
(97,638,o),
(97,629,cs),
(97,590,ls),
(97,578,o),
(104,573,o),
(116,578,cs),
(149,592,o),
(191,604,o),
(241,604,cs),
(343,604,o),
(399,566,o),
(399,496,cs),
(399,427,o),
(346,389,o),
(249,389,cs),
(173,389,l),
(173,320,l),
(246,320,ls),
(367,320,o),
(433,275,o),
(433,192,cs),
(433,109,o),
(368,64,o),
(250,64,cs),
(189,64,o),
(139,79,o),
(100,98,cs),
(89,104,o),
(81,99,o),
(81,87,cs),
(81,47,ls),
(81,38,o),
(85,32,o),
(93,28,cs),
(136,8,o),
(192,-8,o),
(259,-8,cs)
);
}
);
width = 583;
},
{
layerId = "ECACF70C-BE42-4FA5-B3A0-AFDA71FB1D31";
shapes = (
{
closed = 1;
nodes = (
(385,-8,o),
(533,28,o),
(533,187,cs),
(533,273,o),
(480,340,o),
(402,362,c),
(452,372,o),
(506,428,o),
(506,493,cs),
(506,637,o),
(368,676,o),
(263,676,cs),
(208,676,o),
(152,662,o),
(103,640,cs),
(87,633,o),
(80,621,o),
(80,603,cs),
(80,525,ls),
(80,501,o),
(95,491,o),
(119,501,cs),
(176,524,o),
(211,528,o),
(244,528,cs),
(286,528,o),
(333,517,o),
(333,468,cs),
(333,441,o),
(314,413,o),
(263,413,cs),
(152,413,l),
(152,269,l),
(261,269,ls),
(343,269,o),
(362,238,o),
(362,197,cs),
(362,157,o),
(322,136,o),
(264,136,cs),
(208,136,o),
(158,160,o),
(107,190,cs),
(84,203,o),
(68,193,o),
(68,168,cs),
(68,74,ls),
(68,56,o),
(75,44,o),
(91,37,cs),
(147,11,o),
(208,-8,o),
(271,-8,cs)
);
}
);
width = 600;
}
);
unicode = 51;
},
{
glyphname = four;
lastChange = "2023-08-05 17:47:41 +0000";
layers = (
{
layerId = UUID0;
shapes = (
{
closed = 1;
nodes = (
(418,0,ls),
(428,0,o),
(434,6,o),
(434,16,cs),
(434,200,l),
(513,200,ls),
(523,200,o),
(529,206,o),
(529,216,cs),
(529,251,ls),
(529,261,o),
(523,267,o),
(513,267,cs),
(434,267,l),
(434,651,ls),
(434,661,o),
(428,667,o),
(418,667,cs),
(365,667,ls),
(357,667,o),
(350,665,o),
(345,658,cs),
(45,286,ls),
(40,279,o),
(38,274,o),
(38,266,cs),
(38,216,ls),
(38,206,o),
(44,200,o),
(54,200,cs),
(362,200,l),
(362,16,ls),
(362,6,o),
(368,0,o),
(378,0,cs)
);
},
{
closed = 1;
nodes = (
(362,564,l),
(362,267,l),
(118,267,l)
);
}
);
width = 591;
},
{
layerId = "ECACF70C-BE42-4FA5-B3A0-AFDA71FB1D31";
shapes = (
{
closed = 1;
nodes = (
(480,0,ls),
(500,0,o),
(512,12,o),
(512,32,cs),
(512,170,l),
(560,170,ls),
(580,170,o),
(592,182,o),
(592,202,cs),
(592,284,ls),
(592,304,o),
(580,316,o),
(560,316,cs),
(512,316,l),
(512,635,ls),
(512,655,o),
(500,667,o),
(480,667,cs),
(355,667,ls),
(338,667,o),
(326,661,o),
(316,648,cs),
(53,319,ls),
(43,306,o),
(39,296,o),
(39,280,cs),
(39,202,ls),
(39,182,o),
(51,170,o),
(71,170,cs),
(310,170,l),
(310,32,ls),
(310,12,o),
(322,0,o),
(342,0,cs)
);
},
{
closed = 1;
nodes = (
(310,453,l),
(310,316,l),
(202,316,l)
);
}
);
width = 618;
}
);
unicode = 52;
},
{
glyphname = five;
lastChange = "2023-08-05 17:48:52 +0000";
layers = (
{
layerId = UUID0;
shapes = (
{
closed = 1;
nodes = (
(391,-8,o),
(506,29,o),
(506,204,cs),
(506,379,o),
(391,416,o),
(294,416,cs),
(220,416,o),
(143,399,o),
(93,369,c),
(164,381,l),
(183,596,l),
(448,596,ls),
(458,596,o),
(464,602,o),
(464,612,cs),
(464,651,ls),
(464,661,o),
(458,667,o),
(448,667,cs),
(136,667,ls),
(126,667,o),
(120,662,o),
(119,652,cs),
(87,359,l),
(132,313,l),
(132,313,o),
(183,344,o),
(289,344,cs),
(360,344,o),
(435,329,o),
(435,204,cs),
(435,143,o),
(426,62,o),
(289,62,cs),
(209,62,o),
(154,81,o),
(122,98,cs),
(111,103,o),
(103,98,o),
(103,86,cs),
(103,46,ls),
(103,37,o),
(106,31,o),
(114,27,cs),
(155,8,o),
(213,-8,o),
(294,-8,cs)
);
}
);
width = 566;
},
{
layerId = "ECACF70C-BE42-4FA5-B3A0-AFDA71FB1D31";
shapes = (
{
closed = 1;
nodes = (
(433,-14,o),
(577,44,o),
(577,237,cs),
(577,391,o),
(466,464,o),
(336,464,cs),
(225,464,o),
(149,439,o),
(93,381,c),
(216,327,l),
(244,498,l),
(486,498,ls),
(506,498,o),
(518,510,o),
(518,530,cs),
(518,636,ls),
(518,656,o),
(506,668,o),
(486,668,cs),
(154,668,ls),
(135,668,o),
(123,658,o),
(120,639,cs),
(78,363,l),
(162,269,l),
(184,281,o),
(234,298,o),
(277,298,cs),
(333,298,o),
(372,269,o),
(372,219,cs),
(372,165,o),
(309,145,o),
(248,145,cs),
(200,145,o),
(148,167,o),
(110,195,cs),
(88,211,o),
(73,205,o),
(73,178,cs),
(73,69,ls),
(73,52,o),
(78,40,o),
(93,31,cs),
(134,7,o),
(203,-14,o),
(275,-14,cs)
);
}
);
width = 612;
}
);
metricRight = O;
unicode = 53;
},
{
glyphname = six;
lastChange = "2023-08-05 17:49:03 +0000";
layers = (
{
layerId = UUID0;
shapes = (
{
closed = 1;
nodes = (
(459,-8,o),
(519,113,o),
(519,217,cs),
(519,346,o),
(432,427,o),
(292,427,cs),
(215,427,o),
(150,389,o),
(125,372,c),
(124,292,l),
(141,309,o),
(203,360,o),
(292,360,cs),
(392,360,o),
(447,309,o),
(447,218,cs),
(447,181,o),
(436,60,o),
(292,60,cs),
(204,60,o),
(137,99,o),
(137,329,cs),
(137,574,o),
(320,608,o),
(377,608,cs),
(403,608,o),
(427,604,o),
(448,600,cs),
(459,598,o),
(466,603,o),
(466,614,cs),
(466,649,ls),
(466,658,o),
(462,664,o),
(452,667,cs),
(428,672,o),
(400,676,o),
(369,676,cs),
(278,676,o),
(65,640,o),
(65,305,cs),
(65,97,o),
(141,-8,o),
(292,-8,cs)
);
}
);
width = 583;
},
{
layerId = "ECACF70C-BE42-4FA5-B3A0-AFDA71FB1D31";
shapes = (
{
closed = 1;
nodes = (
(503,-14,o),
(608,72,o),
(608,212,cs),
(608,367,o),
(537,440,o),
(375,441,cs),
(239,440,o),
(192,323,o),
(185,253,c),
(237,190,l),
(250,274,o),
(274,301,o),
(335,301,cs),
(376,301,o),
(405,274,o),
(405,216,cs),
(405,165,o),
(373,146,o),
(329,146,cs),
(273,146,o),
(236,175,o),
(236,340,cs),
(236,438,o),
(254,525,o),
(390,525,cs),
(436,525,o),
(471,517,o),
(505,504,cs),
(528,495,o),
(542,504,o),
(542,528,cs),
(542,625,ls),
(542,643,o),
(535,656,o),
(518,662,cs),
(485,673,o),
(437,682,o),
(376,682,cs),
(251,682,o),
(35,641,o),
(35,309,cs),
(35,103,o),
(119,-14,o),
(312,-14,cs)
);
}
);
width = 643;
}
);
unicode = 54;
},
{
glyphname = seven;
lastChange = "2023-08-05 17:49:21 +0000";
layers = (
{
layerId = UUID0;
shapes = (
{
closed = 1;
nodes = (
(223,0,ls),
(232,0,o),
(238,4,o),
(242,12,cs),
(520,591,ls),
(523,597,o),
(525,603,o),
(525,610,cs),
(525,651,ls),
(525,661,o),
(519,667,o),
(509,667,cs),
(86,667,ls),
(76,667,o),
(70,661,o),
(70,651,cs),
(70,611,ls),
(70,601,o),
(76,595,o),
(86,595,cs),
(462,595,l),
(455,618,l),
(165,19,ls),
(160,8,o),
(165,0,o),
(177,0,cs)
);
}
);
width = 574;
},
{
layerId = "ECACF70C-BE42-4FA5-B3A0-AFDA71FB1D31";
shapes = (
{
closed = 1;
nodes = (
(315,0,ls),
(333,0,o),
(346,8,o),
(352,25,cs),
(549,542,ls),
(554,556,o),
(556,567,o),
(556,581,cs),
(556,635,ls),
(556,655,o),
(544,667,o),
(524,667,cs),
(98,667,ls),
(78,667,o),
(66,655,o),
(66,635,cs),
(66,518,ls),
(66,498,o),
(78,486,o),
(98,486,cs),
(385,486,l),
(352,530,l),
(139,37,ls),
(130,15,o),
(140,0,o),
(164,0,cs)
);
}
);
width = 599;
}
);
unicode = 55;
},
{
glyphname = eight;
lastChange = "2016-08-22 16:45:10 +0000";
layers = (
{
layerId = UUID0;
shapes = (
{
closed = 1;
nodes = (
(463,-8,o),
(523,103,o),
(523,198,cs),
(523,320,o),
(411,361,o),
(411,361,cs),
(411,361,o),
(498,395,o),
(498,503,cs),
(498,587,o),
(444,676,o),
(292,676,cs),
(141,676,o),
(86,587,o),
(86,503,cs),
(86,398,o),
(176,360,o),
(176,360,cs),
(176,360,o),
(61,321,o),
(61,198,cs),
(61,103,o),
(122,-8,o),
(292,-8,cs)
);
},
{
closed = 1;
nodes = (
(145,60,o),
(133,166,o),
(133,198,cs),
(133,278,o),
(190,322,o),
(292,322,cs),
(395,322,o),
(451,278,o),
(451,198,cs),
(451,166,o),
(440,60,o),
(292,60,cs)
);
},
{
closed = 1;
nodes = (
(208,388,o),
(158,431,o),
(158,503,cs),
(158,588,o),
(231,605,o),
(292,605,cs),
(353,605,o),
(426,588,o),
(426,503,cs),
(426,431,o),
(376,388,o),
(292,388,cs)
);
}
);
width = 582;
},
{
layerId = "ECACF70C-BE42-4FA5-B3A0-AFDA71FB1D31";
shapes = (
{
closed = 1;
nodes = (
(518,-14,o),
(617,55,o),
(617,184,c),
(617,262,o),
(570,311,o),
(504,339,c),
(556,364,o),
(601,407,o),
(601,482,c),
(601,621,o),
(510,682,o),
(326,682,c),
(142,682,o),
(51,621,o),
(51,482,c),
(51,407,o),
(96,364,o),
(148,339,c),
(82,311,o),
(35,262,o),
(35,184,c),
(35,55,o),
(134,-14,o),
(326,-14,c)
);
},
{
closed = 1;
nodes = (
(274,137,o),
(248,177,o),
(248,222,c),
(248,250,o),
(274,292,o),
(326,292,c),
(378,292,o),
(404,250,o),
(404,222,c),
(404,177,o),
(378,137,o),
(326,137,c)
);
},
{
closed = 1;
nodes = (
(303,393,o),
(258,413,o),
(258,458,c),
(258,492,o),
(282,531,o),
(326,531,c),
(370,531,o),
(394,492,o),
(394,458,c),
(394,413,o),
(349,393,o),
(326,393,c)
);
}
);
width = 652;
}
);
unicode = 56;
},
{
glyphname = nine;
lastChange = "2023-08-05 17:49:32 +0000";
layers = (
{
background = {
shapes = (
{
closed = 1;
nodes = (
(299,-8,o),
(512,28,o),
(512,362,cs),
(512,570,o),
(436,676,o),
(285,676,cs),
(118,676,o),
(58,555,o),
(58,451,cs),
(58,321,o),
(145,241,o),
(285,241,cs),
(362,241,o),
(411,267,o),
(435,285,c),
(413,75,o),
(257,60,o),
(200,60,cs),
(166,60,o),
(135,65,o),
(111,72,c),
(111,4,l),
(138,-3,o),
(171,-8,o),
(208,-8,cs)
);
},
{
closed = 1;
nodes = (
(185,308,o),
(130,359,o),
(130,450,cs),
(130,487,o),
(141,608,o),
(285,608,cs),
(331,608,o),
(438,608,o),
(440,365,c),
(423,347,o),
(374,308,o),
(285,308,cs)
);
}
);
};
layerId = UUID0;
shapes = (
{
closed = 1;
nodes = (
(306,-8,o),
(519,28,o),
(519,363,cs),
(519,571,o),
(443,676,o),
(292,676,cs),
(125,676,o),
(65,555,o),
(65,451,cs),
(65,322,o),
(152,241,o),
(292,241,cs),
(369,241,o),
(434,279,o),
(459,296,c),
(460,376,l),
(443,359,o),
(381,308,o),
(292,308,cs),
(192,308,o),
(137,359,o),
(137,450,cs),
(137,487,o),
(148,608,o),
(292,608,cs),
(380,608,o),
(447,569,o),
(447,339,cs),
(447,94,o),
(264,60,o),
(207,60,cs),
(181,60,o),
(157,64,o),
(136,68,cs),
(125,70,o),
(118,65,o),
(118,54,cs),
(118,19,ls),
(118,10,o),
(122,4,o),
(132,1,cs),
(156,-4,o),
(184,-8,o),
(215,-8,cs)
);
}
);
width = 587;
},
{
layerId = "ECACF70C-BE42-4FA5-B3A0-AFDA71FB1D31";
shapes = (
{
closed = 1;
nodes = (
(392,-14,o),
(608,27,o),
(608,359,cs),
(608,565,o),
(524,682,o),
(310,682,cs),
(140,682,o),
(35,596,o),
(35,456,cs),
(35,301,o),
(106,228,o),
(268,227,cs),
(404,228,o),
(451,345,o),
(458,415,c),
(406,478,l),
(393,394,o),
(369,367,o),
(309,367,cs),
(267,367,o),
(238,394,o),
(238,452,cs),
(238,503,o),
(270,522,o),
(310,522,cs),
(370,522,o),
(407,493,o),
(407,328,cs),
(407,230,o),
(389,143,o),
(253,143,cs),
(207,143,o),
(172,151,o),
(138,164,cs),
(115,173,o),
(101,164,o),
(101,140,cs),
(101,43,ls),
(101,25,o),
(108,12,o),
(125,6,cs),
(158,-5,o),
(206,-14,o),
(267,-14,cs)
);
}
);
width = 646;
}
);
unicode = 57;
},
{
glyphname = zero.dnom;
kernLeft = six.denominator;
lastChange = "2017-07-04 14:12:15 +0000";
layers = (
{
layerId = UUID0;
shapes = (
{
closed = 1;
nodes = (
(283,-5,o),
(331,57,o),
(331,179,cs),
(331,301,o),
(283,363,o),
(190,363,cs),
(96,363,o),
(48,301,o),
(48,179,cs),
(48,57,o),
(96,-5,o),
(190,-5,cs)
);
},
{
closed = 1;
nodes = (
(164,45,o),
(109,62,o),
(109,179,cs),
(109,296,o),
(164,313,o),
(190,313,cs),
(215,313,o),
(270,296,o),
(270,179,cs),
(270,62,o),
(215,45,o),
(190,45,cs)
);
}
);
width = 379;
},
{
layerId = "ECACF70C-BE42-4FA5-B3A0-AFDA71FB1D31";
shapes = (
{
closed = 1;
nodes = (
(317,-14,o),
(365,48,o),
(365,170,cs),
(365,291,o),
(317,354,o),
(190,354,cs),
(64,354,o),
(15,291,o),
(15,170,cs),
(15,48,o),
(64,-14,o),
(190,-14,cs)
);
},
{
closed = 1;
nodes = (
(166,86,o),
(141,101,o),
(141,170,cs),
(141,239,o),
(166,255,o),
(190,255,cs),
(216,255,o),
(239,239,o),
(239,170,cs),
(239,101,o),
(216,86,o),
(190,86,cs)
);
}
);
width = 380;
}
);
},
{
glyphname = one.dnom;
lastChange = "2023-08-05 17:50:11 +0000";
layers = (
{
layerId = UUID0;
shapes = (
{
closed = 1;
nodes = (
(151,1,ls),
(158,1,o),
(163,6,o),
(163,13,cs),
(163,348,ls),
(163,355,o),
(158,360,o),
(151,360,cs),
(127,360,ls),
(122,360,o),
(117,359,o),
(112,356,cs),
(61,323,ls),
(56,320,o),
(53,315,o),
(53,309,cs),
(53,259,ls),
(53,250,o),
(59,245,o),
(68,251,cs),
(108,278,l),
(95,319,l),
(95,13,ls),
(95,6,o),
(100,1,o),
(107,1,cs)
);
}
);
width = 234;
},
{
layerId = "ECACF70C-BE42-4FA5-B3A0-AFDA71FB1D31";
shapes = (
{
closed = 1;
nodes = (
(171,0,ls),
(186,0,o),
(195,9,o),
(195,24,cs),
(195,335,ls),
(195,350,o),
(186,359,o),
(171,359,cs),
(108,359,ls),
(97,359,o),
(88,356,o),
(78,350,cs),
(33,322,ls),
(22,315,o),
(17,306,o),
(17,293,cs),
(17,234,ls),
(17,215,o),
(30,208,o),
(46,217,cs),
(91,242,l),
(75,270,l),
(75,24,ls),
(75,9,o),
(84,0,o),
(99,0,cs)
);
}
);
width = 250;
}
);
},
{
glyphname = two.dnom;
lastChange = "2023-08-05 17:50:27 +0000";
layers = (
{
layerId = UUID0;
shapes = (
{
closed = 1;
nodes = (
(267,1,ls),
(274,1,o),
(279,6,o),
(279,13,cs),
(279,48,ls),
(279,55,o),
(274,60,o),
(267,60,cs),
(117,60,l),
(127,40,l),
(192,93,o),
(274,182,o),
(274,264,cs),
(274,312,o),
(242,364,o),
(154,364,cs),
(118,364,o),
(88,354,o),
(65,342,cs),
(59,339,o),
(57,333,o),
(57,327,cs),
(57,290,ls),
(57,281,o),
(63,277,o),
(71,282,cs),
(90,293,o),
(115,303,o),
(140,303,cs),
(180,303,o),
(205,280,o),
(205,252,cs),
(205,176,o),
(121,87,o),
(60,40,cs),
(55,37,o),
(53,32,o),
(53,26,cs),
(53,13,ls),
(53,6,o),
(58,1,o),
(65,1,cs)
);
}
);
width = 328;
},
{
layerId = "ECACF70C-BE42-4FA5-B3A0-AFDA71FB1D31";
shapes = (
{
closed = 1;
nodes = (
(285,0,ls),
(300,0,o),
(309,9,o),
(309,24,cs),
(309,89,ls),
(309,104,o),
(300,113,o),
(285,113,cs),
(164,113,l),
(174,103,l),
(254,132,o),
(307,187,o),
(307,249,cs),
(307,305,o),
(273,364,o),
(157,364,cs),
(122,364,o),
(89,352,o),
(61,337,cs),
(50,331,o),
(45,322,o),
(45,309,cs),
(45,268,ls),
(45,249,o),
(56,243,o),
(73,253,cs),
(89,262,o),
(107,268,o),
(133,268,cs),
(156,268,o),
(182,253,o),
(182,216,cs),
(182,161,o),
(109,119,o),
(58,84,cs),
(47,76,o),
(43,67,o),
(43,55,cs),
(43,24,ls),
(43,9,o),
(52,0,o),
(67,0,cs)
);
}
);
width = 339;
}
);
},
{
glyphname = three.dnom;
lastChange = "2023-08-05 17:50:39 +0000";
layers = (
{
layerId = UUID0;
shapes = (
{
closed = 1;
nodes = (
(246,-3,o),
(281,52,o),
(281,103,cs),
(281,169,o),
(235,183,o),
(217,195,c),
(217,195,o),
(263,214,o),
(263,268,cs),
(263,314,o),
(232,364,o),
(144,364,cs),
(115,364,o),
(91,358,o),
(71,350,cs),
(65,347,o),
(62,342,o),
(62,336,cs),
(62,299,ls),
(62,290,o),
(67,287,o),
(76,291,cs),
(93,298,o),
(114,303,o),
(139,303,cs),
(172,303,o),
(195,288,o),
(195,268,cs),
(195,230,o),
(167,220,o),
(144,220,cs),
(103,220,l),
(103,163,l),
(142,163,ls),
(178,163,o),
(214,149,o),
(214,113,cs),
(214,71,o),
(179,57,o),
(144,57,cs),
(113,57,o),
(87,65,o),
(67,74,cs),
(59,78,o),
(53,74,o),
(53,65,cs),
(53,29,ls),
(53,23,o),
(56,18,o),
(62,15,cs),
(85,5,o),
(114,-3,o),
(149,-3,cs)
);
}
);
width = 323;
},
{
layerId = "ECACF70C-BE42-4FA5-B3A0-AFDA71FB1D31";
shapes = (
{
closed = 1;
nodes = (
(210,-5,o),
(304,14,o),
(304,100,cs),
(304,146,o),
(275,182,o),
(233,194,c),
(260,199,o),
(289,229,o),
(289,264,cs),
(289,342,o),
(201,363,o),
(145,363,cs),
(117,363,o),
(89,356,o),
(65,345,cs),
(52,340,o),
(47,330,o),
(47,317,cs),
(47,289,ls),
(47,271,o),
(57,265,o),
(75,271,cs),
(88,275,o),
(102,278,o),
(115,278,cs),
(137,278,o),
(162,269,o),
(162,251,cs),
(162,236,o),
(152,221,o),
(125,221,cs),
(85,221,l),
(85,155,l),
(124,155,ls),
(168,155,o),
(178,133,o),
(178,115,cs),
(178,94,o),
(157,78,o),
(125,78,cs),
(104,78,o),
(89,85,o),
(69,96,cs),
(52,106,o),
(40,99,o),
(40,80,cs),
(40,45,ls),
(40,32,o),
(45,22,o),
(58,17,cs),
(86,4,o),
(117,-5,o),
(149,-5,cs)
);
}
);
width = 335;
}
);
},
{
glyphname = four.dnom;
lastChange = "2023-08-05 17:50:56 +0000";
layers = (
{
layerId = UUID0;
shapes = (
{
closed = 1;
nodes = (
(230,1,ls),
(237,1,o),
(242,6,o),
(242,13,cs),
(242,89,l),
(281,89,ls),
(288,89,o),
(293,94,o),
(293,101,cs),
(293,133,ls),
(293,140,o),
(288,145,o),
(281,145,cs),
(242,145,l),
(242,348,ls),
(242,355,o),
(237,360,o),
(230,360,cs),
(208,360,ls),
(202,360,o),
(197,358,o),
(193,353,cs),
(34,157,ls),
(30,153,o),
(29,148,o),
(29,142,cs),
(29,101,ls),
(29,94,o),
(34,89,o),
(41,89,cs),
(173,89,l),
(173,13,ls),
(173,6,o),
(178,1,o),
(185,1,cs)
);
},
{
closed = 1;
nodes = (
(223,304,l),
(173,291,l),
(173,145,l),
(92,145,l)
);
}
);
width = 328;
},
{
layerId = "ECACF70C-BE42-4FA5-B3A0-AFDA71FB1D31";
shapes = (
{
closed = 1;
nodes = (
(266,0,ls),
(281,0,o),
(290,9,o),
(290,24,cs),
(290,81,l),
(309,81,ls),
(324,81,o),
(333,90,o),
(333,105,cs),
(333,146,ls),
(333,161,o),
(324,170,o),
(309,170,cs),
(290,170,l),
(290,335,ls),
(290,350,o),
(281,359,o),
(266,359,cs),
(199,359,ls),
(187,359,o),
(178,355,o),
(170,345,cs),
(34,175,ls),
(27,166,o),
(24,157,o),
(24,145,cs),
(24,105,ls),
(24,90,o),
(33,81,o),
(48,81,cs),
(180,81,l),
(180,24,ls),
(180,9,o),
(189,0,o),
(204,0,cs)
);
},
{
closed = 1;
nodes = (
(197,268,l),
(180,268,l),
(180,170,l),
(122,170,l)
);
}
);
width = 343;
}
);
},
{
glyphname = five.dnom;
lastChange = "2023-08-05 17:51:11 +0000";
layers = (
{
layerId = UUID0;
shapes = (
{
closed = 1;
nodes = (
(218,-3,o),
(280,17,o),
(280,111,cs),
(280,205,o),
(218,224,o),
(180,224,cs),
(152,224,o),
(134,220,o),
(116,215,c),
(126,301,l),
(245,301,ls),
(252,301,o),
(257,306,o),
(257,313,cs),
(257,348,ls),
(257,355,o),
(252,360,o),
(245,360,cs),
(84,360,ls),
(77,360,o),
(73,357,o),
(72,349,cs),
(55,194,l),
(79,149,l),
(79,149,o),
(106,166,o),
(141,166,cs),
(171,166,o),
(212,158,o),
(212,103,cs),
(212,67,o),
(187,54,o),
(148,54,cs),
(120,54,o),
(94,63,o),
(77,71,cs),
(69,76,o),
(63,72,o),
(63,63,cs),
(63,29,ls),
(63,23,o),
(66,18,o),
(72,15,cs),
(93,5,o),
(124,-3,o),
(166,-3,cs)
);
}
);
width = 319;
},
{
layerId = "ECACF70C-BE42-4FA5-B3A0-AFDA71FB1D31";
shapes = (
{
closed = 1;
nodes = (
(252,-14,o),
(311,20,o),
(311,113,cs),
(311,197,o),
(247,227,o),
(191,227,cs),
(160,227,o),
(152,227,o),
(144,226,c),
(146,257,l),
(264,257,ls),
(279,257,o),
(288,266,o),
(288,281,cs),
(288,326,ls),
(288,341,o),
(279,350,o),
(264,350,cs),
(89,350,ls),
(74,350,o),
(65,342,o),
(63,327,cs),
(46,176,l),
(97,141,l),
(110,148,o),
(125,155,o),
(142,155,cs),
(166,155,o),
(185,141,o),
(185,118,cs),
(185,92,o),
(172,78,o),
(138,78,cs),
(120,78,o),
(101,82,o),
(82,90,cs),
(65,97,o),
(54,91,o),
(54,73,cs),
(54,30,ls),
(54,17,o),
(60,7,o),
(72,2,cs),
(101,-8,o),
(133,-14,o),
(171,-14,cs)
);
}
);
width = 326;
}
);
},
{
glyphname = six.dnom;
kernLeft = six.denominator;
lastChange = "2023-08-05 17:51:21 +0000";
layers = (
{
layerId = UUID0;
shapes = (
{
closed = 1;
nodes = (
(268,-3,o),
(300,62,o),
(300,118,cs),
(300,187,o),
(253,230,o),
(178,230,cs),
(137,230,o),
(110,216,o),
(97,207,c),
(110,300,o),
(193,308,o),
(224,308,cs),
(237,308,o),
(248,307,o),
(259,304,cs),
(267,303,o),
(272,307,o),
(272,315,cs),
(272,347,ls),
(272,354,o),
(268,359,o),
(261,360,cs),
(249,362,o),
(235,364,o),
(220,364,cs),
(140,364,o),
(26,345,o),
(26,165,cs),
(26,54,o),
(67,-3,o),
(178,-3,cs)
);
},
{
closed = 1;
nodes = (
(143,53,o),
(96,63,o),
(95,144,c),
(104,153,o),
(130,174,o),
(165,174,cs),
(202,174,o),
(231,147,o),
(231,118,cs),
(231,78,o),
(215,53,o),
(168,53,cs)
);
}
);
width = 338;
},
{
layerId = "ECACF70C-BE42-4FA5-B3A0-AFDA71FB1D31";
shapes = (
{
closed = 1;
nodes = (
(277,-5,o),
(326,45,o),
(326,126,cs),
(326,202,o),
(276,236,o),
(227,236,cs),
(168,236,o),
(150,219,o),
(138,203,c),
(138,264,o),
(188,284,o),
(222,284,cs),
(231,284,o),
(243,283,o),
(260,279,cs),
(277,276,o),
(287,283,o),
(287,300,cs),
(287,330,ls),
(287,343,o),
(281,353,o),
(268,357,cs),
(252,361,o),
(232,363,o),
(214,363,cs),
(128,363,o),
(12,344,o),
(12,165,cs),
(12,53,o),
(57,-5,o),
(180,-5,cs)
);
},
{
closed = 1;
nodes = (
(149,65,o),
(139,98,o),
(139,134,c),
(145,151,o),
(160,168,o),
(174,168,cs),
(186,168,o),
(199,157,o),
(199,116,cs),
(199,91,o),
(186,65,o),
(170,65,cs)
);
}
);
width = 347;
}
);
},
{
glyphname = seven.dnom;
lastChange = "2023-08-05 17:51:38 +0000";
layers = (
{
layerId = UUID0;
shapes = (
{
closed = 1;
nodes = (
(129,1,ls),
(135,1,o),
(140,3,o),
(143,10,cs),
(281,316,ls),
(283,322,o),
(284,326,o),
(284,331,cs),
(284,348,ls),
(284,355,o),
(279,360,o),
(272,360,cs),
(52,360,ls),
(45,360,o),
(40,355,o),
(40,348,cs),
(40,313,ls),
(40,306,o),
(45,301,o),
(52,301,cs),
(264,301,l),
(234,354,l),
(82,15,ls),
(78,6,o),
(82,1,o),
(91,1,cs)
);
}
);
width = 315;
},
{
layerId = "ECACF70C-BE42-4FA5-B3A0-AFDA71FB1D31";
shapes = (
{
closed = 1;
nodes = (
(168,0,ls),
(181,0,o),
(190,7,o),
(195,19,cs),
(301,287,ls),
(305,298,o),
(307,305,o),
(307,316,cs),
(307,335,ls),
(307,350,o),
(298,359,o),
(283,359,cs),
(59,359,ls),
(44,359,o),
(35,350,o),
(35,335,cs),
(35,271,ls),
(35,256,o),
(44,247,o),
(59,247,cs),
(243,247,l),
(191,314,l),
(64,28,ls),
(57,11,o),
(64,0,o),
(82,0,cs)
);
}
);
width = 322;
}
);
},
{
glyphname = eight.dnom;
kernRight = nine.denominator;
lastChange = "2016-08-31 21:02:48 +0000";
layers = (
{
layerId = UUID0;
shapes = (
{
closed = 1;
nodes = (
(258,-3,o),
(291,57,o),
(291,108,cs),
(291,173,o),
(231,195,o),
(231,195,cs),
(231,195,o),
(277,214,o),
(277,272,cs),
(277,316,o),
(248,364,o),
(167,364,cs),
(85,364,o),
(56,316,o),
(56,272,cs),
(56,215,o),
(104,195,o),
(104,195,cs),
(104,195,o),
(43,174,o),
(43,108,cs),
(43,57,o),
(75,-3,o),
(167,-3,cs)
);
},
{
closed = 1;
nodes = (
(134,54,o),
(112,80,o),
(112,108,cs),
(112,150,o),
(138,169,o),
(167,169,cs),
(195,169,o),
(222,150,o),
(222,108,cs),
(222,80,o),
(209,54,o),
(167,54,cs)
);
},
{
closed = 1;
nodes = (
(137,220,o),
(126,243,o),
(126,263,cs),
(126,297,o),
(149,306,o),
(167,306,cs),
(190,306,o),
(209,297,o),
(209,264,cs),
(209,243,o),
(196,220,o),
(167,220,cs)
);
}
);
width = 332;
},
{
layerId = "ECACF70C-BE42-4FA5-B3A0-AFDA71FB1D31";
shapes = (
{
closed = 1;
nodes = (
(285,-5,o),
(336,31,o),
(336,104,cs),
(336,148,o),
(302,182,o),
(264,192,c),
(292,200,o),
(321,226,o),
(321,264,cs),
(321,331,o),
(277,363,o),
(171,363,cs),
(65,363,o),
(20,331,o),
(20,264,cs),
(20,226,o),
(50,200,o),
(78,192,c),
(40,182,o),
(6,148,o),
(6,104,cs),
(6,31,o),
(57,-5,o),
(171,-5,cs)
);
},
{
closed = 1;
nodes = (
(142,71,o),
(129,91,o),
(129,115,cs),
(129,130,o),
(142,151,o),
(171,151,cs),
(200,151,o),
(212,130,o),
(212,115,cs),
(212,91,o),
(200,71,o),
(171,71,cs)
);
},
{
closed = 1;
nodes = (
(154,217,o),
(136,226,o),
(136,251,cs),
(136,269,o),
(146,287,o),
(171,287,cs),
(197,287,o),
(207,269,o),
(207,251,cs),
(207,226,o),
(190,217,o),
(171,217,cs)
);
}
);
width = 343;
}
);
},
{
glyphname = nine.dnom;
kernRight = nine.denominator;
lastChange = "2023-08-05 17:51:48 +0000";
layers = (
{
layerId = UUID0;
shapes = (
{
closed = 1;
nodes = (
(189,-3,o),
(303,16,o),
(303,196,cs),
(303,308,o),
(262,364,o),
(151,364,cs),
(61,364,o),
(29,299,o),
(29,243,cs),
(29,174,o),
(76,131,o),
(151,131,cs),
(192,131,o),
(219,145,o),
(232,154,c),
(220,61,o),
(136,53,o),
(105,53,cs),
(92,53,o),
(81,54,o),
(70,57,cs),
(62,58,o),
(57,54,o),
(57,46,cs),
(57,15,ls),
(57,8,o),
(60,3,o),
(67,2,cs),
(80,-1,o),
(94,-3,o),
(110,-3,cs)
);
},
{
closed = 1;
nodes = (
(127,187,o),
(98,214,o),
(98,243,cs),
(98,263,o),
(104,308,o),
(151,308,cs),
(192,308,o),
(234,299,o),
(234,217,c),
(225,208,o),
(199,187,o),
(151,187,cs)
);
}
);
width = 338;
},
{
layerId = "ECACF70C-BE42-4FA5-B3A0-AFDA71FB1D31";
shapes = (
{
closed = 1;
nodes = (
(210,-14,o),
(326,5,o),
(326,184,cs),
(326,296,o),
(281,354,o),
(158,354,cs),
(61,354,o),
(12,304,o),
(12,223,cs),
(12,147,o),
(62,113,o),
(111,113,cs),
(170,113,o),
(188,130,o),
(200,146,c),
(200,85,o),
(150,65,o),
(116,65,cs),
(107,65,o),
(95,66,o),
(78,70,cs),
(61,73,o),
(51,66,o),
(51,49,cs),
(51,19,ls),
(51,6,o),
(57,-4,o),
(70,-8,cs),
(86,-12,o),
(106,-14,o),
(124,-14,cs)
);
},
{
closed = 1;
nodes = (
(152,181,o),
(139,192,o),
(139,233,cs),
(139,258,o),
(152,284,o),
(168,284,cs),
(189,284,o),
(199,251,o),
(199,215,c),
(193,198,o),
(178,181,o),
(164,181,cs)
);
}
);
width = 349;
}
);
},
{
glyphname = zero.numr;
kernLeft = six.numerator;
kernRight = nine.numerator;
lastChange = "2017-07-04 14:13:09 +0000";
layers = (
{
background = {
shapes = (
{
closed = 1;
nodes = (
(281,309,o),
(329,371,o),
(329,493,cs),
(329,615,o),
(281,677,o),
(188,677,cs),
(94,677,o),
(46,615,o),
(46,493,cs),
(46,371,o),
(94,309,o),
(188,309,cs)
);
},
{
closed = 1;
nodes = (
(140,345,o),
(85,362,o),
(85,493,cs),
(85,624,o),
(140,641,o),
(188,641,cs),
(235,641,o),
(290,624,o),
(290,493,cs),
(290,362,o),
(235,345,o),
(188,345,cs)
);
}
);
};
layerId = UUID0;
shapes = (
{
pos = (0,314);
ref = zero.dnom;
}
);
width = 379;
},
{
background = {
shapes = (
{
closed = 1;
nodes = (
(284,310,o),
(332,372,o),
(332,494,cs),
(332,615,o),
(284,678,o),
(187,678,cs),
(91,678,o),
(42,615,o),
(42,494,cs),
(42,372,o),
(91,310,o),
(187,310,cs)
);
},
{
closed = 1;
nodes = (
(163,390,o),
(135,405,o),
(135,494,cs),
(135,583,o),
(163,599,o),
(187,599,cs),
(213,599,o),
(241,583,o),
(241,494,cs),
(241,405,o),
(213,390,o),
(187,390,cs)
);
}
);
};
layerId = "ECACF70C-BE42-4FA5-B3A0-AFDA71FB1D31";
shapes = (
{
pos = (0,326);
ref = zero.dnom;
}
);
width = 380;
}
);
},
{
glyphname = one.numr;
kernLeft = one.numerator;
kernRight = one.numerator;
lastChange = "2016-08-31 15:20:56 +0000";
layers = (
{
background = {
shapes = (
{
closed = 1;
nodes = (
(163,315,l),
(163,674,l),
(119,674,l),
(53,632,l),
(53,586,l),
(125,633,l),
(125,315,l)
);
}
);
};
layerId = UUID0;
shapes = (
{
pos = (0,314);
ref = one.dnom;
}
);
width = 234;
},
{
background = {
shapes = (
{
closed = 1;
nodes = (
(196,315,l),
(196,674,l),
(120,674,l),
(45,627,l),
(45,536,l),
(103,571,l),
(103,315,l)
);
}
);
};
layerId = "ECACF70C-BE42-4FA5-B3A0-AFDA71FB1D31";
shapes = (
{
pos = (0,312);
ref = one.dnom;
}
);
width = 250;
}
);
},
{
glyphname = two.numr;
lastChange = "2016-08-31 15:21:01 +0000";
layers = (
{
background = {
shapes = (
{
closed = 1;
nodes = (
(279,315,l),
(279,354,l),
(117,354,l),
(182,407,o),
(274,496,o),
(274,578,cs),
(274,626,o),
(242,678,o),
(154,678,cs),
(113,678,o),
(80,665,o),
(57,651,c),
(57,609,l),
(75,622,o),
(108,639,o),
(151,639,cs),
(220,639,o),
(235,606,o),
(235,578,cs),
(235,499,o),
(114,394,o),
(53,349,c),
(53,315,l)
);
}
);
};
layerId = UUID0;
shapes = (
{
pos = (0,314);
ref = two.dnom;
}
);
width = 328;
},
{
background = {
shapes = (
{
closed = 1;
nodes = (
(295,315,l),
(295,398,l),
(190,398,l),
(234,437,o),
(293,503,o),
(293,564,cs),
(293,620,o),
(259,679,o),
(163,679,cs),
(121,679,o),
(82,662,o),
(51,643,c),
(51,549,l),
(86,577,o),
(125,593,o),
(154,593,cs),
(186,593,o),
(201,578,o),
(201,557,cs),
(201,504,o),
(100,426,o),
(49,388,c),
(49,315,l)
);
}
);
};
layerId = "ECACF70C-BE42-4FA5-B3A0-AFDA71FB1D31";
shapes = (
{
pos = (0,326);
ref = two.dnom;
}
);
width = 339;
}
);
},
{
glyphname = three.numr;
kernRight = one.numerator;
lastChange = "2016-08-31 15:21:09 +0000";
layers = (
{
background = {
shapes = (
{
closed = 1;
nodes = (
(246,311,o),
(281,366,o),
(281,417,cs),
(281,483,o),
(217,509,o),
(217,509,cs),
(217,509,o),
(263,528,o),
(263,582,cs),
(263,628,o),
(232,678,o),
(144,678,cs),
(111,678,o),
(84,670,o),
(62,660,c),
(62,621,l),
(81,631,o),
(107,639,o),
(139,639,cs),
(194,639,o),
(224,619,o),
(224,582,cs),
(224,544,o),
(196,524,o),
(144,524,cs),
(103,524,l),
(103,487,l),
(142,487,ls),
(207,487,o),
(243,463,o),
(243,418,cs),
(243,374,o),
(208,349,o),
(144,349,cs),
(106,349,o),
(75,361,o),
(53,373,c),
(53,333,l),
(78,321,o),
(110,311,o),
(149,311,cs)
);
}
);
};
layerId = UUID0;
shapes = (
{
pos = (0,314);
ref = three.dnom;
}
);
width = 323;
},
{
layerId = "ECACF70C-BE42-4FA5-B3A0-AFDA71FB1D31";
shapes = (
{
pos = (0,326);
ref = three.dnom;
}
);
width = 335;
}
);
},
{
glyphname = four.numr;
lastChange = "2016-08-31 15:21:16 +0000";
layers = (
{
background = {
shapes = (
{
closed = 1;
nodes = (
(242,315,l),
(242,423,l),
(293,423,l),
(293,459,l),
(242,459,l),
(242,674,l),
(199,674,l),
(29,464,l),
(29,423,l),
(203,423,l),
(203,315,l)
);
},
{
closed = 1;
nodes = (
(203,618,l),
(203,459,l),
(72,459,l)
);
}
);
};
layerId = UUID0;
shapes = (
{
pos = (0,314);
ref = four.dnom;
}
);
width = 328;
},
{
layerId = "ECACF70C-BE42-4FA5-B3A0-AFDA71FB1D31";
shapes = (
{
pos = (0,312);
ref = four.dnom;
}
);
width = 343;
}
);
},
{
glyphname = five.numr;
kernRight = one.numerator;
lastChange = "2016-08-31 15:21:23 +0000";
layers = (
{
background = {
shapes = (
{
closed = 1;
nodes = (
(218,311,o),
(280,331,o),
(280,425,cs),
(280,519,o),
(218,538,o),
(166,538,cs),
(137,538,o),
(114,534,o),
(96,529,c),
(106,635,l),
(257,635,l),
(257,674,l),
(73,674,l),
(55,508,l),
(79,483,l),
(79,483,o),
(106,500,o),
(163,500,cs),
(201,500,o),
(242,492,o),
(242,425,cs),
(242,392,o),
(237,348,o),
(163,348,cs),
(111,348,o),
(78,364,o),
(63,373,c),
(63,333,l),
(85,321,o),
(118,311,o),
(166,311,cs)
);
}
);
};
layerId = UUID0;
shapes = (
{
pos = (0,314);
ref = five.dnom;
}
);
width = 319;
},
{
layerId = "ECACF70C-BE42-4FA5-B3A0-AFDA71FB1D31";
shapes = (
{
pos = (0,312);
ref = five.dnom;
}
);
width = 326;
}
);
},
{
glyphname = six.numr;
kernLeft = six.numerator;
kernRight = one.numerator;
lastChange = "2016-08-31 15:21:29 +0000";
layers = (
{
background = {
shapes = (
{
closed = 1;
nodes = (
(268,311,o),
(300,376,o),
(300,432,cs),
(300,501,o),
(253,544,o),
(178,544,cs),
(137,544,o),
(110,530,o),
(97,521,c),
(110,634,o),
(193,642,o),
(224,642,cs),
(242,642,o),
(258,639,o),
(272,635,c),
(272,671,l),
(257,675,o),
(239,678,o),
(220,678,cs),
(170,678,o),
(56,659,o),
(56,479,cs),
(56,367,o),
(97,311,o),
(178,311,cs)
);
},
{
closed = 1;
nodes = (
(153,347,o),
(96,347,o),
(95,478,c),
(104,487,o),
(130,508,o),
(178,508,cs),
(232,508,o),
(261,481,o),
(261,432,cs),
(261,412,o),
(255,347,o),
(178,347,cs)
);
}
);
};
layerId = UUID0;
shapes = (
{
pos = (0,314);
ref = six.dnom;
}
);
width = 338;
},
{
layerId = "ECACF70C-BE42-4FA5-B3A0-AFDA71FB1D31";
shapes = (
{
pos = (0,326);
ref = six.dnom;
}
);
width = 347;
}
);
},
{
glyphname = seven.numr;
lastChange = "2016-08-31 15:21:39 +0000";
layers = (
{
background = {
shapes = (
{
closed = 1;
nodes = (
(129,315,l),
(284,637,l),
(284,674,l),
(40,674,l),
(40,635,l),
(242,635,l),
(86,315,l)
);
}
);
};
layerId = UUID0;
shapes = (
{
pos = (0,314);
ref = seven.dnom;
}
);
width = 315;
},
{
layerId = "ECACF70C-BE42-4FA5-B3A0-AFDA71FB1D31";
shapes = (
{
pos = (0,312);
ref = seven.dnom;
}
);
width = 322;
}
);
},
{
glyphname = eight.numr;
kernLeft = one.numerator;
kernRight = one.numerator;
lastChange = "2016-08-31 15:21:45 +0000";
layers = (
{
background = {
shapes = (
{
closed = 1;
nodes = (
(258,311,o),
(291,371,o),
(291,422,cs),
(291,487,o),
(231,509,o),
(231,509,cs),
(231,509,o),
(277,528,o),
(277,586,cs),
(277,630,o),
(248,678,o),
(167,678,cs),
(85,678,o),
(56,630,o),
(56,586,cs),
(56,529,o),
(104,509,o),
(104,509,cs),
(104,509,o),
(43,488,o),
(43,422,cs),
(43,371,o),
(75,311,o),
(167,311,cs)
);
},
{
closed = 1;
nodes = (
(88,347,o),
(81,404,o),
(81,422,cs),
(81,464,o),
(112,488,o),
(167,488,cs),
(222,488,o),
(252,464,o),
(252,422,cs),
(252,404,o),
(246,347,o),
(167,347,cs)
);
},
{
closed = 1;
nodes = (
(122,524,o),
(95,547,o),
(95,585,cs),
(95,631,o),
(134,640,o),
(167,640,cs),
(200,640,o),
(239,631,o),
(239,585,cs),
(239,547,o),
(212,524,o),
(167,524,cs)
);
}
);
};
layerId = UUID0;
shapes = (
{
pos = (0,314);
ref = eight.dnom;
}
);
width = 332;
},
{
layerId = "ECACF70C-BE42-4FA5-B3A0-AFDA71FB1D31";
shapes = (
{
pos = (0,326);
ref = eight.dnom;
}
);
width = 343;
}
);
},
{
glyphname = nine.numr;
kernRight = nine.numerator;
lastChange = "2016-08-31 15:21:51 +0000";
layers = (
{
background = {
shapes = (
{
closed = 1;
nodes = (
(179,311,o),
(293,330,o),
(293,510,cs),
(293,622,o),
(252,678,o),
(171,678,cs),
(81,678,o),
(49,613,o),
(49,557,cs),
(49,488,o),
(96,445,o),
(171,445,cs),
(212,445,o),
(239,459,o),
(252,468,c),
(240,355,o),
(156,347,o),
(125,347,cs),
(107,347,o),
(91,350,o),
(77,354,c),
(77,318,l),
(92,314,o),
(110,311,o),
(130,311,cs)
);
},
{
closed = 1;
nodes = (
(117,481,o),
(88,508,o),
(88,557,cs),
(88,577,o),
(94,642,o),
(171,642,cs),
(196,642,o),
(253,642,o),
(254,511,c),
(245,502,o),
(219,481,o),
(171,481,cs)
);
}
);
};
layerId = UUID0;
shapes = (
{
pos = (0,314);
ref = nine.dnom;
}
);
width = 338;
},
{
layerId = "ECACF70C-BE42-4FA5-B3A0-AFDA71FB1D31";
shapes = (
{
pos = (0,326);
ref = nine.dnom;
}
);
width = 349;
}
);
},
{
glyphname = fraction;
lastChange = "2023-08-05 17:52:16 +0000";
layers = (
{
layerId = UUID0;
shapes = (
{
closed = 1;
nodes = (
(38,-22,ls),
(46,-22,o),
(53,-19,o),
(57,-11,cs),
(447,666,ls),
(453,677,o),
(448,685,o),
(436,685,cs),
(403,685,ls),
(395,685,o),
(388,682,o),
(384,674,cs),
(-6,-3,ls),
(-12,-14,o),
(-7,-22,o),
(5,-22,cs)
);
}
);
width = 444;
},
{
layerId = "ECACF70C-BE42-4FA5-B3A0-AFDA71FB1D31";
shapes = (
{
closed = 1;
nodes = (
(29,-22,ls),
(46,-22,o),
(58,-16,o),
(67,0,cs),
(439,647,ls),
(452,669,o),
(442,685,o),
(417,685,cs),
(362,685,ls),
(345,685,o),
(333,679,o),
(324,663,cs),
(-48,16,ls),
(-61,-6,o),
(-51,-22,o),
(-26,-22,cs)
);
}
);
width = 391;
}
);
unicode = 8260;
},
{
glyphname = zero.inferior;
kernLeft = six.inferior;
kernRight = two.inferior;
lastChange = "2017-07-04 14:13:19 +0000";
layers = (
{
background = {
shapes = (
{
closed = 1;
nodes = (
(281,-155,o),
(329,-94,o),
(329,28,cs),
(329,150,o),
(281,212,o),
(188,212,cs),
(94,212,o),
(46,150,o),
(46,28,cs),
(46,-94,o),
(94,-155,o),
(188,-155,cs)
);
},
{
closed = 1;
nodes = (
(140,-120,o),
(85,-103,o),
(85,28,cs),
(85,159,o),
(140,176,o),
(188,176,cs),
(235,176,o),
(290,159,o),
(290,28,cs),
(290,-103,o),
(235,-120,o),
(188,-120,cs)
);
}
);
};
layerId = UUID0;
shapes = (
{
pos = (0,-151);
ref = zero.dnom;
}
);
width = 379;
},
{
background = {
shapes = (
{
closed = 1;
nodes = (
(284,-155,o),
(332,-93,o),
(332,29,cs),
(332,150,o),
(284,213,o),
(187,213,cs),
(91,213,o),
(42,150,o),
(42,29,cs),
(42,-93,o),
(91,-155,o),
(187,-155,cs)
);
},
{
closed = 1;
nodes = (
(163,-75,o),
(135,-60,o),
(135,29,cs),
(135,118,o),
(163,134,o),
(187,134,cs),
(213,134,o),
(241,118,o),
(241,29,cs),
(241,-60,o),
(213,-75,o),
(187,-75,cs)
);
}
);
};
layerId = "ECACF70C-BE42-4FA5-B3A0-AFDA71FB1D31";
shapes = (
{
pos = (0,-140);
ref = zero.dnom;
}
);
width = 380;
}
);
unicode = 8320;
},
{
glyphname = one.inferior;
kernRight = one.inferior;
lastChange = "2016-08-31 15:16:36 +0000";
layers = (
{
background = {
shapes = (
{
closed = 1;
nodes = (
(163,-149,l),
(163,209,l),
(119,209,l),
(53,167,l),
(53,121,l),
(125,168,l),
(125,-149,l)
);
}
);
};
layerId = UUID0;
shapes = (
{
pos = (0,-150);
ref = one.dnom;
}
);
width = 234;
},
{
background = {
shapes = (
{
closed = 1;
nodes = (
(195,-150,l),
(195,209,l),
(119,209,l),
(44,162,l),
(44,71,l),
(102,106,l),
(102,-150,l)
);
}
);
};
layerId = "ECACF70C-BE42-4FA5-B3A0-AFDA71FB1D31";
shapes = (
{
pos = (0,-150);
ref = one.dnom;
}
);
width = 250;
}
);
unicode = 8321;
},
{
glyphname = two.inferior;
kernRight = two.inferior;
lastChange = "2016-08-31 15:16:43 +0000";
layers = (
{
background = {
shapes = (
{
closed = 1;
nodes = (
(279,-149,l),
(279,-111,l),
(117,-111,l),
(182,-58,o),
(274,32,o),
(274,113,cs),
(274,161,o),
(242,213,o),
(154,213,cs),
(113,213,o),
(80,200,o),
(57,186,c),
(57,144,l),
(75,157,o),
(108,175,o),
(151,175,cs),
(220,175,o),
(235,141,o),
(235,113,cs),
(235,34,o),
(114,-71,o),
(53,-116,c),
(53,-149,l)
);
}
);
};
layerId = UUID0;
shapes = (
{
pos = (0,-150);
ref = two.dnom;
}
);
width = 328;
},
{
background = {
shapes = (
{
closed = 1;
nodes = (
(295,-150,l),
(295,-67,l),
(190,-67,l),
(234,-28,o),
(293,38,o),
(293,99,cs),
(293,155,o),
(259,214,o),
(163,214,cs),
(121,214,o),
(82,197,o),
(51,178,c),
(51,84,l),
(86,112,o),
(125,128,o),
(154,128,cs),
(186,128,o),
(201,113,o),
(201,92,cs),
(201,39,o),
(100,-39,o),
(49,-77,c),
(49,-150,l)
);
}
);
};
layerId = "ECACF70C-BE42-4FA5-B3A0-AFDA71FB1D31";
shapes = (
{
pos = (0,-150);
ref = two.dnom;
}
);
width = 339;
}
);
unicode = 8322;
},
{
glyphname = three.inferior;
kernRight = two.inferior;
lastChange = "2016-08-31 15:16:57 +0000";
layers = (
{
background = {
shapes = (
{
closed = 1;
nodes = (
(246,-154,o),
(281,-99,o),
(281,-47,cs),
(281,19,o),
(217,44,o),
(217,44,cs),
(217,44,o),
(263,63,o),
(263,117,cs),
(263,164,o),
(232,213,o),
(144,213,cs),
(111,213,o),
(84,205,o),
(62,195,c),
(62,156,l),
(81,166,o),
(107,175,o),
(139,175,cs),
(194,175,o),
(224,154,o),
(224,117,cs),
(224,80,o),
(196,59,o),
(144,59,cs),
(103,59,l),
(103,22,l),
(142,22,ls),
(207,22,o),
(243,-2,o),
(243,-46,cs),
(243,-91,o),
(208,-115,o),
(144,-115,cs),
(106,-115,o),
(75,-104,o),
(53,-92,c),
(53,-131,l),
(78,-144,o),
(110,-154,o),
(149,-154,cs)
);
}
);
};
layerId = UUID0;
shapes = (
{
pos = (0,-150);
ref = three.dnom;
}
);
width = 323;
},
{
background = {
shapes = (
{
closed = 1;
nodes = (
(220,-155,o),
(300,-136,o),
(300,-50,cs),
(300,-4,o),
(271,32,o),
(229,44,c),
(256,49,o),
(285,79,o),
(285,114,cs),
(285,192,o),
(211,213,o),
(155,213,cs),
(120,213,o),
(85,202,o),
(57,187,c),
(57,109,l),
(101,130,o),
(123,128,o),
(145,128,cs),
(167,128,o),
(192,119,o),
(192,101,cs),
(192,86,o),
(182,71,o),
(155,71,cs),
(95,71,l),
(95,5,l),
(154,5,ls),
(198,5,o),
(208,-17,o),
(208,-35,cs),
(208,-56,o),
(187,-72,o),
(155,-72,cs),
(125,-72,o),
(86,-58,o),
(50,-36,c),
(50,-125,l),
(83,-141,o),
(120,-155,o),
(159,-155,cs)
);
}
);
};
layerId = "ECACF70C-BE42-4FA5-B3A0-AFDA71FB1D31";
shapes = (
{
pos = (0,-150);
ref = three.dnom;
}
);
width = 335;
}
);
unicode = 8323;
},
{
glyphname = four.inferior;
kernRight = one.inferior;
lastChange = "2016-08-31 15:17:05 +0000";
layers = (
{
background = {
shapes = (
{
closed = 1;
nodes = (
(242,-149,l),
(242,-42,l),
(293,-42,l),
(293,-6,l),
(242,-6,l),
(242,209,l),
(199,209,l),
(29,-1,l),
(29,-42,l),
(203,-42,l),
(203,-149,l)
);
},
{
closed = 1;
nodes = (
(203,153,l),
(203,-6,l),
(72,-6,l)
);
}
);
};
layerId = UUID0;
shapes = (
{
pos = (0,-150);
ref = four.dnom;
}
);
width = 328;
},
{
background = {
shapes = (
{
closed = 1;
nodes = (
(263,-150,l),
(263,-59,l),
(306,-59,l),
(306,20,l),
(263,20,l),
(263,209,l),
(182,209,l),
(25,12,l),
(25,-59,l),
(171,-59,l),
(171,-150,l)
);
},
{
closed = 1;
nodes = (
(171,83,l),
(171,20,l),
(123,20,l)
);
}
);
};
layerId = "ECACF70C-BE42-4FA5-B3A0-AFDA71FB1D31";
shapes = (
{
pos = (0,-150);
ref = four.dnom;
}
);
width = 343;
}
);
unicode = 8324;
},
{
glyphname = five.inferior;
lastChange = "2016-08-31 15:17:13 +0000";
layers = (
{
background = {
shapes = (
{
closed = 1;
nodes = (
(218,-154,o),
(280,-134,o),
(280,-40,cs),
(280,54,o),
(218,74,o),
(166,74,cs),
(137,74,o),
(114,69,o),
(96,64,c),
(106,170,l),
(257,170,l),
(257,209,l),
(73,209,l),
(55,43,l),
(79,18,l),
(79,18,o),
(106,35,o),
(163,35,cs),
(201,35,o),
(242,27,o),
(242,-40,cs),
(242,-73,o),
(237,-116,o),
(163,-116,cs),
(111,-116,o),
(78,-101,o),
(63,-92,c),
(63,-132,l),
(85,-144,o),
(118,-154,o),
(166,-154,cs)
);
}
);
};
layerId = UUID0;
shapes = (
{
pos = (0,-150);
ref = five.dnom;
}
);
width = 319;
},
{
background = {
shapes = (
{
closed = 1;
nodes = (
(232,-155,o),
(297,-131,o),
(297,-38,cs),
(297,56,o),
(247,96,o),
(170,96,cs),
(160,96,o),
(152,96,o),
(144,95,c),
(146,126,l),
(278,126,l),
(278,209,l),
(66,209,l),
(46,35,l),
(97,-2,l),
(97,-2,o),
(123,15,o),
(162,14,cs),
(186,14,o),
(205,0,o),
(205,-30,cs),
(205,-49,o),
(192,-73,o),
(158,-73,cs),
(122,-73,o),
(82,-55,o),
(54,-37,c),
(54,-125,l),
(86,-140,o),
(125,-155,o),
(171,-155,cs)
);
}
);
};
layerId = "ECACF70C-BE42-4FA5-B3A0-AFDA71FB1D31";
shapes = (
{
pos = (0,-140);
ref = five.dnom;
}
);
width = 326;
}
);
unicode = 8325;
},
{
glyphname = six.inferior;
kernLeft = six.inferior;
lastChange = "2016-08-31 15:17:21 +0000";
layers = (
{
background = {
shapes = (
{
closed = 1;
nodes = (
(268,-154,o),
(300,-89,o),
(300,-33,cs),
(300,37,o),
(253,80,o),
(178,80,cs),
(137,80,o),
(110,66,o),
(97,56,c),
(110,169,o),
(193,177,o),
(224,177,cs),
(242,177,o),
(258,174,o),
(272,170,c),
(272,207,l),
(257,211,o),
(239,214,o),
(220,214,cs),
(170,214,o),
(56,194,o),
(56,15,cs),
(56,-97,o),
(97,-154,o),
(178,-154,cs)
);
},
{
closed = 1;
nodes = (
(153,-117,o),
(96,-117,o),
(95,13,c),
(104,23,o),
(130,44,o),
(178,44,cs),
(232,44,o),
(261,17,o),
(261,-32,cs),
(261,-52,o),
(255,-117,o),
(178,-117,cs)
);
}
);
};
layerId = UUID0;
shapes = (
{
pos = (0,-150);
ref = six.dnom;
}
);
width = 338;
},
{
background = {
shapes = (
{
closed = 1;
nodes = (
(277,-155,o),
(312,-85,o),
(312,-24,cs),
(312,72,o),
(246,86,o),
(188,86,cs),
(183,86,o),
(150,84,o),
(138,79,c),
(143,120,o),
(188,134,o),
(222,134,cs),
(235,134,o),
(255,132,o),
(287,122,c),
(287,200,l),
(271,208,o),
(241,213,o),
(214,213,cs),
(163,213,o),
(47,194,o),
(47,15,cs),
(47,-97,o),
(92,-155,o),
(180,-155,cs)
);
},
{
closed = 1;
nodes = (
(159,-75,o),
(138,-46,o),
(139,22,c),
(149,26,o),
(163,28,o),
(179,28,cs),
(209,28,o),
(219,-1,o),
(219,-24,cs),
(219,-34,o),
(216,-75,o),
(180,-75,cs)
);
}
);
};
layerId = "ECACF70C-BE42-4FA5-B3A0-AFDA71FB1D31";
shapes = (
{
pos = (0,-150);
ref = six.dnom;
}
);
width = 347;
}
);
unicode = 8326;
},
{
glyphname = seven.inferior;
lastChange = "2016-08-31 15:17:30 +0000";
layers = (
{
background = {
shapes = (
{
closed = 1;
nodes = (
(129,-149,l),
(284,173,l),
(284,209,l),
(40,209,l),
(40,170,l),
(242,170,l),
(86,-149,l)
);
}
);
};
layerId = UUID0;
shapes = (
{
pos = (0,-150);
ref = seven.dnom;
}
);
width = 315;
},
{
background = {
shapes = (
{
closed = 1;
nodes = (
(157,-150,l),
(298,141,l),
(298,209,l),
(34,209,l),
(34,117,l),
(180,117,l),
(50,-150,l)
);
}
);
};
layerId = "ECACF70C-BE42-4FA5-B3A0-AFDA71FB1D31";
shapes = (
{
pos = (0,-150);
ref = seven.dnom;
}
);
width = 322;
}
);
unicode = 8327;
},
{
glyphname = eight.inferior;
kernLeft = nine.inferior;
kernRight = two.inferior;
lastChange = "2016-08-31 15:17:38 +0000";
layers = (
{
background = {
shapes = (
{
closed = 1;
nodes = (
(258,-154,o),
(291,-94,o),
(291,-43,cs),
(291,22,o),
(231,45,o),
(231,45,cs),
(231,45,o),
(277,63,o),
(277,121,cs),
(277,166,o),
(248,213,o),
(167,213,cs),
(85,213,o),
(56,166,o),
(56,121,cs),
(56,64,o),
(104,44,o),
(104,44,cs),
(104,44,o),
(43,23,o),
(43,-43,cs),
(43,-94,o),
(75,-154,o),
(167,-154,cs)
);
},
{
closed = 1;
nodes = (
(88,-117,o),
(81,-60,o),
(81,-43,cs),
(81,0,o),
(112,23,o),
(167,23,cs),
(222,23,o),
(252,0,o),
(252,-43,cs),
(252,-60,o),
(246,-117,o),
(167,-117,cs)
);
},
{
closed = 1;
nodes = (
(122,59,o),
(95,82,o),
(95,121,cs),
(95,166,o),
(134,176,o),
(167,176,cs),
(200,176,o),
(239,166,o),
(239,121,cs),
(239,82,o),
(212,59,o),
(167,59,cs)
);
}
);
};
layerId = UUID0;
shapes = (
{
pos = (0,-150);
ref = eight.dnom;
}
);
width = 332;
},
{
background = {
shapes = (
{
closed = 1;
nodes = (
(255,-155,o),
(306,-119,o),
(306,-46,cs),
(306,-2,o),
(272,32,o),
(234,42,c),
(262,50,o),
(291,76,o),
(291,114,cs),
(291,181,o),
(247,213,o),
(171,213,cs),
(95,213,o),
(50,181,o),
(50,114,cs),
(50,76,o),
(80,50,o),
(108,42,c),
(70,32,o),
(36,-2,o),
(36,-46,cs),
(36,-119,o),
(87,-155,o),
(171,-155,cs)
);
},
{
closed = 1;
nodes = (
(142,-79,o),
(129,-59,o),
(129,-35,cs),
(129,-20,o),
(142,1,o),
(171,1,cs),
(200,1,o),
(212,-20,o),
(212,-35,cs),
(212,-59,o),
(200,-79,o),
(171,-79,cs)
);
},
{
closed = 1;
nodes = (
(158,77,o),
(140,86,o),
(140,106,cs),
(140,119,o),
(150,137,o),
(171,137,cs),
(192,137,o),
(202,119,o),
(202,106,cs),
(202,86,o),
(185,77,o),
(171,77,cs)
);
}
);
};
layerId = "ECACF70C-BE42-4FA5-B3A0-AFDA71FB1D31";
shapes = (
{
pos = (0,-150);
ref = eight.dnom;
}
);
width = 343;
}
);
unicode = 8328;
},
{
glyphname = nine.inferior;
kernLeft = nine.inferior;
kernRight = two.inferior;
lastChange = "2016-08-31 15:17:46 +0000";
layers = (
{
background = {
shapes = (
{
closed = 1;
nodes = (
(179,-154,o),
(293,-134,o),
(293,45,cs),
(293,157,o),
(252,214,o),
(171,214,cs),
(81,214,o),
(49,148,o),
(49,93,cs),
(49,23,o),
(96,-20,o),
(171,-20,cs),
(212,-20,o),
(239,-6,o),
(252,3,c),
(240,-109,o),
(156,-117,o),
(125,-117,cs),
(107,-117,o),
(91,-114,o),
(77,-111,c),
(77,-147,l),
(92,-151,o),
(110,-154,o),
(130,-154,cs)
);
},
{
closed = 1;
nodes = (
(117,16,o),
(88,43,o),
(88,92,cs),
(88,112,o),
(94,177,o),
(171,177,cs),
(196,177,o),
(253,177,o),
(254,46,c),
(245,37,o),
(219,16,o),
(171,16,cs)
);
}
);
};
layerId = UUID0;
shapes = (
{
pos = (0,-150);
ref = nine.dnom;
}
);
width = 338;
},
{
background = {
shapes = (
{
closed = 1;
nodes = (
(193,-155,o),
(309,-136,o),
(309,42,cs),
(309,155,o),
(264,213,o),
(177,213,cs),
(80,213,o),
(45,142,o),
(45,82,cs),
(45,-15,o),
(111,-28,o),
(169,-28,cs),
(174,-28,o),
(207,-26,o),
(219,-21,c),
(214,-62,o),
(169,-76,o),
(135,-76,cs),
(121,-76,o),
(102,-74,o),
(69,-64,c),
(69,-142,l),
(86,-150,o),
(116,-155,o),
(142,-155,cs)
);
},
{
closed = 1;
nodes = (
(148,30,o),
(138,58,o),
(138,81,cs),
(138,91,o),
(141,133,o),
(177,133,cs),
(198,133,o),
(219,103,o),
(218,36,c),
(207,31,o),
(193,30,o),
(178,30,cs)
);
}
);
};
layerId = "ECACF70C-BE42-4FA5-B3A0-AFDA71FB1D31";
shapes = (
{
pos = (0,-140);
ref = nine.dnom;
}
);
width = 349;
}
);
unicode = 8329;
},
{
glyphname = zero.superior;
kernLeft = tilde;
kernRight = tilde;
lastChange = "2017-07-04 14:13:19 +0000";
layers = (
{
background = {
shapes = (
{
closed = 1;
nodes = (
(281,457,o),
(329,519,o),
(329,641,cs),
(329,763,o),
(281,825,o),
(188,825,cs),
(94,825,o),
(46,763,o),
(46,641,cs),
(46,519,o),
(94,457,o),
(188,457,cs)
);
},
{
closed = 1;
nodes = (
(140,493,o),
(85,510,o),
(85,641,cs),
(85,772,o),
(140,789,o),
(188,789,cs),
(235,789,o),
(290,772,o),
(290,641,cs),
(290,510,o),
(235,493,o),
(188,493,cs)
);
}
);
};
layerId = UUID0;
shapes = (
{
pos = (0,462);
ref = zero.dnom;
}
);
width = 379;
},
{
background = {
shapes = (
{
closed = 1;
nodes = (
(284,458,o),
(332,520,o),
(332,642,cs),
(332,763,o),
(284,826,o),
(187,826,cs),
(91,826,o),
(42,763,o),
(42,642,cs),
(42,520,o),
(91,458,o),
(187,458,cs)
);
},
{
closed = 1;
nodes = (
(163,538,o),
(135,553,o),
(135,642,cs),
(135,731,o),
(163,747,o),
(187,747,cs),
(213,747,o),
(241,731,o),
(241,642,cs),
(241,553,o),
(213,538,o),
(187,538,cs)
);
}
);
};
layerId = "ECACF70C-BE42-4FA5-B3A0-AFDA71FB1D31";
shapes = (
{
pos = (0,473);
ref = zero.dnom;
}
);
width = 380;
}
);
unicode = 8304;
},
{
glyphname = one.superior;
kernLeft = tilde;
kernRight = tilde;
lastChange = "2016-08-31 15:19:20 +0000";
layers = (
{
layerId = UUID0;
shapes = (
{
pos = (0,462);
ref = one.dnom;
}
);
width = 234;
},
{
background = {
shapes = (
{
closed = 1;
nodes = (
(196,463,l),
(196,822,l),
(120,822,l),
(45,775,l),
(45,684,l),
(103,719,l),
(103,463,l)
);
}
);
};
layerId = "ECACF70C-BE42-4FA5-B3A0-AFDA71FB1D31";
shapes = (
{
pos = (0,462);
ref = one.dnom;
}
);
width = 250;
}
);
unicode = 185;
},
{
glyphname = two.superior;
kernLeft = tilde;
kernRight = tilde;
lastChange = "2016-08-31 15:19:28 +0000";
layers = (
{
background = {
shapes = (
{
closed = 1;
nodes = (
(279,463,l),
(279,502,l),
(117,502,l),
(182,555,o),
(274,644,o),
(274,726,cs),
(274,774,o),
(242,826,o),
(154,826,cs),
(113,826,o),
(80,813,o),
(57,799,c),
(57,757,l),
(75,770,o),
(108,787,o),
(151,787,cs),
(220,787,o),
(235,754,o),
(235,726,cs),
(235,647,o),
(114,542,o),
(53,497,c),
(53,463,l)
);
}
);
};
layerId = UUID0;
shapes = (
{
pos = (0,462);
ref = two.dnom;
}
);
width = 328;
},
{
background = {
shapes = (
{
closed = 1;
nodes = (
(296,463,l),
(296,546,l),
(191,546,l),
(235,585,o),
(294,651,o),
(294,712,cs),
(294,768,o),
(260,827,o),
(164,827,cs),
(122,827,o),
(83,810,o),
(52,791,c),
(52,697,l),
(87,725,o),
(126,741,o),
(155,741,cs),
(187,741,o),
(202,726,o),
(202,705,cs),
(202,652,o),
(101,574,o),
(50,536,c),
(50,463,l)
);
}
);
};
layerId = "ECACF70C-BE42-4FA5-B3A0-AFDA71FB1D31";
shapes = (
{
pos = (0,463);
ref = two.dnom;
}
);
width = 339;
}
);
unicode = 178;
},
